<svg xmlns="http://www.w3.org/2000/svg" version="1.0" viewBox="0 0 4706 5974">
  <path d="M2932 106c2.414 6.951 2.414-6.951 0 0zM3044 129c-39.78 31.973 31.81 85.966 18 96-50.2-27.35-109.347-52.078-166-69.6-28.405-7.24-41.18 28.483-20 60.6 10.043 44.639 53.15 70.256 52 96.4-68.213-64.532-153.25-75.927-227.2-112.7-6.417 28.285 2.96 64.339-21.8 30.3.61 40.22 33.931 65.747 57 106 17.39 29.12 85.256 70.813 75 94-42.33-16.806-97.323-34.836-133-7-33.53-26.76-92.718-15.762-33 17 45.075 25.045 71.47 41.913 101 67 34.986 34.33 50.964 18.257 36.2-3-15.639 28.279 43.596 9.675 34 30.9-18.814 37.83 38.792 41.772 37.8 77.7 17.277 23.997 32.949 73.963 56 69.4-9.175 23.624-18.28 3.786-2 36-20.341.452-74.944-52.17-64-45-32.656-34.944-67.779-80.236-110-104-35.648-3.398 38.663 46.312-15 29 23.745 1.87 66.774 24.043 19 19-30.847 28.141 117.073 34.88 44 48-27.518 30.711 90.232 9.72 50 36-40.799 17.39 82.37 16.465 27.7 43.7 26.658-.158 80.274 25.012 29.7 21.3-7.065 15.212-.12-51.953 28.5-13.1 14.891-26.701 57.592 26.218 28.1 27.1 8.01 14.508 55.842 47.867 6 40.4 32.713-2.267 27.63 49.527 26 32.6 37.345 21.884 54.376-9.466 38 34 5.883 29.25 9.757 67.68 44 40.5 28.79 26.242 83.787 34.705 62 29.5-62.91 24.948 207.459 186.332 88 112 42.676 41.528 97.457 93.021 128 143-35.041.012-95.77-76.998-91-76-118.148-100.677-223.912-213.822-345-309-16.538-9.522-48.954-52.177-83-75-14.642-33.337-89.377-26.153-79-40 39.423-20.646-31.477-57.796-44-89-48.525-46.896-88.831-107.123-108-167.2-30.9-29.899.888-39.407 14-51.8-35.408-9.206-62.168 25.585-54 15-47.63-46.58-97.909-64.762-141.3-107.4-17.278 4.494-62.612-23.443-37.4 14 35.893 18.404 78.677 39.56 93.2 85-31.748-41.468-64.335-7.32-44.5.4 1.555 34.001 17.451 62.83 34.6 39-45.451 23.717 61.401 22.386 34.9 24-4.383 15.572 57.469 55.131 10.4 33 37.12 3.61 4.052 42.826 8.1 24.6 42.753 22.367 63.843-2.946 38 35.4 25.13 21.897 53.265 12.897 40.2 41 41.436 17.07 56.039 46.46 93.8 68.4 25.578 11.862 79.829 43.882 48.4 39.6-11.564 30.456 14.442 72.337 29.8 34 8.396 7.685 22.897 34.399 45.4 47.2 19.4 9.385 44.096 55.951 78.6 46.8 6.367 34.78 42.513 30.958 54.8 62 35.932 16.413 73.045 59.888 97 81.5 100.562 88.132 211.507 181.224 295 276.5-7.203-71.182 297.342 379.184-41-22-96.358-98.52-194.096-194.73-310-270-60.394-47.58-117.402-94.732-178-139-56.81-32.42-113.446-103.853-169-135-7.862-33.48-31.517 5.675-23-20-6.205-29.586-66.535 16.317-22-21-55.492-90.965-179.81-165.68-216-280.8-37.436-24.771 1.738-88.473-42.6-56.2-38.945-23.895-83.527-32.7-55.8-23.3-12.717 24.643-70.832-35.475-28.6-34.7-11.226 15.781 18.006 27.586-21.1 18 5.115 20.968 23.583 17.55 44.1 37 5 18.319 33.348 49.871 0 23-24.524-15.478-71.43-45.1-80.3-27.3 12.91 4.608 44.21 42.341 16.8 29.5 14.688 9.466 49.747 30.433 49.8 37-25.457-2.72 35.406 33.988 24.4 30.4-20.925 27.582 36.199 28.504 13.3 38.4.998-5.04 70.727 26.955 35.6 36.7 42.16 19.024 18.269 37.748 9.4 31.3 22.369 7.035 60.412 24.48 20 28 16.277 24.13 65.395 19.953 33 43.6 7.175 21.962 89.051 29.373 39.4 35.8-.824 23.17 82.082 14.584 49.1 32.6-50.18 24.165 96.326 16.859 32.5 34-34.8 26.926 65.016 3.792 47.5 20-.276 13.731 51.267 36.991-4.5 29 29.473-6.784 56.524 18.853 14 14-28.92 16.153 53.136 22.636 57 19 71.827 21.066-68.837 12.625-1 33 28.337-1.576 83.692 13.113 66 9 28.893 9.109 78.6 43.377 36.4 41.2 32.848-2.769 67.358 19.043 30.6 22.8 14.633 14.936 43.774 38.356 25 0 24.567 33.31 1.572 22.763 4 31 34.261 8.827 60.647 62.35 49 33 13.722 27.403 18.767-51.116 13-37 5.607-1.11 32.466 84.82 16.4 57 41.3 10.267 43.48 42.884 31.6 30 37.999-7.355 83.735 48.919 58 25 14.704 36.139 77.646 50.778 105.8 85 91.133 67.206 188.612 142.047 248.4 234-127.392-123.716-267.54-256.058-432.2-322-49.481-34.881-17.87 12.077-22 11 22.427-18.524 37.789-24.404 20.5 15.4 20.31 29.371 81.2 66.98 40.5 47.6 129.143 79.759 266.872 153.463 367.5 271.5 31.761 50.478-52.615-33.115-52.5-35.5-106.763-99.717-231.926-181.627-365-238-89.195-22.516-160.5-86.136-248-120-194.266-113.106-351.983-285.282-469-475-32.423-24.125-37.653-119.716 19.6-89 31.828 30.11 2.294 86.57 4.4 55.6-12.85 20.795-10.04 11.887-3 14.4 7.718 20.635 31.818 43.488 45 48.6-3.114 38.658 31.162 104.168 31.4 65.4 11.22 18.958 57.729 85.2 46.6 67 45.641 34.192 58.496 60.916 51.8 53 21.994 11.12 50.965 7.144 26.2 27.6 30.356 6.973 67.956 43.29 50 36.4 26.397 3.023 28.809 43.714 24.4 30 48.937-12.051 47.906 42.242 36 29.2 27.103-3.581 37.199.596 29.6 27.8 42.121-19.03 75.885 29.238 62 31 17.61 9.634-16.456 42.504 16 29 25.52 19.062 74.624 16.797 94.8 17.4 31.292-14.955 68.388 18.943-1.8 29.6 4.53-20.752 46.34-15.346 24.7-37.3 33.2 41.259 44.223-13.375 16.3 26.9-50.074-26.788-12.127 64.797-5 18.4 10.714 10.608 71.151 12.378 45 15-31.357 31.674 35.867 9.426 33 13-3.508 44.583 59.009 14.256 35-13.6-71.24-48.092-138.761-92.025-206-147.4-169.036-115.688-291.85-287.598-418-446-2.063-30.206-32.05-101.226-53-87-11.545 4.006 17.503 36.078 11 57 23.856 25.541-72.968-27.23-25.5-.8 44.807 31.44-22.205 1.532-40.8 4.5 1.218 23.374-19.281-8.605-6.7 23.3-11.02 20.54 12.686 51.377-3.2 24.7 17.856 35.733 11.368 65.05 38.2 89.1 1.827 27.721-9.803 53.89-12.6 24.2-36.663 61.873 46.547 131.932 41.7 178-10.575 5.793-10.128 70 10.9 101 24.567 48.214 71.937 98.652 92 139-26.737 59.108 36.6 112.361 68 157.6 38.91 56.584 46.6 130.434 102 178 16.79 51.28 23.333 115.47 79 146.4 22.555 45.611 34.202 100.54 76.2 140.2-33.047 49.277 47.345 86.513 14.8 136.8 13.11 65.144 88.95 93.546 144 118 15.169-20.463 67.276 10.268 90 12-97.915 17.334-191.115 63.315-294 50-87.65 9.767-168.616-39.937-255-53-203.618-51.935-407.689-95.105-611-137-118.58-31.97-240.784-50.166-362-70-33.033.627-84.584-6.891-91-3-17.084-17.318-77.854-28.66-101-15 4.582 63.532 81.983 11.96 122 46 163.222 21.571 323.037 58.238 488 93 201.55 46.689 393.738 100.58 597 134 39.841 6.506 97.31 14.677 128.4 44 51.664-2.275 95.042 23.856 139.6 40-57.208 12.441-105.906-35.13-165-29-39.205 40.56-81.265-39.395-129.7-27.8-62.026-10.587-124.298-33.397-186.3-36.7 16.573 17.89 75.646 37.944 34 36.5 29.345 10.463 70.722 5.824 92.6 25.6-116.061-16.279-235.62-48.395-347.6-60.6-27.411-7.731-113.74-19.945-83-15-29.84 1.873-68.61-24.978-108.3-2.2 2.285-31.34-68-41.112-53.7-20.8-38.809 12.547-69.938-25.783-113-6-30.704-.757-52.814-8.235-73-16-27.923-1.858-100.493-12.161-76-8-42.229-5.875-85.761-10.997-134-12-38.255-12.641-71.591-8.042-104-14-22.03-2.933-49.948-18.155-76.2-2.8-18.504-18.889-79.739-22.91-60.8-13.2-31.658 18.488-97.935 20.214-61.3-.8-44.662-17.633-100.116-12.83-148.7-15.2-28.653 12.9-43.895-12.845-77 4-15.206-28.477-54.784 19.98-78-3-56.965 4.824-118.572-9.15-179 21 7.21-29.131-39.022 7.382-47-7-35.745 5.18-119.24 18.192-126.3 12.2 106.439-30.012 239.161-57.5 342.3-49.2 96.02-10.942 172.691-2.981 264.9-2 157.474 4.308 316.228 24.277 471.1 38 165.667 15.596 326.792 36.94 486 75 59.94.538 120.918 22.272 178.6 19.5-73.515-25.832-160.434-47.264-238.6-63.5-56.43-18.732-120.188-20.482-168-44-27.746 6.719-46.56-10.635-68-7.5-22.542-15.082-108.422-24.24-92-13.5-35.754-24.091-51.702 15.9-68-14-38.654 21.542-103.01 20.18-60-3-33.271 12.883-113.69 17.475-71-7-25.337-15.6-71.446-26.67-114-12 14.43-29.856-166.67-18.937-79-30-34.658 21.072-53.316-19.966-90.6 0-10.925-31.775-75.177 9.088-56.1-17.7-12.663-18.434-70.135 34.524-48.7-6.9-22.968-7.403-80.274 25.111-72.6-.4 11.14-25.31-59.544 21.223-62.8-9-48.041 15.024-32.945 18.631-47.2-2-62.335 9.201-138.715-4.18-199 0 52.208-9.475 119.04-20.09 160-22 50.019 7.175 117.244-16.872 145-5.4 76.615 15.515 163.122 23.205 242 19.4-8.663-27.148 87.55-4.055 58 13 12.867-3.277 15.1-29.066-6-28-55.508-19.55-51.44-.869-15.6 17-6.133-42.364-78.023-12.896-73.8-30.6-31.926-4.076-92.885-15.708-106.2-1.4-5.47-3.483-89.12 13.534-69.8-9.4-1.818-7.95-60.914 5.833-41.6-2.6-13.58 35.122-33.97-28.141-72.7-15.3-108.701 15.83-233.65-18.92-339.8 35.8-32.78 73.761 75.12 87.615 113 99-88.646 5.742-196.007 25.1-248.5 76.5-2.295 33.962 16.163 40.088 24 38 1.342 43.982 47.971 23.24 65 43-40.39 10.394-37.554 47.612-10 67 21.27 26.135 71.687 14.991 94 23-3.032-23.39-18.026-38.627-19-25-12.639-23.56-23.018-23.456-12.6 8 6.014-24.065-39.42-76.644-20.4-51 48.518-24.276 111.287-13.964 160-18 218.621-26.032 442.75-20.936 661-19 210.069 27.223 424.118 39.564 637 67 127.062 21.447 265.116 18.834 380 79.5-120.577-.705-242.52-42.302-366-49.5-282.824-46.657-567.88-73.208-853-83-203.83 3.19-414.433 28.022-615 25.6 19.641 12.6 55.857 58.921 38 18.4 28.064-8.634 22.972 16.893 40 2 11.933-3.48 32.68 21.639 12 28 14.776-17.255 48.053-55.01 28-20.4 18.14-16.978 56.118-10.003 42-1.6 21.648 28.601 49.754 31.511 36 4 25.363 6.29 66.202 18.883 52 38 22.057-31.821 24.26 21.31 42-19 15.822 13.4 44.103-16.522 26 5 9.379 30.923 80.942 35.165 45.1 8 71.532-39.125 39.303-16.008 38.9-9 6.621 19.497 75.73 10.956 38-4 28.607-4.895-36.965 42.065 11.2 19 88.243-53.743-19.848 26.988 59.1-6.8 32.936-16.404 99.12-9.61 63.3.8 42.441 7.392 88.119-4.528 129.6-4.2-.045 20.714 67.1-29.768 38.8 13.2 37.534-30.33 79.658-15.42 58-4 45.884-25.88 6.678 27.2 52 8 62.627-25.31 20.154 12.399 54-6 26.194-12.093 23.195 30.321 30.4 10.2 20.728-8.495 80.063-36.64 43.5.8 18.987-.822 76.266-3.699 62.1-16-36.283 7.148-11.547 38.539 24 5 33.376-14.213-26.742 27.66 4 12.6 25.215 27.86 86.935-36.568 92-13.6-46.097 17.277-5.81 34.614 22.2 10 16.864-6.473 75.085-10.392 38.8 10 34.03-17.687 30.1 19.877 67-3 5.684 9.402 76.692-15.358 48 4 56.376-24.803-19.739 29.491 12 9 18.146 14.411 83.689-33.538 46 10 20.26 9.31 50.124-20.971 52 6 69.252-12.456 99.163-6.458 78-2 42.963 2.828 75.738 19.655 122.3 9.2 19.4 18.46 39.806 37.984 45.6 8.8 28.206-1.981 98.823-25.53 64.1-1 7.447 23.048 75.862 8.773 110 28 49.634-2.483 96.512 27.922 148 17 63.439-21.576 53.062 9.528 90.6 22.5-100.893 15.168-199.62-18.035-301.7-22.5-306.933-52.695-632.707-70.92-928.5-81.3-134.638 3.073-271.49.706-402.4 9.7 34.742 25.383 89.608-9.735 109.6 27.6 8.59-13.099 33.227-.38 34.4-2 26.722 3.772 43.905-4.235 57-6 10.617 1.929 85.025 1.365 50 4 19.05-1.911 51.088 3.178 47-9 118.144 26.11 239.628 18.493 362 33 249.774 12.613 496.322 54.435 742 93 85.998 22.963 169.721 52.173 258.8 59 24.006 36.896 79.606 34.997 105.2 76 41.242 16.836 85.755 43.527 126 46.5 29.738 10.652 135.079 22.58 94 33.5 98.88-.805 199.268-27.245 293.7 8.7 35.188-1.28 71.854-8.353 94.3 16.3 13.803 20.02-126.201-14.999-105-5-29.993 22.156-134.223-38.153-112.6-15.3-46.468 25.854-108.115-12.86-136.4 37.3-25.973 10.29-63.234 11.555-83.5 10 49.9-42.869-62.437-19.694-45.2-13.7-58.808-22.339-56.548 48.104-33.3 84.7 14.798 46.757 48.047 99.382 45.1 141.1 1.863-2.245-71.879 48.693-51.1 27.9-61.419 48.458 49.528 13.005 76 49 44.334 26.235 72.204 93.037 68 137-77.287 14.376-133.669-103.358-214.5-56.5-.494 42.137 66.598 41.855 82.3 82.5 19.782 25.697 31.373 1.242 44.2 13-19.726 52.573 1.98 32.263 10 23 25.811 18.353-29.55-24.707-1-22-18.429-8.148 38.525 9.867-7-21 17.782 16.976 87.055 30.865 47 47 55.17 14.033 66.799 28.872 23 21 48.449 11.017 46.114 66.338 37.4 109.6 25.95-1.303-.508 50.091-1.4 24.4 15.439 43.936-4.098 77.32 6 127.6 40.509-55.524 15.483-34.87 20-13.6-30.755 33.514-.713 69.698 17 19 .39-37.301 32.348-49.494 33.8-6.4 9.804 32.924-7.319 122.387 36.7 108.4 41.414 46.236 78.654-46.036 63.5-82 9.997-44.207-34.951-87.103 11-122.8 34.869-77.17 69.867-163.11 33-243.2 2.178-101.899-2.228-195.52 4-304-5.932-46.083 100.822-24.265 44.6-64.8 21.86-19.898 41.054-15.077 30.6-2.8 11.81-10.54 57.551-14.363 35.8 9.6 13.716 5.122 59.373 13.09 36 18 11.075-16.149 81.228 4.544 52 16 83.254 31.25 188.363 20.26 282 13 143.12-30.525 285.612-89.62 384-203.5 143.835-90.296 233.48-240.24 318-382.1-22.326-11.365 72.192-79.581 48-59.4 44.54-49.867 40.047-140.166 117.8-160 36.49-37.837 106.737-62.63 119.7-111.5-70.364-32.7-153.866-5.163-217.5-8.9-31.644-23.31-39.958-28.19-68-40.6-57.421-27.915-122.977-49.465-191.5-65-42.808-80.1 41.84-179.49-2.5-266-15.078-36.164-24.386-90.714-44.1-112.9-2.802-26.664-15.828-92.87-9.9-60.9-20.46-53.633-42.93-98.15-58-141.2-19.684-57.8-48.918-111.544-80-150.9-93.037-100.117-160.147-223.957-264-315.6-46.301-56.62-139.404-133.494-92.1-88.5-40.391-25.399-87.069-86.195-133.9-73-7.722-38.189-7.786 11.917-17.2 2.7 69.956 52.436 152.231 131.59 223.2 200.3 72.187 81.43 154.204 165.564 200.4 262-35.142 15.265-5.383-22.254-41.6-32-14.369 20.212-58.623-34.466-20.8-31.6-18.476-3.848-1.153-43.563-10-23.9-18.095-19.275-61.937-19.104-36-38.5-22.354-23.03-75.304-16.462-45-50-43.748-11.52-96.831-83.64-65-64-32.478-1.295-52.554-64.795-36-38.5-13.175-28.92-45.079-51.907-44-27.5 1.522-43.383-39.52-30.143-64-50 23.286-34.826-69.678-21.912-63-62-21.698 40.193-25.55-32.922-25-17-31.654 2.201-63.599-19.693-65 11-22.904-27.947-19.538 6.708-34.8 13.2-48.85-19.164-2.27 32.925 22.4 14.8 15.014 11.296 1.945 13.959 39.4 22-6.016-7.366 34.017 22.362-12.1 20 30.626-.894 34.467 34.58 49.1 12 15.575 21.774-19.794 12.124-21 25 35.62 7.915 79.103 26.505 52.4 44.2 19.602-9.197 71.664 23.845 27.6 22.8 1.38 23.572 75.116 14.116 38 43 7.767 21.903 100.222 30.922 44 42.5 13.85 20.88 93.367 23.417 40 38 10.889 25.889 97.411 23.455 43 44.5 12.61 16.39 81.009 30.688 43 32.4-8.35 12.33 34.934 45.677 59.5 54.1-23.254 30.622 54.609 39.938 8.5 44.5-93.948-91.476-218.427-213.506-302-282-14.771-11.725-40.753-53.277-52.5-52.5-21.972-21.358-78.862-13.454-62.1-31.9 20.596-28.959-34.727-52.319-47.4-58.1-48.892-51.603-108.079-95.128-138-165 21.286-24.472 75.934-5.141 79-11.5 29.684 16.975 94.366 53.009 65.3 38.7 13.32 5.14 57.65 23.415 21.7 30.3 22.643 13.47 57.9 56.43 50 29 43.272 14 12.138-41-16-32-32.574-33.932-82.445-64.026-122-78-32.304-10.981-65.331-42.061-106-37zm0 12c-2.555 3.588-2.555-3.588 0 0zm-92 48c-4.959 10.538-4.959-10.538 0 0zm-30 6c42.012 8.41 95.172 43.914 111.5 77-26.21-22.355-76.035-55.673-101.5-52.2 15.113 37.867 61.368 65.932 95.3 57.9-18.229 31.226-59.997 9.86-9.4 33.3 15.75-1.568 80.592 8.813 66.4 17.7-24.729 1.244-77.103-6.054-31.3 21.3 31.014 16.208 47.616-27.175 67.6 10 32.134-3.37-65.287 6.993-33.2 13.4 15.658 29.259 94.383 1.513 96.6 35.6-61.639 6.383-120.27 2.803 5 17 39.343 20.987 63.937 53.996 53 3-31.663-7.721-73.642-2.185-21.7 16.2-66.85-11.873 48.316 14.489 11.7 19.8 25.107-19.116 53.43-13.43 61 23 8.002 25.697-44.212 34.963 3 35-30.825 5.805 39.091 19.532 55.7 22.2-4.401 13.16 88.139 38.192 18.3 33.8 63.736 14.888 23.388 32.638 18 43 19.931 25.356 72.912 11.739 58.5 49.5 30.655 6.865 49 36.452 69.5 47.5-10.426 38.394 57.265 24.07 44 58 33.204 40.701 38.559 5.812 40 44.5 38.419 46.508-51.937-28.05-64-45-82.001-78.894-176.17-166.188-268-219.5-29.578-8.149-12.059-24.969-50-44.6-32.571-18.936-82.93-75.1-126-101.4-71.228-52.563-154.285-99.95-180-189-6.29-10.513-11.705-34.92 10-27zm-176 38c-4.727 17.322-4.727-17.322 0 0zm-4 11c2.367 14.312 37.371 18.97 34 20 5.219-1.018 35.677 25.317 41 36-19.28.336-85.42-8.817-59-.5 16.742-8.402-28.294-32.38 13.2-15.5-17.856-19.31-76.27-4.049-29.2-40zm12 0c5.351 11.463-6.361-4.95 0 0zm212 2c-2.023 13.64-5.72-10.48 0 0zm-736 51c-2.555 3.588-2.555-3.588 0 0zm582 4c-2.555 3.588-2.555-3.588 0 0zm4 2c-2.555 3.588-2.555-3.588 0 0zm503 7c15.892 10.968-16.345-1.848 0 0zm-1033 7.6c-3.643 13.507-5.882-3.862 0 0zm516 7.4c33.224 28.726-43.48-1.467 0 0zm14 4c-2.555 3.588-2.555-3.588 0 0zm4 0c54.653-1.515 9.393 32.056 0 0zm548.6 6.4c1.95 6.798-6.798-1.95 0 0zM3178 346c-8.97 6.744-2.555-7.668 0 0zm-900.3 8.6c8.452 10.173-11.711-8.652 0 0zM2848 361c15.273-1.974 89.341 18.143 36.6 8.4 1.64 8.337-96.726-3.719-36.6-8.4zm-747.4 12.4c2.502 8.405-11.843-6.616 0 0zM3192 391c16.854 27.526-23.173.416 0 0zm-265 9c69.954 10.297-73.46 3.446-31 15-35.11-16.466 26.807-5.367 31-15zm27 5c-2.555 3.588-2.555-3.588 0 0zm308 12c-2.555 3.588-2.555-3.588 0 0zm-285.8 20.2c46.37-4.372-58.192 12.958-3.2 18.8-85.66-7.047 5.778-16.86-7.4-16l4.4-4.4zM3270 439c13.657 11.232-12.735-.79 0 0zm-242 12c61.68 29.081-38.456 42.225-39 21 14.668-8.199 49.5 1.517 39-21zm86.6 16.4c-40.32 35.06-27.004 77.038-2.6 39.8 7.834 7.083 30.699-12.508 25.5 14.2 31.677 25.782 3.799 42.347-25.5 14.6-23.061-63.36-57.893-56.285-38-38-41.339 21.66 72.126-19.813 5.7-12.8 13.813 21.326 12.304-23.608 34.9-17.8zM2948 494c-15.132 26.032-24.26-15.553 0 0zm-150 5c13.982 6.388-15.194-1.783 0 0zm340.6.5c1.592 9.473-9.705-1.716 0 0zM3154 524c3.879 18.933-4.598-12.772 0 0zm176 1.6c-4.524 14.515-5.737-7.435 0 0zm18 .4c7.287 16.282-11.801-1.077 0 0zm-431 6c12.549 1.042 53.78 55.262 56 62 10.074 9.434 28.274 47.601 49 56-10.68 22.585 54.382 58.24 34.4 30.7-5.26-51.335 60.769-55.145 3.6 25.3 30.05 29.73 38.196 37.541 64 64 25.02 51.228 33.873 21.106 42.5 14.7 10.29-33.276-8.003-46.317-19.5-52.7 20.084-17.362 48.843-26.754 28-12 1.938 11.344 16.208 55.097 29 23-39.562.622-26.475 13.572-27.2 42.6-33.786.098-17.547 34.297 8.2 16.4-3.64-53.092 50.83-35.328 27 0-24.004 14.264 21.186 47.702-8 41-19.61-39.179 49.053 35.79 14 35 .155 19.134 9.813 60.834 4 37.4 26.55-11.63 66.315 43.405 34 29.2 24.587-13.216 1.109 17.7 22 32.4 39.32-29.736 67.725.347 32 16 42.029-27.04-24.393 23.6 10.6 26.4 14.264 32.94 48.916 69.783 71.5 94.6 18.165-3.064 26.123 19.652-4 20-37.31-16.096-35.373-7.592-47.1 12 39.43 22.11-2.68 35.482-16 0-107.36-120.77-227.65-228.744-328.2-355.8-47.544-9.957-31.409-24.384-38-32-34.038 14.448 38.734-20.81-3.8-40.2-15.212-33.21-43.509-58.564-52.5-70.5-19.24-3.474-10.79-69.008-11-56-26.806-9.951 15.45-35.489 11.4-39.5 15.983-.38-.621-25.548 14.1-20zm-79 8c-9.607 23.253-12.539-7.912 0 0zm322 3c-2.327 10.4-2.327-10.4 0 0zm-99.4 2.4c3.765 11.008-7.416-.37 0 0zm57.4-.4c-5.243 3.685-5.243-3.685 0 0zm118.6.4c14.25 21.958-8.9 20.494 0 0zm-356.6 1.1c-18.432.036-20.523 49.563-26 35.5 13.098-15.102 2.46-34.443 26-35.5zm146 4.5c-2.555 3.588-2.555-3.588 0 0zm160 4c3.478 39.528 54.544-24.706 30 23 43.348 23.68-21.454 29.106-35.6 28.7-21.676 36.88 44.84 1.557 58.6 15.3 27.58-16.049 69.829 37.697 58 34 3.288 40.47-42.703 14.563 21.2 46 49.81-2.702 138.983 30.119 70.8 42-.107 7.2 66.78 38.695 27.1 39 50.38 13.249 42.52-14.59 26.9 27 9.75 12.45-10.944 41.906 39 29.5 30.194 12.85 47.677 28.052 67 48.5 21.486 10.263 34.413 60.374-3 30.4-107.276-87.853-221.818-197.443-330.7-266.1-32.26-50.727-16.734 33.14-21.3 26.7-1.419-44.285-47.106-95.538-28.3-68 23.38-19.321-9.322-16.69-5.3-35-21.687-19.539 32.922-7.161 25.6-21zm-146 3.6c-14.392 22.18-29.502-15.365 0 0zm6-1.6c-2.555 3.588-2.555-3.588 0 0zm-40 13c-2.414 6.951-2.414-6.951 0 0zm4.6 5.4c.793 36.552-8.134 27.478 0 0zM2844 577c-2.555 3.588-2.555-3.588 0 0zm-104 15.6c.378 5.57-7.058-1.576 0 0zm512 3.4c-7.37 9.315.572-12.639 0 0zm-1108 1c59.066 76.03 113.892 161.102 185 223 27.456 23.566 49.118 63.802 84 68 2.216 33.523 50.608 36.691 69 67 31.75 12.385 58.211 38.363 96 39-12.206 26.958 56.582 25.97 69 54 43.07 0 77.006 40.592 114 34 22.004-22.922 54.057 39.733 43 28 7.263-39.634 22.661 28.66 51.4 28.3 130.256 88.29 288.15 134.563 399.6 251.7 29.791 47.417-66.301-51.26-39-14-37.455-42.549-121.29-81.354-145-110 .754 21.264-40.78-25.614-57-21-81.992-43.25-163.596-95.1-251.6-117-66.78-39.58-159.848-87.725-237.4-128-166.41-86.416-301.3-234.39-387-400.2l3-3.8zm854.6.4c-5.28 12.817-9.858.922 0 0zm38.9 1.1c10.27 15.746-16.7 3.299 0 0zm8.5.5c15.445 3.012-6.897 5.926 0 0zm46 7c27.412 6.237-3.385 14.747 0 0zm-31.4 1.4c8.35 15.64-8.992-.134 0 0zm65.4-.4c-5.243 3.685-5.243-3.685 0 0zm4 3c-2.414 6.951-2.414-6.951 0 0zm-100 4.5c64.41 59.754-3.383 25.382 0 0zm112 4.5c31.7-5.287.782 58.578-6.5 7.4-5.56 39.905 30.665-25.438-2.5-6.4 3.466 2.851 6.107-4.634 9-1zm-32 10.9c6.462 9.89-9.826-7.26 0 0zm-77.4 3.5c6.134 15.271-10.974-.399 0 0zm56 4c35.466 15.29 41.903-28.964-2.6 3.6 1.633-3.039-7.864-6.46 2.6-3.6zm-60.6 3.2c.378 5.57-7.058-1.576 0 0zM2546 654c-2.023 13.64-5.72-10.48 0 0zm520 0c-2.414 6.951-2.414-6.951 0 0zm26.6 5.4c2.697 61.948-8.67-1.935-10.6 14.6 4.93.347 4.604-20.007 10.6-14.6zm43.4 4.6c-9.8 19.05 1.712-16.292 0 0zm-2 8c-13.84 12.392-10.053-4.431 0 0zm-588.5 2.5c5.78 15.058-13.314-5.611 0 0zm567.1 4.9c30.734 15.513-26.151 20.074 0 0zm66.1.1c4.971 6.783-8.144-4.729 0 0zM2723 682c29.087-2.2 11.808-18.021-4.2-2zm427 5c47.214 17.115-59.625 21.347-5 1-3.925-2.104 4.965-2.729 5-1zm-562 16.8c-4.153 34.154-39.83-1.079-6.4 4.2 3.036 5.603 4.804-11.438 6.4-4.2zm502 7.2c-9.354 23.349-11.411 1.138 0 0zm64.7 2.5c5.31 4.122-25.175 3.605 0 0zM2952 728.6c-16.414 35.89-33.643 4.542 0 0zm182.6 10.8c4.882 14.183-12.246-1.646 0 0zM2774 748c-2.414 6.951-2.414-6.951 0 0zm162 7c-2.555 3.588-2.555-3.588 0 0zm216 4c-2.555 3.588-2.555-3.588 0 0zm44 2c-2.555 3.588-2.555-3.588 0 0zm38.4 2.2c34.131 10.214-4.911 9.597-14.4 8.8-8.438-4.786-7.035-25.536 14.4-8.8zM2642 770c5.55 14.113-6.493-3.205 0 0zm14.6-.6c39.375 35.985-26.423 12.336 0 0zm558 0c1.95 6.798-6.798-1.95 0 0zM3834 776c-2.28 13.93-2.28-13.93 0 0zm-1026.5 2.5c16.444 16.6-16.76-2.338 0 0zM3268 791c51.477 16.54-58.244 8.357 0 0zm-1004 2c-2.555 3.588-2.555-3.588 0 0zm-52 6c33.544 23.178 54.612 78.621 88 110 18.93 29.567 53.792 27.93 64 61 36.73 35.628 82.091 55.705 120 87 41.806-3.046 47.687 43.213 94 43.5 26.475 34.696 82.855 14.76 92 44.5 37.038 8.186 68.619 12.05 94 27 51.33-5.103 13.793 15.437 37.7 18.7 120.631 58.085 262.782 109.725 375.3 199.3 33.372 35.05 85.582 61.528 84.2 104-37.5-44.26-14.583 40.357-8.2 22 24.628-24.564-23.42 49.873 15 22.1-28.204 37.205 22.08 34.138 7-2.1 29.382 1.25-7.812 71.506 20.4 44.5 39.543 8.046 45.49 84.002 86.6 80-62.461-41.247 83.153-21.436 23-64.5-57.488-35.024 31.07-8.424-9-28 57.889 50.362-4.293-22.976-22-41-32.694-27.592-86.7-69.648-80.4-110.3 22.142-8.984 49.774 22.24 44.4 18.3 45.17 20.221 39.603 109.585 96 80-17.406-41.309-88.725-79.396-116-128.5-32.007-6.755 14.883-30.736 16-40.1 10.125 20.725 60.717 54.938 83 91.6 19.645 49.576 49.08-4.99 7-26-20.853-29.13-110.384-88.922-70-127 52.688 42.091 108.502 79.524 124 152.5 40.977 31.532 25.405 85.853 25 116.5-12.601-16.867 5.925 39.815 13.8 56.3-35.178-21.544-.97 11.701-14.8 35.5 30.964 39.223 14.97 74.432 12 44.1 12.919 38.72-43.424-.71-66 13.1-64.821-41.769-3.04 42.982-8 42-11.879-7.66-92.553-30.246-90-63 36.282-22.6-46.102-42.004-61.8-64-42.03-32.073-110.378 12.142-69.2-32-36.153-10.823-76.138-48.8-103.2-56-17.464-20.577-43.752-36.147-21.5-6.8-32.246 16.594 6.687 1.592-34.3-18.2-78.023-29.672-133.807-77.632-214-102-109.997-36.968-266.625-38.005-371.8-125-44.575-21.8-82.762-61.579-86.8-112.6 21.937 20.056 49.391 53.279 70.6 60.6-4.235 12.012 31.552 62.788 35.6 39.2 67.807 9.397-14.053 18.202 70 22-7.927 30.78 83.524 24.606 60.7 22 40.987-8.081 55.61-14.202 31.7 13.8 7.957 10.964 58.596.586 54 22 27.636-.315 83.125-7.095 64.4 21 34.21 9.031 48.185-21.004 67.6-1-5.156 17.777 57.87 20.63 32 18 13.975 33.46 45.29 4.55 68.8 31.4 2.618 26.193 47.09 2.883 50.8 34.8 37.255-6.67 52.177 38.246 97.1 30.5 22.705 20.095 85.948 76.023 57.1 44.3 27.817 22.992 89.212 37.053 45.2-2 22.895-26.445-76.053-91.375-51-71-74.714-49.08-160.21-84.405-237-119-28.968-12.969-56.046-22.412-92-38-114.694-31.688-231.147-64.105-342-108-78.344-42.69-142.132-110.892-187.6-184.6 33.331 2.055 50.14 49.924 84.6 59.4 43.144 47.123 45.632 35.09 49 57.2 47.065 50.146 95.38-107.46 53.5 34 18.61 10.12 105.073 6.296 49.5 26 32.583 21.072 64.602 15.817 88 39 18.206 9.05 94.67-5.486 60 19 48.58 20.24 97.34 4.142 129.8 37.2 42.662-13.618 48.193 32.475 91.2 28.8 28.528 23.001 70.982 28.42 105 53 70.013 32.209 152.128 83.196 203 111 50.71 26.48-15.798-58.168-31.4-69.7-93.577-59.75-186.057-112.359-287.7-154.3-24.066-12.556-85.073-27.615-126.9-48-209.82-76.974-446.437-170.007-548-388-2.702-4.54 6.167-9.026 9-7zm1640 0c65.385 64.963 89.95 170.672 130 249 5.309 19.203 24.12 103.373-8 44.4-37.41-15.258 24.435 56.038 30 80 15.099 28.36 38.083 87.381 24.5 101.2-10.364-19.152-30.218 66.162-6.5 50.6-15.347 50.344-26.889 89.157-42 126.8-43.975 12.524-109.8 39.812-165 55-15.827 24.47-79.467 14.993-52 0 38.699 10.704 53.627-35.619 13-47-16.094-9.608 8.523-51.452-13-63 20.868 16.353 26.479 80.855 47 33.8-8.755-35.239-66.357-60.737-82-70.4 28.298 31.571 16.614-34.006-9-15.4-11.655-22.43 46.324 7.514 36.4-30 4.297-.87-13.406 43.844-24.6 16 23.65-8.063 31.096-67.53 59.2-6-46.223-21.62 6.078-52.783-37-72-21.09 6.897-5.682-66.674 8-66-11.17 9.417 19.997 21.076 4 48-8.874-22.082 18.89-42 4-8 18.053 31.626 14.92 37.552 9 33 28.936-4.73 63.433 79.327 20.5 35-39.688-31.987 7.204 18.11 10.5 36 17.855 31.215 28.087 88.514 70.6 92 8.62-32.361-32.763-55.584-27.6-89-36.06-40.022 17.675-33.538 21 5-4.296 39.776 45.588 76.867 35 18.4-31.976-68.3 39.053-49.223 36-.4-4.525-47.523-41.29-86.324-44.4-130 46.868 19.863 24.071 100.763 64.4 106.1 7.95-56.455-27.584-108.175-53.4-150.1 20.461 2.103 72.122 46.672 51.8 2-16.688-23.826-45.168-82.598-68.4-66.2-26.638 46.87 21.786-35.529-17.5-40.3-31.984-52.715-40.92 20.223-23.5 16.5-47.8-67.569-112.816-124.386-171-183 46.937-17.012 89.696 58.796 120 89.1 17.518 35.989 49.37 52.212 22 7.4-20.526-36.226-73.975-77.6-68-113.5 57.88 53.655 82.416 142.27 166 156 18.253 49.407 66.476 19.183 25.3-3.8-23.01-16.79-43.683-50.804-41.3-19.2-22.822-14.12-66.05-102.248-56-63-10.345-43.155-62.278-83.2-50.5-126.5 53.86 13.539 57.333 97.59 97.1 127.1-11.426-54.14-49.252-105.651-54.6-160.2 1.174.009 7.997-8.178 10-5.4zm-854 7c-11.043 10.87.166-12.74 0 0zm6.4 7.2c15.1 12.24-20.135 3.628 0 0zm302.2 2.2c-2.367 18.262-21.45-5.377 0 0zm-544.6 8.2c11.46 15.94-12.135.722 0 0zm-52 4.4c-2.414 6.951-2.414-6.951 0 0zm278-1c-2.555 3.588-2.555-3.587 0 0zm-206 6c-2.555 3.588-2.555-3.587 0 0zm438 13c-5.11 7.175-5.11-7.175 0 0zm-216 11c-2.555 3.588-2.555-3.587 0 0zm-430 1.6c-8.237 8.318-6.761-.635 0 0zm216 .4c-2.555 3.588-2.555-3.587 0 0zm-8 1.5c-9.041 17.7-8.313-4.333 0 0zm590.4 14.7c29.53-3.866 97.654 10.33 49.6 25.8 42.175.646 28.079 12.428 12 24 19-1.191 51.319-18.337 54.5-3 36.659 51.646-96.869 2.9 19.7 40 68.787-15.301 71.195 55.93 29.8 35 36.97-19.136-6.934 70.186-6.4 15 8.37-10.631-40.58-17.86-58.6-36-37.007-30.79-92.087-58.452-115.6-98.6 4.995-.598 9.833-3.426 15-2.2zM2836 887c14.732 15.073-29.16 11.643 0 0zm936.7.5c4.971 6.783-8.144-4.729 0 0zM2824 889c-2.555 3.588-2.555-3.587 0 0zm1120 22c-2.555 3.588-2.555-3.587 0 0zm-1270 4c-2.555 3.588-2.555-3.587 0 0zm4 0c-2.555 3.588-2.555-3.587 0 0zm-8 2c-2.555 3.588-2.555-3.587 0 0zm704.6 20.4c16.973 39.421-89.755 38.324-34.6 8.6 11.903 1.306 19.981 11.21 34.6-8.6zM3622 947c55.774-5.23 100.514 45.151 138 68 4.128 29.036 73.391 74.756 68 115-61.081-64.8-124.776-124.249-205-166-8.795-4.042-23.252-22.415-1-17zm-850.5 21.5c17.929 36.485-18.953-9.901 0 0zm624.8-1.3c58.39 4.706-19.793 38.797-36.3 14.8 6.274-5.808 21.64-11.689 36.3-14.8zm49.7 9.7c10.383 32.974-14.434 59.849-4 49.3 23.034-6.562 48.052 16.852 64.6-2.8-.32 54.957 26.596 61.872 21.4 22.6 30.135-6.571 35.393 24.123 2 17-26.372-1.683-19.805 46.208-20 5-32.054-1.314-49.592 24.81-64-10 56.414 0-80.49-31.213-28-15-27.247-17.807-36.593-38.984-24-32 15.843-34.362 42.179 5.07 48-36l2-1zm120 15.1c9 21.375 68.58 41.088 37 8 29.9-23.378 72.071 31.657 93.8 45.6 48.064 27.99 66.346 83.689 102.2 122.4 17.125 37.58-54.01 17.08-33 11.2-31.917-59.326-108.705-98.649-157-121.2-4.56-10.283-38.538-67.999-47-49.3 1.571-3.837.27-32.656 4-16.7zm-767 2c28.37 28.255-5.642 11.725 0 0zm947 1c-5.243 3.685-5.243-3.685 0 0zm110 6c-2.555 3.588-2.555-3.587 0 0zm-348 12.5c-7.304 18.556-7.425-2.437 0 0zm-116 10.5c27.81 34.339-22.766-40.574-3.6 6.7-7.452 6.587.427-15.038 3.6-6.7zm-27 4c39.515 12.542-5.86 8.077 0 0zm335 9c-2.555 3.588-2.555-3.587 0 0zm248 16c-2.555 3.588-2.555-3.587 0 0zm64 12c-5.243 3.685-5.243-3.685 0 0zm-438.5 3.5c22.382 13.342 78.662 51.075 65.5 25.5 33.936 13.854 61.854 51.518 49 40.2 26.9 27.42 87.47 50.034 28.4 72.5 18.627-3.483-72.752-75.149-46.4-59.7-34.084-21.262-96.542-31.13-104-73 2.642-1.728 2.557-9.33 7.5-5.5zM3440 1076c7.278 15.37-10.942-5.1 0 0zm110.4 5.2c11.036 1.979-10.334 2.644 0 0zm-110.4 4.3c27.26 20.41-50.03 18.89 0 0zm28 .5c-2.414 6.951-2.414-6.951 0 0zm186 3c-2.327 10.4-2.327-10.4 0 0zm-188 3.5c22.414 4.287-21.71-16.638 4.4 9.5-10.132-3.1-14.402-14.925-4.4-9.5zm534 2.5c-5.243 3.685-5.243-3.685 0 0zm-121.4 2.4c3.457 25.43-19.038-4.313 0 0zm-1048 2c7.341 21.448-12.568-1.335 0 0zm665.4 5.6c19.395-2.403-11.02 24.557 0 0zm348 5c-4.052 10.055-4.439-9.897 0 0zm-303.4 17.4c28.835 17.507-19.117 7.486 0 0zm301.4-.8c-4.4 10.233-5.746-3.83 0 0zm64 5.4c-2.414 6.951-2.414-6.951 0 0zm-522 7.6c-17.583 40.254 59.592 53.452 47 22.4 51.5 45.159 12.988-5.917 46 30 14.635 37.715 56.923 9.24 49 4-10.474 14.975-54.679 32.494-12 30-19.007 19.236 47.225 19.826 31.5 14 26.738-68.334 16.336 1.957 18.5-2.5 36.895 25.175 47.965-13.673 22-41.5 14.68 23.024 39.142 36.85 34 18 9.594 18.133 34.364-21.945-10.8-18.2-25.582-20.438-63.837-4.215-51.2-38.8-10.936-15.413 39.758 7.91 51.6-7 43.435 30.37 99.217 39.104 106 90 8.106-48.49-49.519-34.127-13.6 2-30.503-28.595-44.488-4.988-17.4 20 24.335-10.4-57.017-33.966-37.4 8-101.712-60.535-74.786-.368-48.7.4-4.483 14.055-45.102 21.065-39.5 9.6 10.232 41.823 63.63 85.165 70.5 144 30.134 34.982 22.46 97.547 32.5 120 3.06 111.216 44.69 216.798 91 314-15.007 41.728-40.61 1.773-55-19-44.281-67.764-65.532-145.767-96-220-24.748-68.866-20.114-40.418-32-88-36.77-76.204-85.197-167.36-156-213.8-11.666-22.63-90.564-99.856-41-147.2 3.592-12.61-14.402-34.66 11-30.4zm162 13.4c-5.243 3.685-5.243-3.685 0 0zm-773.4 4.4c10.125 13.622-7.71 7.396 0 0zm751.4 4.2c-7.616 20.772-1.88-12.507 0 0zm14 5.4c-1.907 10.214-5.507-7.327 0 0zm-39 1c49.078 10.503-32.318 8.108 0 0zm385.6 29.4c22.567 36.648-27.017 3.828 0 0zm-90.6 10.2c22.932 24.612-25.227-2.606 0 0zm43 2.4c30.243 2.14 34.96 79.484 43.6 50.6-17.308 5.231 47.596 70.296 2.4 45.4-38.225.166-105.6-99.058-46-96zm55 8c-2.414 6.951-2.414-6.951 0 0zm-1468 35c10.882 41.341-33.476-9.143 0 0zm1302 11.5c-18.038 29.733-8.985-7.188 0 0zm16 3.5c7.566 23.346-23.443-8.154 0 0zm-938 1c-2.555 3.588-2.555-3.587 0 0zm820.6 4.4c22.873 22.088.374 11.534 0 0zm136 6c6.616 11.843-8.405-2.502 0 0zM2846 1283c-2.555 3.588-2.555-3.587 0 0zm728 2c-2.555 3.588-2.555-3.587 0 0zm-728 2c-2.555 3.588-2.555-3.587 0 0zm8 3c-4.934 4.763-1.89-7.03 0 0zm730.6 3.4c-7.475 8.672-15.206-6.146 0 0zm85.4.1c-12.457 19.888-1.72-6.423 0 0zm-24 6.5c-2.123 15.462-7.092-14.762 0 0zm-1174 3c-2.555 3.588-2.555-3.587 0 0zm1174.6 6.4c1.95 6.798-6.798-1.95 0 0zm34.9 1.1c15.421 31.779 4.796 73.043 22.5 30.5-13.173 23.539-47.061-26.852-19.5 13-14.593 27.135-43.05-9.154-42.5-10 12.843-8.028 79.619-35.047 61.2-6.2-28.713-9.823-46.7-14.504-21.7-27.3zm-349.5 4.1c.378 5.57-7.058-1.576 0 0zm296 2.4c25.95 13.435-28.675 11.172 0 0zm-1148 16c55.568 20.727 98.913 85.048 154 82 38.52-16.602 48.318 6.609 36 14 17.993-7.414 84.373-20.666 67.8 6.2 40.51-14.164 77.723 18.564 126 28.8 77.843 16.44 151.33 71.788 219.4 87.8 5.044 33.024 75.986 42.906 84.8 56.2 14.767 11.594 36.508 20.771 39 16 6.721 7.055-39.912-13.167-13 17-33.247 3.083-95.919-64.506-125-51-20.153-44.071-101.62-63.9-145-90-112.147-56.668-237.185-42.879-363.8-68-33.333-21.456-88.322-69.152-80.2-99zm550 19c-2.414 6.951-2.414-6.951 0 0zm612 14c-5.11 7.175-5.11-7.175 0 0zm16 5c-2.555 3.588-2.555-3.587 0 0zm28 6.6c-5.77 29.27-20.26-.52 0 0zm30 4.4c5.723 11.167-8.045-5.154 0 0zm18 0c-2.414 6.951-2.414-6.951 0 0zm-6 4c-12.982 8.19-1.533-5.873 0 0zm-446 40c-3.502 13.724-6.406-4.42 0 0zm2 21c-5.243 3.685-5.243-3.685 0 0zm-4 4c-2.555 3.588-2.555-3.587 0 0zm2.6 8.4c1.95 6.798-6.798-1.95 0 0zM2550 1461c23.88 12.856 49.879 28.035 69 37 23.802 27.37 71.149 19.428 101 37 34.426-23.483 38.398 26.492 75 5 26.934 12.463 61.17 14.512 89.3 13.3 16.512 21.009 55.517 6.744 76.5 28.7 34.398 10.042 101.378 43.627 111.2 42 3.184-15.821 27.88 16.332 27 4 25.062 21.924 60.319-31.718 37 3 25.787 3.52 36.995 76.14 21 51-9.543-19.184 4.55-2.708 12-20-28.843 67.02 63.508-128.49-3 36.2-40.047 2.46-56.918-34.83-98-49.2-52.17-36.365-126.956-60.56-178-68.6-82.15-21.978-185.695-20.2-271.6-38.4-22.127-21.935-81.668-52.983-68.4-81zm-12 7c-4.934 4.763-1.89-7.03 0 0zm736 6c-9.865 7.879-7.593-6.263 0 0zm10 2c17.105 39.03 81.268 61.824 80 116.1-44.837-14.721-96.848-60.027-79-104.1.525-3.825-15.235-19.11-1-12zm492 25c-2.555 3.588-2.555-3.587 0 0zm254 6c80.6-1.931 157.566 35.052 222 79-47.524-10.781-88.617-38.555-130-27-50.175 16.875-114.643-3.97-154 35 36.826-3.176-30.052 22.33 4 12-45.426-.1-95.513-7.41-142 10-1.093-29.372-76.848 4.088-66.4-27.3 27.245 21.127 19.1-31.703 56-26.7 63.807-37.457 138.664-53.72 210.4-55zm144 4c-2.555 3.588-2.555-3.587 0 0zm-1127.4 4.4c10.82 36.267-25.298.966 0 0zm-332.3 5.8c19.14 12.948-15.697 1.103 0 0zm1039.3 1.3c5.2 13.658-14.586-5.028 0 0zm-685.6 0c-10.135 14.417-4.972-.834 0 0zm-10 2.5c-2.555 3.588-2.555-3.587 0 0zm34.6 22.5c2.034 10.032-11.538-3.896 0 0zm13.4 3.5c-4.815 13.012-6.342-3.505 0 0zm-6 8c12.755 19.773-7.619-1.508 0 0zm32 2c-2.555 3.588-2.555-3.587 0 0zm-2 4c-5.243 3.685-5.243-3.685 0 0zm-2384 2c-2.555 3.588-2.555-3.587 0 0zm3030 3c7.067 17.083-6.628-5.714 0 0zm-1190 7c5.925 19.103-6.049-7.293 0 0zm1516 1.9c-7.31 18.103-25.826-8.329 0 0zM798 1582c-2.414 6.951-2.414-6.951 0 0zm2258.6-.6c1.95 6.798-6.798-1.95 0 0zM2616 1584c7.886 43.983 60.482 26.432 77 34 23.825 6.503 110.31 13.112 81 15 27.734-10.072 44.899 25.437 75 1 25.577-1.357 16.899 20.357 52.7 7.2 20.817 3.327 57.496 23.018 68.3 21.8 50.883 22.402 42.69-13.238 55 25 36.157-15.95 58.034 26.944 95 31.6 19.738 25.053-13.094 60.267-18 10.8-71.938-26.081-136.628-50.125-206-71.4-43.309.52-80.531-9.755-110-6.1-56.581 11.191-143.912 10.258-180-52.9 1.497-3.435 2.684-24.495 10-16zm1133.5.5c14.065 24.394-24.32-1.6 0 0zM1026 1598c-2.774 5.228-9.203-7.032 0 0zm-22 7c-2.555 3.588-2.555-3.587 0 0zm16 2c-4.71 5.381-13.364-.225 0 0zm2804.6 10.4c-6.529 27.818-68.908 20.783-18.9 3.8 5.962-2.004 12.582-4.654 18.9-3.8zm567.8 1.8c46.477 18.948-56.866 2.85 0 0zm-442.4 2.4c-32.497 31.087-65.975 51.873-114 61.4-45.604 10.216 26.027-30.424 46-26 19.933-15.27 42.658-34.22 68-35.4zm-411 2.4c47.175 36.91-14.553 10.208 0 0zm325.6 1.4c-5.76 29.252-64.234 17.919-17 6.6 5.952-.81 10.676-8.35 17-6.6zM3568 1627c27.706 19.788-20.744 5.976 0 0zm-346 11c-5.11 7.175-5.11-7.175 0 0zm13 4c49.379 2.308 98.604 59.36 141 93.5-23.013 19.757-59.268-39.732-105-43.5-21.321-12.674-68.676-17.3-36-50zm791 7.6c-4.524 14.515-5.737-7.435 0 0zm-963.4 5.8c6.616 11.843-8.405-2.502 0 0zm-236 2.1c3.898 6.75-7.8-.001 0 0zm363.4-1c-8.666 13.074-14.05 1.393 0 0zm616 10c-15.417 23.078-16.155-5.976 0 0zm144-.9c-4.908 8.07-34.997 3.879 0 0zm456.6-.2c-11.948 17.75-61.872 59.932-96.7 62.6-29.251-31.452 56.094-46.757 84.1-60 17.3 1.36 3.93-.134 12.6-2.6zm-522.2 9.8c29.673 5.565-57.102 40.021-12.2 4.8 3.43-2.41 7.781-5.583 12.2-4.8zm97.6 7.8c-2.555 3.588-2.555-3.587 0 0zm-4 4c-2.555 3.588-2.555-3.587 0 0zm-901.4 6.4c1.95 6.798-6.798-1.95 0 0zm1013.4-.4c19.55 14.58-21.45 6.898 0 0zm-992 3c14.506 13.787-13.737.885 0 0zm22-.2c15.19 24.857-7.429 10.475 0 0zm98.7-.2c13.547 18.673 61.253 54.29 67.4 36.4 13.889 18.36 102.186 2.738 89.9 52-24.61-3.829-79.533-56.217-62-14.3-21.148 25.013 48.335 27.382 63 48.3-3.251-4.202 48.765 15.615 22.8-10 31.503 13-14.615 32.586 13.3 42-36.73-8.985-75.281-32.856-107.1-43.4 14.596 14.904 38.993 71.952 19 63.4-8.777 35.578-71.786-58.325-78 2-32.439 2.024-29.773 14.094-23 4-28.444-8.29-99.107-38.326-29-32 21.986-9.948 87.26 17.367 38-14-40.65-16.321-105.956-25.35-131-45 30.582-8.85 65.79-51.526 49.4-49-4.066 40.76 26.468-54.86 11.6 4-31.608 45.21 41.398 32.851 64.7 52 9.83-19.893 24.413-43.915 30.3-32-30.75 11.329-48.614-16.836-80-42.6 15.914-5.517 26.01-9.471 40.7-21.8zm-1966.1 5.9c2.034 10.032-11.537-3.896 0 0zm2574-.1c-11.412 35.45-53.597 8.681-9.6.6l3-1zM3194 1704c-5.11 7.175-5.11-7.175 0 0zm-30 3c-2.555 3.588-2.555-3.587 0 0zm736.6.4c-17.38 27.756-43.615-.119 0 0zm-762.6 4.2c-2.216 9.573-10.31-3.637 0 0zm-474 13.4c21.873 37.02 73.366-2.208 74 32 21.723-11.596 39.512-19.547 45.7 4.2 26.214-1.906 63.23-37.62 64.3-4.2 26.949-1.442 61.708-34.077 71.7-10.3 30.121-10.052 50.026-22.861 62.3 2.3 29.455-9.185 69.283 17.068 84.2 30.2-49.211-19.087-115.983-22.853-161.2-23.2-16.794 5.34-33.73-.96-60 18-51.585 6.241-110.087 36.892-154.8-8-15.004-2.682-69.997-68.988-26.2-41zm23.5-8.5c-.385 17.495-14.672-4.838 0 0zm460.5.5c-2.555 3.588-2.555-3.587 0 0zm-1402 3c-5.11 7.175-5.11-7.175 0 0zm2188 0c-24.498 10.591-20.283-4.21 0 0zm-84 1c3.139 25.634 37.988-13.404-20 1 6.467-1.813 13.382-2.92 20-1zm-706 5c-15.817 7.422-15.817-7.422 0 0zm750 4.6c-24.743 25.093-61.93 6.161 0 0zm318 11.4c-25.431 63.173 64.073 45.79 38.5 48.5 11.08-40.72 12.312 68.518-24.5 32.5-50.845 23.302-89.158 69.209-118 115 31.825 29.04-41.696 77.356-33 34-35.799 24.228-100.831 116.35-77.4 88-27.645-14.634-65.107 2.307-39.2-44.7-28.911 20.23-33.022-20.042-17.8-39.9-25.068 1.79-32.293-68.47-46.6-19.9-26.574-20.079-34.607-88.747-28.7-61.8-3.183-26.889 31.304-79.903 40.7-54.7 62.158-17.569 117.91 26.564 178.6 3.6 11.093-64.654 18.026.576 15.4-1.6 37.29 18.29 54.402-60.442 59-27 9.748 26.04-34.142-67.667 18.4-62.6 25.799 15.015 28.465-41.527 34.6-9.4zm-3918 4c7.682 23.92-12.113-6.373 0 0zm2796 0c9.525 26.022-3.544 48.169-13.7 68.7-5.418-19.316 18.561-52.594 13.7-68.7zm-2808.5 6.5c9.442 13.694-20.618-6.647 0 0zM3498 1751c21.867 24.41 93.964 15.578 82 41 14.884 18.763-12.165 43.867-26 16-100.53 64.734-11.834-3.976-8-9.5-4.81-16.163-79.52-39.478-48-47.5zm-310 6.9c-1.748 17.372-12.39-7.637 0 0zm220-.9c36.843 7.94 63.051 50.612 90 64.7-46.974 11.131-57.5-50.077-102-64.2l6-1.5zm724 16c22.217 20.56-73.727 30.188-16 7 3.939-3.045 11.963-8.388 16-7zm-3866 23c48.242 29.261 6.638 16.977 0 0zm2844 10c-5.11 7.175-5.11-7.175 0 0zm-156 12c5.643 34.297-23.788-12.222 0 0zm140.6 7.4c.827 20.22-9.88 6.973 0 0zm931.4 1.6c40.964-4.884-8.157 19.032 0 0zm-2772 6c-5.243 3.685-5.243-3.685 0 0zm1716 4c-2.327 10.4-2.327-10.4 0 0zm1280 .8c-32.688 30.462-16.062 62.534-56 91.2 9.278-17.685 1.646-29.228-4-36-21.005 46.164 32.717-41.778-18 1 26.94-16.269 45.786-55.758 78-56.2zm-650 7.2c40.35 26.686 86.81 67.76 132 73 30.665-34.309 42.38 30.314 54.5 30 35.579 38.876 34.217 55.222 27.5 63 22.924 6.854 46.914 60.518 24 45.4 36.154 10.959.013 49.845 4.2 49.6-41.76 4.032-88.342 18.368-104.2 60 54.628 9.056 108.314-72.663 146-52.5-49.885 23.591-34.798 83.497-4 56.5-12.478 13.89-63.555-32.363-62 14-49.851-13.584-102.122 15.634-152 21-36.288 19.058-79.447 26.549-120.4 39.7 46.784-43.732-24.01-14.623-51.6-3.7-16.725 8.774-84.254 13.65-64 32 25.448-5.78 75.26-14.521 86 1-57.958 10.32-108.668 6.075-160 24.6 28.665 18.348-40.655 42.114-2 36.4-37.2-3.983-91.561 20.874-117.6-.5 35.925-9.636 115.717 5.132 64.9-32.9-17.536-39.878-123.216 11.431-107.3-40.6 30.092 1.13 104.036 14.37 108-21-50.344 6.063-41.04-39.895-3.4-48.6-39.291-6.324-121.537-52.796-96.6-26.4 15.55-39.651 104.049 13.186 91.7-28.3-23.272-6.08-91.41 2.797-55.1-21.3-47.316-1.076-37.07-69.985 6.6-73.6-3.944-17.653 25.89-73.574-1.2-65.8 8.207-2.423 14.419-35.127 5-28-21.674-4.559-93.124-18.967-35.4-23.3 21.492-7.415 90.678 26.155 72.5 1.3-29.381-7.161-56.962 1.034-76.1-22 67.527 8.408 154.31.506 195.3 64.3-2.988 10.646 48.242 24.445 43.7 17.7-13.91-25.259 82.987 4.681 42.6-10 16.526 17.978 65.262 26.088 44.4-11.2 27.952-12.293 78.698 58.403 68-.3 52.991 1.212 45.958-49.62 25.8-44.5 6.691 20.065 82.713 53.633 54.2 18-23.057-38.172-64.748-61.372-88.7-92.5zm-515.4 4.4c5.917 11.356-10.158-2.718 0 0zm-20.6 1.6c23.762-2.422-7.338 8.061 0 0zm6 17c35.251 39.239-19.586-1.359 0 0zm310.3-.8c42.64-4.695 52.213 31.26 9.7 11.8-15.69.248-49.42-14.83-9.7-11.8zM2370 1869c-2.555 3.588-2.555-3.588 0 0zm786 4c43.615-13.157 79.833 40.864 20 18-6.13-6.039-42.93-10.095-20-18zm-2803.4 2.4c4.565 18.416-13.849-2.618 0 0zm159.9 8.1c13.817 24.804-24.804-13.817 0 0zm2530 0c4.638 12.532-21.977 22.885 13.7 24.5-15.644 1.63-12.906-27.409-13.7-24.5zm-66.5-.5c-2.555 3.588-2.555-3.588 0 0zm503 1c27.469 26.535-33.448-2.752 0 0zm-2837 6c29.914 45.44-14.101 2.894 0 0zm-310 1c31.417 8.992-11.955 6.14-6.3 10 6.973-3.583-4.478-12.083 6.3-10zm2754 2c25.749 4.96-28.08 16.087 0 0zm262 0c27.055 9.42 74.827 28.579 76 49.4-12.418-8.933-76.925-39.754-76-49.4zm-2912 6c-2.555 3.588-2.555-3.588 0 0zm2582 .5c26.29 23.667-12.355 1.352 0 0zM626 1904c-13.539 7.96-3.183-7.984 0 0zm-170 1c-2.555 3.588-2.555-3.588 0 0zm176 0c-2.555 3.588-2.555-3.588 0 0zm2844.6.4c3.072 13.495-11.19-1.096 0 0zm-812.3 5.8c51.694 7.028-69.832 3.455 0 0zm369.7 3.6c-2.855 27.032-15.153-.176 0 0zm62-1.8c-2.555 3.588-2.555-3.588 0 0zm-2738 2c182.124 57.42-50.626-1.441 0 0zm2236.6 2.4c36.303 17.792-135.297 7.839 0 0zm27.4.6c-20.452 10.937-31.295-9.003 0 0zm-1848 1c-2.555 3.588-2.555-3.588 0 0zm2290 0c-2.555 3.588-2.555-3.588 0 0zm-2341.4 2.4c14.844 26.952-20.403-1.373 0 0zm95.4 3.6c-2.555 3.588-2.555-3.588 0 0zm10 1c6.315 11.076-17.915-9.018 0 0zm-182 2c-13.486 27.278-10.027-8.114 0 0zm-246 5c-2.555 3.588-2.555-3.588 0 0zm1014 2c-5.305 6.659-10.804-2.465 0 0zm-50 2c-2.555 3.588-2.555-3.588 0 0zm1665.5 3.5c6.264 23.017-23.72-2.117 0 0zM4152 1951c-16.793 77.282-71.999 67.142-1-1zm-1875.6 4.2c23.66-6.03 122.226 11.086 49.6 15.8-9.216.094-74.043-11.93-49.6-15.8zm141.6 9.8c30.063-4.387-30.2 12.4 35.9 15-8.347-3.063-47.329-2.89-35.9-15zm-628 6c-2.555 3.588-2.555-3.588 0 0zm726.4 4.2c34.476-2.292 99.976 10.17 109.6 10 41.37 32.057 114.692-23.876 138 5.8-18.15 19.812-97.497 14.096-38 28 21.152-4.287 140.475-7.933 86 14-31.103 1.509-95.403-21.758-87.9 15-49.978 3.03 37.384 26.587 56.5 20 34.322-36.13 70.427 26.214 52.5 6 45.946 8.306-48.643 11.647 4.9 23 24.072 18.565-45.492 3.275-63.7 4.2-24.377-.489-51.714 40.377-72.3 27.8 61.807 23.927-29.018 6.039-50-7-32.385-9.57-96.122-26.1-104-35 27.6 11.06-37.323-19.82 13.4-15-5.998-22.994-87.396-3.34-57.7-25.3 31.658 3.082 92.393 10.854 104.7-4.7-81.53-43.996-181.69-5.96-264.4-44 51.718-.218 105.072 14.986 159.7 10.7 46.952-9.765-16.613-31.619 12.7-33.5zM2282 1977c50.697 9.398-19.459 47.211-44 24-69.84-.967 29.624-39.252 44-24zm-1372 4c-5.243 3.685-5.243-3.685 0 0zm3252.6 4.4c6.001 26.592-51.713 57.598-20.6 16.8 6.665-5.85 8.984-18.892 20.6-16.8zm-1356.3 11.8c56.665-11.183-12.152-28.784-5.3.8l3-1zm1287.3 3.3c-9.139 44.564-48.273 5.9 0 0zM998 2001c-5.243 3.685-5.243-3.685 0 0zm3128 6c-14.9 48.434-46.734 17.655 0 0zm-1690 40c-2.555 3.588-2.555-3.588 0 0zm1680.6.4c.38 23.915-30.944 14.592 0 0zM4060 2061c.371 39.484-40.686 40.826-12 7 2.348-1.806 9.11-8.876 12-7zm-1170 26c89.403 15.476-72.995 6.849 0 0zm1206.6 12.5c-6.074 24.507-22.708 2.427 0 0zm-1358 27.9c3.765 11.008-7.416-.37 0 0zm47.4 3.6c58.457 32.35 113.483-12.163 176 10-32.359 26.273-71.782 29.367-66 33-32.489-13.05-135.554-5.568-110-43zm1120.6 22.4c.165 13.688-12.008-6.665 0 0zM2978 2163c33.917 22.65-22.075 20.653 0 0zm-164 6c13.469 24.666-49.872-4.37 0 0zm228 6c-2.555 3.588-2.555-3.588 0 0zm-52 10c75.83 35.513-70.146 11.996 0 0zm-113.7 4.2c31.42.222 68.398 12.408 88.5 33.1-8.492 8.306-36.711-26.241-50.8 3.7 15.168-24.783-72.794-23.642-37.7-36.8zm905.7 1.8c27.26 9.31-72.113 35.159-22 7 6.469-3.452 15.842-8.024 22-7zm-1082 20c23.02 21.385-91.897-2.121-18.4 2.2 5.243.915 14.455-4.124 18.4-2.2zm1000.6 2.4c-6.407 26.956-89.473 26.477-38.8 6.6 12.926-2.81 24.367-12.627 38.8-6.6zm-662 8c14.66 25.077-35.23-5.542 0 0zm753.4 3.4c-9.374 26.537-97.354 48.216-43 15.2 12.02-7.487 29.948-20.8 43-15.2zm54 4.2c-10.164 18.559-71.824 52.188-66.2 37 18.269-12.246 51.797-37.98 66.2-37zm-116 0c-24.76 19.397-62.13 32.87-84 40.5 21.507-16.772 57.819-39.733 84-40.5zm-678 10c59.818 13.604 101.947 66.668 162 82-36.288 12.656-92.24 20.059-107-11-58.816-10.752-123.62-4.034-61 5-24.256 5.47-93.01-11.999-42-14 27.587 3.374 55.61-13.775 82-15-55.944-9.267-118.062-22.623-176-35 36.503 15.115 85.707-16.325 123.6 7 4.297-4.499 9.1-30.186 18.4-19zm-182 38c71.017-6.125 14.25 15.77-2 0l1-1zm894 4c-1.907 10.214-5.507-7.327 0 0zm-239.6 2.2c24.279 4.907 96.013-3.71 43.6 15.8-14.066 8.153-99.832 1.836-43.6-15.8zm108.2 4.3c-12.11 23.077-86.716 35.49-34.8 10.5 11.188-3.781 22.723-12 34.8-10.5zm207 1c4.237 27.27-80.07 45.229-30.3 13.2-4.256-4.49 22.122-16.002 30.3-13.2zm-79.6 11c-53.602 55.88-113.972 38.817-22 6.5 7.727-1.413 14.065-6.869 22-6.5zm140 20c-11.695 18.002-3.11-4.241 0 0zm-431.6 13.7c53.13 11.8-66.013 28.066-10.4 2.8 3.945.7 6.543-4.202 10.4-2.8zm-496.4 20.4c120.704 30.145-178.124 13.422-3.6 19.6-21.109-8.187-16.933-16.038 3.6-19.6zm615.6.9c-13.681 29.284-59.797 3.958 0 0zm-220 6c-12.712 23.838-73 8.226-19.6-.5 6.418-1.603 13.385-3.813 19.6.5zm98.4 9.1c-28.404 27.453-54.977-2.896 0 0zm-534 5.4c60.77 22.193 84.526-4.736-6 0l3-1zm296 0c82.495 41.849-48.311 20.931 0 0zm449.5 1.5c-27.388 17.124-50.836 53.408-91.5 48.9 34.093-11.955 53.09-48.777 91.5-48.9zm-85.5 1.1c-20.683 20.643-46.238 3.323 0 0zm-828 2.4c-2.414 6.951-2.414-6.951 0 0zm-31 4c35.093 3.257-21.093 16.48 0 0zm1097 .5c-16.583 16.89-7.726.544 0 0zm-786 10.5c48.498 6.726 29.816 22.357-12 8-11.721-2.125 10.914-8.627 12-8zm-112.5 3.5c10.725 16.44-16.44-10.725 0 0zm93.1 2.9c.134 8.992-15.64-8.35 0 0zm-68 16c-2.256 8.556-16.038-6.768 0 0zm-64.1 4.1c2.59 27.036 17.187-9.383 27.4 2.5 41.32-6.667 91.062 1.001 78.4 60.7-13.177 63.471 4.61 121.668-2.8 198.8-60.377-.019-95.836-77.602-156.5-73.5-7.253-55.487-40.533-107.876-39.6-162.6 30.842-1.856 88.786-9.614 93.1-25.9zm629.5 9.5c-3.015.453-16.567 5.313 0 0zm-127.4.4c-14.604 29.404-83.25-7.867 0 0zM2728 2469c-2.555 3.588-2.555-3.588 0 0zm32 19c47.803 115.273 98.886 230.91 130 352-13.36 49.72-16.41-62.742-29.2-17.6-15.657-113.51-97.466-216.282-108.8-330.4 1.068-2.972 4.611-9.275 8-4zm284 11c8.28 87.681 13.362 188.793-15 271-1.42-82.546 1.49-178.321 9-264 1.355-1.786 5.622-16.17 6-7zm-309.7 124.2c-8.214 18.17-4.34 10.602 0 0zM2884 2653c25.192 13.32 82.32 67.913 26 32-8.054-7.714-33.483-23.443-26-32zm14 48c42.329 29.49 101.966 56.808 96 116 22.768 50.998-17.135 101.197-16 153.5-18.904 4.903-24.824-55.823-34-80.5-27.068-55.07-45.513-115.745-56-177.7 3.158-1.047 6.948-13.993 10-11.3zm-240 64c35.017 6.92 24.626 20.85-4 6-11.605.156-2.482-8.792 4-6zm28 8c-2.555 3.588-2.555-3.588 0 0zm354.5 44.5c12.677 47.017-40.409 3.024 0 0zm9.8 35.7c32.008 25.2-2.495 81.406-2.3 117.8-24.542 48.945-10.642-36.276-6-54 1.424-15.136-17.87-56.742 8.3-63.8zm-141.7 32.2c27.562 63.344-68.96 25.38-15.6.6l3-1zM3080 2910c-2.414 6.951-2.414-6.951 0 0zm-56.5 6.5c6.697 22.911-16.92 107.56-11.5 40.5-3.853-12.195 3.9-33.178 11.5-40.5zm-98.9 24.9c-15.616 37.796-50.494-1.151 0 0zM2894 2967c55.258 12.124 16.66 82.51 45 121 14.02 22.32-26.45-13.479-6.6 22-14.37-40.47-16.949-83.466-26.4-122-26.797 22.61 4.409 92.809-22 98.4-.817-36.214-16.83-92.266 6-120.4zm58.6 42.4c9.476 34.372 44.732 78.775 36.4 106.6-21.585-26.024-43.332-76.466-36.4-106.6zm82 10c15.097 30.76 21.483-33.073-8.6 9.4 1.547-2.757 4.576-14.604 8.6-9.4zM2964 3182c23.012 26.601-33.171 103.397-9 40 5.15-9.677-8.358-41.325 9-40zm38.6 3.4c16.363 57.014 7.784-40.5-5-1.4zM2954 3260c-2.414 6.951-2.414-6.951 0 0z"/>
  <path d="M3024 285c2.555 3.588 2.555-3.588 0 0zM3092 350c5.11 7.175 5.11-7.175 0 0zM3104 365.6c6.016 13.6 8.788-7.38 0 0zM3136 400c8.965 15.411 7.987-6.663 0 0zM3158 399c-10.452 12.718 22.05 1.046 0 0zM3174 403c2.555 3.588 2.555-3.588 0 0zM3200 435.6c4.524 14.515 5.737-7.435 0 0zM3252 461.9c-5.81 13.96 17.935 5.605 0 0zM3261.3 467.5c-5.912 12.525 14.546 1.348 0 0zM3228 474c1.89 7.03 4.934-4.763 0 0zM3248 485c-42.965 12.352 51.532 9.156 0 0z"/>
  <path d="M3269 489.7c5.556 22 28.99-12.14 0 0zM3348 551c2.555 3.588 2.555-3.588 0 0zM2781 274c-14.987 10.687 11.344-3.457 0 0zM2794 286c5.11 7.175 5.11-7.175 0 0zM2830 334c10.486 7.37 10.486-7.37 0 0zM3117.3 527.5c-3.994 12.243 11.501.45 0 0zM2982 613c2.555 3.588 2.555-3.588 0 0zM2904 635.6c2.47 9.654 9.953-3.591 0 0zM3176 740c2.414 6.951 2.414-6.951 0 0zM2984 772c5.11 7.175 5.11-7.175 0 0zM3122 782c1.89 7.03 4.934-4.763 0 0zM3146 798c2.414 6.951 2.414-6.951 0 0zM3146 809c6.594 5.818 2.87-10.318 0 0zM3164 813c2.555 3.588 2.555-3.588 0 0z"/>
  <path d="M3168 814c-30.887 46.75-51.027 5.325 4 1z"/>
  <path d="M3152 819c4.062 10.696 8.57-2.377 0 0zM3174 845c4.959 10.538 4.959-10.538 0 0zM3198.3 872.5c-2.957 27.152 19.669-11.085 0 0zM3245.3 939.5c2.763 13.132 13.689-6.868 0 0zM3352 1167c2.555 3.588 2.555-3.588 0 0zM3198 575c-19.887 24.028 35.947 1.168 0 0zM3182 583c5.576 9.365 11.172-10.61 0 0zM3216 597c5.243 3.685 5.243-3.685 0 0zM3174 603c2.555 3.588 2.555-3.588 0 0zM3230 623c2.555 3.588 2.555-3.588 0 0zM3256 633c-49.775 36.657 75.603 22.14 1-1z"/>
  <path d="M3272 632.6c4.4 10.233 5.746-3.83 0 0zM3564 920c2.414 6.951 2.414-6.951 0 0zM2152 628.6c4.4 10.233 5.746-3.83 0 0zM2814 1104c-24.894 17.89 18.466 12.32 0 0zM2854 1148c2.414 6.951 2.414-6.951 0 0zM3018 1238c8.97 6.744 2.555-7.668 0 0zM3080 648.6c9.911 16.443 3.933-9.032 0 0zM3272 797c2.555 3.588 2.555-3.588 0 0zM2736 1166c4.934 4.763 1.89-7.03 0 0zM2516 1177c2.555 3.588 2.555-3.588 0 0zM2924 1253c6.075 12.19 8.375-1.71 0 0zM2757.2 1259.6c-.695 9.76 9.544-2.345 0 0zM2629.2 1321.6c-.695 9.76 9.544-2.345 0 0zM2758 1358.6c4.4 10.233 5.746-3.83 0 0zM2834 1366c1.89 7.03 4.934-4.763 0 0zM3384 1366c4.934 4.763 1.89-7.03 0 0zM2906 1404c2.28 13.93 2.28-13.93 0 0zM3136 1441c2.555 3.588 2.555-3.588 0 0zM3140 1445c2.555 3.588 2.555-3.588 0 0zM3224 1465c2.555 3.588 2.555-3.588 0 0zM3226 1469c4.861 17.118 11.72-2.486 0 0zM3213.3 1481.5c17.492 50.528 41.295 1.874 0 0zM3440 1484c8.244 25.111 29.118 9.039 0 0zM3092 1488c9.18 14.431 4.083-12.848 0 0zM3206 1517c30.898 10.169 55.583 40.884 23.5 46.5 18.084-20.933 4.814-59.383-23.5-46.5zM3439 1517.7c.611 23.74 26.626 1.925 0 0zM3204 1529c8.529 12.81-.093-10.588 0 0z"/>
  <path d="M3212 1531.6c4.524 14.515 5.737-7.435 0 0zM3210 1557c2.555 3.588 2.555-3.588 0 0zM3490 1565c2.555 3.588 2.555-3.588 0 0zM3214 1570c2.414 6.951 2.414-6.951 0 0zM3376 1570c2.414 6.951 2.414-6.951 0 0zM3494 1568.6c4.583 12.001 7.793-5.05 0 0zM3452 1642c2.414 6.951 2.414-6.951 0 0zM3384 1665.6c4.847 15.768 12.19-9.336 0 0zM3430 1672.8c4.845 11.255 9.418 4.945 0 0zM3408 1684.6c3.351 8.34 12.596-3.817 0 0zM3508 1703c5.243 3.685 5.243-3.685 0 0zM3842.3 1028.5c-10.294 24.015 19.733-4.648 0 0zM3845 1045.7c-.577 19.479 16.85-4.698 0 0zM4012 1326c7.089 14.365 1.054-13.046 0 0zM3800 1364c19.023 41.299 22.686-12.483 0 0zM3784 1366c12.219 26.122 8.219-4.76 0 0zM3817.3 1387.5c4.088 22.603 15.596-3.77 0 0zM3460 935c2.555 3.588 2.555-3.588 0 0zM3464 940.6c4.4 10.233 5.746-3.83 0 0zM3535.3 1013.5c-12.716 22.74 27.222-9.72 0 0zM3426.3 1022.5c-3.096 25.922 34.865-6.206 0 0zM3484 1037c-37.515 28.502 43.463 12.145 0 0zM3460 1063c2.555 3.588 2.555-3.588 0 0zM3364 1187.6c4.524 14.515 5.737-7.435 0 0zM3510 1216.6c4.4 10.233 5.746-3.83 0 0zM3639.3 1217.5c-3.78 22.154 17.693-7.042 0 0z"/>
  <path d="M3654 1217c-19.819 20.03 29.23 28.846 0 0zM3498 1232c5.11 7.175 5.11-7.175 0 0zM3586 1231c-20.565 25.513 46.365 10.299 0 0zM3546 1248c4.771 22.465 13.691-18.488 0 0zM3528 1252c20.559 42.664 23.955-13.971 0 0zM3560 1251c-12.993 23.235 22.447 4.405 0 0zM3598 1251c-48.613 1.972 34.223 28.677 0 0zM3532 1271c2.555 3.588 2.555-3.588 0 0zM3596 1355c2.555 3.588 2.555-3.588 0 0zM3654 1575.6c13.08 23.253 10.71 5.519 0 0zM3847.3 1215.5c-.67 25.15 15.375 4.537 0 0zM3856 1235c13.477 39.525 30.69-3.71 0 0zM3858 1293c2.555 3.588 2.555-3.588 0 0zM3074 1556c2.414 6.951 2.414-6.951 0 0zM3076 1580c2.414 6.951 2.414-6.951 0 0zM3088 1629.6c7.528 13.198 1.534-5.873 0 0zM3092 1637.6c6.016 13.6 8.788-7.38 0 0zM3104 1643c2.327 10.4 2.327-10.4 0 0zM3064 1643.6c3.737 13.578 5.766-3.978 0 0zM3132 1652.6c3.4 13.86 9.572-9.672 0 0z"/>
  <path d="M3130 1660.5c11.655 21.073 6.574-9.247 0 0zM3322 1542c2.414 6.951 2.414-6.951 0 0zM3350 1580c2.414 6.951 2.414-6.951 0 0zM2716 1524c2.414 6.951 2.414-6.951 0 0zM3109.3 1727.5c-11.41 33.155 31.11-2.946 0 0zM4366 1693c5.268 7.513 2.037-10.281 0 0zM4332 1719c2.555 3.588 2.555-3.588 0 0zM3217.3 1705.5c-4.92 15.03 15.362-4.238 0 0zM3136 1757c10.319 11.136 6.75-10.04 0 0z"/>
  <path d="M3134 1767c9.367 9.896 12.294-11.23 0 0zM3272 1768c2.414 6.951 2.414-6.951 0 0zM3279.3 1767.5c30.103 28.513 26.195-3.541 0 0zM3372 1773c2.555 3.588 2.555-3.588 0 0zM3249.3 1781.5c12.716 20.925 45.184 1.06 0 0zM3233.3 1795.5c-5.133 20.352 22.958-.93 0 0zM3280 1794.6c4.4 10.233 5.746-3.83 0 0zM3245 1819.7c4.915 22.38 29.35.053 0 0zM2913.2 1751.6c-3.391 6.725 8.104-.41 0 0zM2900 1757c2.555 3.588 2.555-3.588 0 0zM2758 1787c2.555 3.588 2.555-3.588 0 0zM3544 1805c2.555 3.588 2.555-3.588 0 0zM3315 1930c-34.329 7.507 35.545 20.752 50 36 75.34 29.298-34.406-45.42-50-36zM3744 1934c5.11 7.175 5.11-7.175 0 0zM3765.3 1947.5c-5.099 26.684 32.63-2.855 0 0zM3278 1967c-49.995 21.993 28.322 32.505 48 31 4.253-17.35-33.625-36.011-48-31zM3241 2072c-13.164 14.671 27.476-2.127 0 0zM3706 2145c-21.72 2.241-69.516 24.939-23 33 13.235-1.31 55.586-30.982 23-33zM3612 2147c-42.3 14.661-87.13 41.936-124.4 63.7 48.991 27.093 109.184-14.744 142.4-50.7-3.07-4.44-11.254-15.396-18-13zm-78 62c-2.555 3.588-2.555-3.588 0 0zM3878 2149c-42.543 31.496 31.11 7.386 0 0zM3238 2174c2.414 6.951 2.414-6.951 0 0zM3478 2204c7.806 7.306 7.806-7.306 0 0zM3615.2 2203.6c3.228 11.329 15.189-7.354 0 0zM3472 2207c2.555 3.588 2.555-3.588 0 0zM3596 2209c-8.077 11.696 23.785-4.317 0 0zM3368 2241c-26.585 6.319-88.52 23.937-42 44 39.422 4.358 129.872-12.574 50.5-45zM2602 2007c-37.296 19.591 40.607 9.68 0 0zM2816 2061c2.555 3.588 2.555-3.588 0 0zM2822 2065c2.555 3.588 2.555-3.588 0 0zM2624 2068c1.89 7.03 4.934-4.763 0 0zM2806 2069c7.053 12.466 17.3-9.774 0 0zM2704 2069c-47.375 6.042 29.183 42.113-20.4 21 25.344 22.309 72.596-18.383 20.4-21zm-6 12c-2.555 3.588-2.555-3.588 0 0zM2802 2001c2.555 3.588 2.555-3.588 0 0zM2885.3 2149.5c-2.46 15.313 14.348-4.044 0 0zM2908 2151c-10.788 10.642 17.066 2.132 0 0zM2919.2 2223.6c13.523 12.264 22.678-5.894 0 0zM3012 2257c6.75 10.04 10.319-11.136 0 0zM3151.2 2295.6c-.695 9.76 9.544-2.345 0 0zM3576 2293c2.555 3.588 2.555-3.588 0 0zM3631.3 2399.5c-2.114 8.272 11.93-6.945 0 0zM2992 2681c2.555 3.588 2.555-3.588 0 0zM2790 2579c7.909 3.711 7.909-3.711 0 0zM2974 2762c2.414 6.951 2.414-6.951 0 0zM2920 139c2.555 3.588 2.555-3.588 0 0zM3093.3 189.5c15.797 37.469 72.251 77.48 86.7 90.1 32.998 8.084 60.06 24.342 41 12.4 26.063 15.598-28.454-34.308-7-36-14.808-44.477-62.627-33.466-34-10.4 36.458-13.52-11.612-54.543-9-7.6 2.72-20.212-55.89-30.146-35.7-35.6-8.347-12.15-29.992-8.786-42-12.9zM3128 206c-1.76 6.968-5.184-4.652 0 0zM2873.1 227.6c1.577 4.349 5.683-5.401 0 0zM2672 229c2.555 3.588 2.555-3.588 0 0zM3222.3 230.5c-8.605 44.878 29.89-3.739 0 0zM3355.2 235.6c-.695 9.76 9.544-2.345 0 0zM2672 241c2.555 3.588 2.555-3.588 0 0zM2153 246c-27.4 15.045 2.568 64.259 25 24.4 22.729-9.93-4.789-27.34-25-24.4zm27 14c-2.429 7.563-9.313-6.568 0 0zM2670 245c5.243 3.685 5.243-3.685 0 0zM3338 248c-17.41 30.549 27.343 14.147 0 0zM2210 256.5c16.3 16.453 10.844-.472 0 0z"/>
  <path d="M3226.3 262.5c-14.482 41.586 40.344-3.016 0 0zM2189.3 265.5c-24.468 15.545 26.5 17.606 0 0zM3318 269c-18.944 37.054 32.675 13.922 0 0zM3356 267c-24.821 18.337 33.462 9.22 0 0zM3260 269.6c-27.194 32.303 31.81-1.722 0 0z"/>
  <path d="M3241.3 275.5c-33.335 47.432 27.367 11.458 0 0zM3269.3 277.5c.217 13.64 11.816-7.09 0 0zM3346.3 282.5c-9.394 27.212 22.716-5.99 0 0zM1786 291c2.555 3.588 2.555-3.588 0 0zM4658 292c2.414 6.951 2.414-6.951 0 0zM3360 295c-21.844 20.196 22.117 12.391 0 0zM2222 297c2.555 3.588 2.555-3.588 0 0zM2218 299c2.555 3.588 2.555-3.588 0 0zM1824 305c2.555 3.588 2.555-3.588 0 0zM3371.3 305.5c-5.245 15.916 17.645.7 0 0zM2134 307c2.555 3.588 2.555-3.588 0 0zM2138 307c2.555 3.588 2.555-3.588 0 0zM2142 307c2.555 3.588 2.555-3.588 0 0zM2172 308.6c5.938 9.453 3.857-1.65 0 0zM2134 311c5.305 6.659 10.804-2.465 0 0zM2222 312c2.414 6.951 2.414-6.951 0 0zM3382 311c-23.142 22.276 32.247 15.118 0 0zM2186 321c2.555 3.588 2.555-3.588 0 0zM2192 321.6c-28.129 12.257 14.5 2.98 0 0zM3384 333c2.555 3.588 2.555-3.588 0 0zM2146 341c2.555 3.588 2.555-3.588 0 0zM2150 341c2.555 3.588 2.555-3.588 0 0zM2268 340.6c4.583 12.001 7.793-5.05 0 0zM3279.2 353.6c-.695 9.76 9.544-2.345 0 0zM2136 356.6c15.844 11.492 18.868 4.65 0 0zM2120 360.6c5.938 9.453 3.857-1.65 0 0zM2222 365c5.243 3.685 5.243-3.685 0 0zM2138 373c2.555 3.588 2.555-3.588 0 0zM2426 375c2.555 3.588 2.555-3.588 0 0zM2430 376c12.149 11.934 6.997-3.053 0 0zM2076 377c2.555 3.588 2.555-3.588 0 0zM3444 379c2.555 3.588 2.555-3.588 0 0zM2224 381c2.555 3.588 2.555-3.588 0 0zM2412 385c2.555 3.588 2.555-3.588 0 0zM2068 395c2.555 3.588 2.555-3.588 0 0zM2260 409c12.878 10.11 17.966-1.773 0 0zM2542 408.6c5.938 9.453 3.857-1.65 0 0zM2076 412c2.414 6.951 2.414-6.951 0 0zM2606 417.6c2.47 9.654 9.953-3.591 0 0zM2804 418.6c5.938 9.453 3.857-1.65 0 0zM2420 422c2.414 6.951 2.414-6.951 0 0zM2256 423c2.555 3.588 2.555-3.588 0 0zM2160 426.6c4.583 12.001 7.793-5.05 0 0zM2092 442c2.414 6.951 2.414-6.951 0 0zM2156 442.6c12.558 13.234 12.159-.036 0 0zM2082 447c2.555 3.588 2.555-3.588 0 0zM2086 450c2.414 6.951 2.414-6.951 0 0zM2664 455c2.555 3.588 2.555-3.588 0 0zM2082 459c2.555 3.588 2.555-3.588 0 0zM2088 459c2.555 3.588 2.555-3.588 0 0zM2162 465c2.555 3.588 2.555-3.588 0 0zM2094 469c2.555 3.588 2.555-3.588 0 0zM2480 475c2.555 3.588 2.555-3.588 0 0zM2166 477c2.555 3.588 2.555-3.588 0 0zM2060 483c2.555 3.588 2.555-3.588 0 0zM2096 485c2.555 3.588 2.555-3.588 0 0zM2100 485c2.555 3.588 2.555-3.588 0 0zM2192 513c2.555 3.588 2.555-3.588 0 0zM2164 515c2.555 3.588 2.555-3.588 0 0zM2677 522c-55.187-.902 5.64 39.674 25 28.6 59.293 46.55-5.786-39.4-25-28.6zM3612 534c1.89 7.03 4.934-4.763 0 0zM2806 554c2.414 6.951 2.414-6.951 0 0zM2572 586c2.414 6.951 2.414-6.951 0 0zM2886 682c5.44 10.797 9.226.797 0 0zM2813.3 703.5c-1.638 6.687 6.905-2.26 0 0zM3776 705c2.555 3.588 2.555-3.588 0 0zM2934 780.6c15.61 17.897 5.772-10.434 0 0zM2926 781.6c3.17 10.534 7.373-6.282 0 0zM2652 828.7c2.438 31.65 64.109 1.22 15-.7l-7-1.9zM2873.3 853.5c-2.503 13.73 11.098-1.765 0 0zM3012 868c1.89 7.03 4.934-4.763 0 0zM2704 869.6c8.432 12.945 11.39-7.33 0 0zM2721.3 869.5c-6.912 20.99 17.41-2.643 0 0zM2537.3 879.5c-1.27 29.75 35.381-9.234 0 0zM2912 886.6c3.351 8.34 12.596-3.817 0 0zM3956 891c2.555 3.588 2.555-3.588 0 0zM3964 907c2.555 3.588 2.555-3.588 0 0zM2953.2 915.6c-3.391 6.725 8.104-.41 0 0zM2660 938c6.88 11.166 8.741-7.12 0 0zM2246 940.6c5.938 9.453 3.857-1.65 0 0zM2850 958c2.414 6.951 2.414-6.951 0 0zM2870 1003c2.555 3.588 2.555-3.588 0 0zM2734 1005c2.555 3.588 2.555-3.588 0 0zM2912 1006.6c5.938 9.453 3.857-1.65 0 0zM2758 1011c3.9 6.752 3.9-6.752 0 0zM2817.3 1025.5c-39.168 35.973 47.582 4.484 0 0zM2839.3 1045.5c2.573 25.018 15.247-6.233 0 0zM2966 1052c2.025 10.169 10.423.242 0 0zM2846 1075c2.555 3.588 2.555-3.588 0 0zM3190 1078c2.414 6.951 2.414-6.951 0 0zM4324 1251c2.555 3.588 2.555-3.588 0 0zM3298 1329c2.555 3.588 2.555-3.588 0 0zM4107.3 1479.5c-1.638 6.687 6.905-2.26 0 0zM4222 1515c2.555 3.588 2.555-3.588 0 0zM4465 1563.7c-1.828 9.15 8.812 5.564 0 0zM4373.3 1573.5c5.49 8.409 11.973-6.23 0 0zM1010 1590c12.982 8.19 1.533-5.873 0 0zM829 1634c-16.54 10.177 28.787-5.685 0 0zM392 1663c2.555 3.588 2.555-3.588 0 0zM438 1689c-10.969 3.777 8.433 2.488 0 0zM516 1746.6c5.938 9.453 3.857-1.65 0 0zM386 1759c2.555 3.588 2.555-3.588 0 0zM348 1763c2.555 3.588 2.555-3.588 0 0zM2034 1854c2.555 7.668 8.97-6.744 0 0zM2046 1855.6c4.433 14.762 8.554-6.732 0 0zM2064 1861c29.177 18.267 29.882-10.068 0 0zM419.3 1903.5c-6.67 40.323 38.198 9.157 0 0zM551.2 1905.6c-3.426 7.613 13.256-1.694 0 0zM486 1908c5.11 7.175 5.11-7.175 0 0zM496.3 1908.5c-10.132 26.17 19.703-5.549 0 0zM526 1910c-31.115 32.647 28.162-11.626 0 0zM412 1911c2.037 10.281 5.268-7.513 0 0zM482 1915c4.959 10.538 4.959-10.538 0 0zM506 1914c1.89 7.03 4.934-4.763 0 0z"/>
  <path d="M411.2 1917.6c-3.426 7.613 13.256-1.694 0 0zM546 1919c2.555 3.588 2.555-3.588 0 0zM474 1922c2.414 6.951 2.414-6.951 0 0zM487.3 1923.5c-1.856 15.823 9.6-6.551 0 0zM540 1927c-2.022 35.181 12.18-15.221 0 0zM548 1923.6c4.524 14.515 5.737-7.435 0 0zM572 1924c4.934 4.763 1.89-7.03 0 0zM404 1926c1.89 7.03 4.934-4.763 0 0zM510 1928c5.758 13.857 5.758-13.857 0 0zM584.3 1926.5c-30.617 19.565 40.304 17.776 0 0zM380 1927c2.555 3.588 2.555-3.588 0 0zM415.2 1927.6c6.363 24.237 35.461 15.676 28.8 10.4 28.691-27.178-19.023 12.053-28.8-10.4zM518 1928c5.11 7.175 5.11-7.175 0 0zM555 1927.7c-1.626 14.043 11.12-3.137 0 0zM495.3 1929.5c-7.548 14.535 22.186 3.768 0 0zM528 1929.5c5.485 14.672 13.376-5.13 0 0zM566 1929c2.555 3.588 2.555-3.588 0 0zM477.3 1931.5c-27.88 20.21 23.332 3.392 0 0z"/>
  <path d="M548 1932c6.88 11.166 8.741-7.12 0 0zM456 1936c-19.48 18.46 24.843 7.649 0 0zM564 1936.6c4.4 10.233 5.746-3.83 0 0zM374 1940c5.11 7.175 5.11-7.175 0 0zM388 1940c-5.351 11.463 6.361-4.95 0 0zM490 1940.6c3.612 17.28 6.363-7.1 0 0zM648.3 1940.5c1.916 26.66 20.622 3.084 0 0zM891.3 1939.5c-29.88 19.824 18.547 11.183 0 0zM558 1941c2.555 3.588 2.555-3.588 0 0zM572 1941c2.555 3.588 2.555-3.588 0 0zM528 1943c2.555 3.588 2.555-3.588 0 0zM676 1946.6c4.4 10.233 5.746-3.83 0 0zM700 1952c-4.754 19.03 17.272-6.074 0 0zM711 1959.7c1.434 23.67 22.992-.763 0 0zM678 1962c2.414 6.951 2.414-6.951 0 0z"/>
  <path d="M693.3 1961.5c-4.92 15.03 15.362-4.238 0 0zM688 1965c2.555 3.588 2.555-3.588 0 0zM734 1970.6c3.4 13.86 9.572-9.672 0 0zM748 1969c-12.168 27.768 33.215 9.59 0 0zM793.3 1973.5c-4.944 36.65 41.929-8.486 0 0zM712 1975c-24.75 16.056 16.235-.202 0 0z"/>
  <path d="M764 1975c5.243 3.685 5.243-3.685 0 0zM770 1977.6c5.104 22.614 14.589 3.714 0 0zM818 1979.6c6.611 20.154 13.45-14.697 0 0zM761.3 1981.5c-3.994 12.243 11.501.45 0 0zM726 1986c2.123 15.462 7.092-14.762 0 0zM843.3 1987.5c-2.794 21.4 16.912-1.654 0 0zM734 1989c2.555 3.588 2.555-3.588 0 0zM752 1992c5.11 7.175 5.11-7.175 0 0zM869.3 1991.5c-2.503 13.73 11.098-1.765 0 0zM906 1992c-6.017 13.53 6.948-3.326 0 0zM912 1991.6c3.737 13.578 5.766-3.978 0 0zM862 1994c5.11 7.175 5.11-7.175 0 0zM886 1993.9c-5.81 13.96 17.935 5.605 0 0zM740 1995c2.555 3.588 2.555-3.588 0 0zM856 1998.6c1.471 16.358 10.627-8.073 0 0zM930 1998c3.183 7.984 13.539-7.96 0 0zM843.3 1999.5c-5.991 13.67 24.932 3.531 0 0zM772 2002c2.414 6.951 2.414-6.951 0 0zM814 2001c2.555 3.588 2.555-3.588 0 0zM958 2004c1.89 7.03 4.934-4.763 0 0zM804 2006c2.414 6.951 2.414-6.951 0 0zM922 2005c2.555 3.588 2.555-3.588 0 0zM926 2005c2.555 3.588 2.555-3.588 0 0zM934 2005c5.243 3.685 5.243-3.685 0 0zM2073.3 2011.5c-3.515 10.918 7.56-.672 0 0zM1318 2227c-39.379-.374-32.46 48.892-43 73-54.237-33.382-158.774-25.008-135 53-55.036-25.011-102.325 39.423-66 82-16.334 16.358-77.407 40.544-42 82.8 44.903 41.928-74.442 24.983-37 74.2 16.058 43.56-53.542 119.499-17 88-20.284 40.064 51.962 80.337-5 112-21.72 35.123 16.02 63.465 47.4 61.3-25.266 23.65-87.78 87.184-26.7 108.7 42.34 30.613-69.184 90.235 1.2 118 64.57 6.532-70.989 71.363 8.1 96 61.945 23.838-44.622 77.476 9 117 21.119 15.53 53.806 24.058 29 55-12.477 43.029 62.526 54.043 28 96-4.789 43.708 55.52 43.052 57.5 86 48.579-1.97 50.774 45.892 76.7 72 19.136 10.739 53.177-1.634 44.8 31.5 34.586 22.792 99.877 92.595 79.7 61.2 36.162 1.308 83.166 44.052 26.3 58.3-97.671 36.072-184.862 95.848-286 126-110.628 46.52-228.39 66.538-346 84-213.471-1.534-434.309-11.775-641 35-64.231 46.992-40.394 136.536-1 190-9.324 58.975 86.668 83.204 43 138-13.464 78.047-22.709 167.439 34 234 56.65 58.032 147.657 90.781 222 46 144.02-69.432 294.004-133.767 442-198 172.224-94.926 357.843-172.85 553-185 75.726-20.11 162.592-8.706 233 15 49.124 8.568 49.623 56.728 57 93 67.017 27.413 59.62 140.19 27 101 41.69 34.624-31.942 77.324 12 118 64.83 28.719-33.713 106.168 34.6 138 34.505 21.529-9.422 66.7 26.4 97.8 38.239 17.426 47.376 48.088 45 86.2 20.025 27.35 44.082 45.47 31 85 1.796 42.876 98.162 34.132 38 78.8-59.194 37.943-13.572 133.109 46 135.2-51.965 49.537 6.184 162.875 76 128 12.24 25.288-51.297 81.704-4 115 28.07 43.45 94.044 3.607 117 4-37.683 47.04-60.014 169.284 34 160 28.699 2.994 65.897-27.053 82-26-33.93 49.476-19.985 147.526 54.9 134 69.542-21.793 28.47-96.153 44.1 33 26.064 45.214 84.178 44.38 121.9 15 16.742 35.943 8.167 105.766 66.1 110 40.594 5.609 49.916-55.458 77.6-64-12.083 50.194 55.262 113.477 80.4 44.2 17.509-26.945 32.53-58.99 50.5-82.8-7.853 67.685 110.974 110.707 115.5 26.6 16.12-31.14-3.123-97.155 25.6-110 30.495 37.733 113.577 76.897 125.4 4 4.036-158.85 6.949-321.506-24.6-478-14.4-34.393 6.459-71.142-10.4-115-26.153-152.61-41.187-314.993-90-467-38.324-101.325-52.333-219.804-153-284-48.853-58.447-127.7-108.905-146-184 75.691-72.936 123.673-178 217-231 69.523-36.982 128.89 23.233 192 38 27.451-63.707-68.614-104.336-110-140-30.187-40.147 57.4-25.37 85.7-26.3 31.616-5.069 100.007 27.899 104.3-18.3-22.74-30.768 9.771-18.644-28-30.4-49.703-57.255-127.668-64.855-188-100.2-44.737-70.465-118.765-122.46-184-171.8-105.68-62.67-240.022-82.221-354.9-40-30.514-1.926-58.014.779-68.1-38-48.613-87.11-108.044-168.634-135-266-47.443-113.093-64.802-241.321-156-331-76.77-108.735-174.605-201.867-290-266.5-94.918-104.902-192.846-227.326-330-285.5l-1.7.2zm40 72c73.946 46.122 138.53 110.96 202 171 15.627 22.666 84.418 96.993 21 42-69.936-75.862-149.222-139.57-231.5-201.5l-2.2-11zm-127 23c104.944 57.538 207.537 123.778 298 202 22.317 24.191-44.517-10.245 5.2 30-95.506-80.081-204.21-140.066-311.2-202-24.841 11.182-36.763 12.801-31-23.6 8.319-9.509 28.164-9.708 39-6.4zm-76.7 93.2c52.926 12.837 129.466-4.686 159.7 42.8 26.996-17.539 73.213 22.88 40 17 77.787 34.151 154.134 98.94 214 162.6-34.705 7.428-74.992-40.097-111-57.6-101.167-60.631-200.497-126.163-316.6-150-13.26-8.718 6.357-17.771 13.9-14.8zm151.7 7.8c-2.555 3.588-2.555-3.588 0 0zm4.3.2c15.851 9.396 3.335 10.11 0 0zm31.7 18.8c4.13 38.381.639-12.99 0 0zm-242 27c-2.555 3.588-2.555-3.588 0 0zm-4 10c52.43 2.63 111.463 28.296 158.4 23-7.626-6.732 19.19 34.197 50.6 26 92.586 30.39 165.232 101.988 244.6 156-16.707 18.319-67.883-34.706-101.6-48-36.069-20.057-87.112-64.807-124-48.5-2.392 53.566 89.2 61.444 135 92.5 29.125 9.565 88.302 73.966 31 37-98.482-53.032-208.881-81.701-316-108-38.57-13.431-87.685-2.366-124-18.6 71.64-40.91 174.735 24.454 248-8-40.042-54.639-120.79-60.003-182.6-80.4-21.993 22.12-46.817-14.178-19.4-23zm298.5 2.5c12.182 13.533-14.66-5.693 0 0zm7.5 3.5c9.418 5.452-4.067.833 0 0zm-79 35c24.53 17.728-16.509-5.483 0 0zm11 7c-2.555 3.588-2.555-3.588 0 0zm11 1c35.83 20.326-23.731 5.742 0 0zm365 85c26.312 38.398 98.515 77.515 93.8 124.2-32.539-40.27-91.838-67.996-111.8-117 2.476-7.953 10.605-9.861 18-7.2zm-421.6 46.2c34.636 13.277 79.81-15.898 39.7 13.8 4.742 4.391 52.542 52.367 13.9 33 64.368 29.045 145.02 46.575 188.6 100.6-50.177-11.015-101.669-52.16-159.6-54.6-28.103-13.665-81.543-32.03-92.5-6-41.676-44.187-119.095-37.07-176.2-41.3-31.366 7.337-94.776 49.006-86.3-12.3 70.976-36.178 159.019-19.066 234-19.4 16.932-8.61 64.42 42.434 38.4-13.8zM1680 2681c30.661 6.601 74.069 53.558 67 73-14.587-12.15-117.266-64.352-67-73zm-8 36c-2.555 3.588-2.555-3.588 0 0zm-12 36c38.803 6.024 88.687 79.926 28 39-13.937-5.197-69.052-29.777-28-39zm-502 12c128.814.378 253.48 37.708 368.5 92.5-3.848 28.201-65.701-13.3-94.5-14.5-51.27-13.823-31.774 33.322 6 38 30.288 10.62 84.1 16.651 94 48.6-25.848 19.698-69.575-17.92-93-9.6-48.578-20.256-100.247-26.194-153-34-79.033 1.654-160.727-.66-238 31-17.941-33.97 62.351-50.233 94-62 68.322-14.562 143.764-1.358 205-7 4.46-31.68 30.666 44.794 50 0-42.832-40.715-120.181-35.001-178-42-55.655-12.922-114.794-.563-167.5-5.5 9.593-29.07 79.298-32.982 106.5-35.5zm490 56c74.317 17.505 43.17 48.446-14 13-7.044-7.944 6.743-17.36 14-13zm-618 22c-2.555 3.588-2.555-3.588 0 0zm880 16c108.172 48.894 84.502 179.079 132 266 19.268 76.06 65.337 148.542 90 217.8-35.27 25.093-73.537-14.08-96-38.8-30.935 11.775-67.854 27.382-93 18 7.637-27.836 68.197-.82 67.5-38.5-23.628-47.115-92.362 43.418-87-14 24.273-8.044 57.81-.507 62.5-39.5-26.613-7.569-81.666 45.347-72 11-30.77 14.812-61.358-13.266 6.1-33-45.02-4.242 23.285-50.368 7.9-40 19.612-12.72 60.704-50.322 8-45-76.98 4.137-7.656-41.839-14-42-31.074-15.032-51.342-37.717-43-69-5.117-26.445-34.712-90.821-4-62 24.533-25.86-6.213-86.45 35-91zm-246 20c-2.555 3.588-2.555-3.588 0 0zm0 14c20.911 9.054 95.253 18.766 62.8 45-20.93-3.902-125.152-20.09-62.8-45zm-426 15c-2.414 6.951-2.414-6.951 0 0zm32 4c-11.415 27.526-4.333-13.204 0 0zm-14 2c-4.934 4.763-1.89-7.03 0 0zm-16 14.8c50.845 29.351 123.62 9.571 184 26.2 32.78 6.881 99.75.9 104.6 37.6-66.723 12.711-108.583-30.56-86-4.6-65.818 3.393-66.919-30.046-52.6-13-43.355-.418-61.055 6.439-105.6-2.3-51.606 3.112-76.42 22.982-128.1 16-44.005 1.658-92.829 44.196-129.3 31.3 45.758-68.975 133.064-71.123 203-82.4 1.776-3.921 8.57-22.032 10-8.8zm318 33.2c-2.28 13.93-2.28-13.93 0 0zm6-3c-2.555 3.588-2.555-3.588 0 0zm96.3.2c23.671-3.944 99.669 34.54 37.7 32.8-19.318-3.785-91.42-4.582-54-33zm-98.3 3.8c-2.555 3.588-2.555-3.588 0 0zm-195.4 24.4c6.75 16.365-7.42-1.573 0 0zm4 10c10.09 9.752-8.705 12.503 0 0zm-155.1 9.1c15.407 33.042-29.814-9.447 0 0zm442.9 8.7c21.274 1.465 97.575 5.185 61.5 30.8-19.78-9.564-116.973 11.636-61.5-30.8zm-296.2 8c55.034 15.09 136.786-3.82 187.8 29.8-34.246 32.6-39.617 9.333-80 14-87.07-1.973-189.344 1.258-264 31-52.103-11.091-104.675 41.7-154.6 44.6 58.606-101.489 191.3-114.15 296.2-116.6 3.616-3.146 9.813-12.72 14.6-2.8zm174.4 52.2c8.174 16.882-13.38-1.757 0 0zm-58.6 5.6c-7.909 3.711-7.909-3.711 0 0zm208 0c76.675-.762-29.211 54.722-32 5.4 8.745-7.376 21.388-7.024 32-5.4zm-164 4.9c6.425 12.78-10.492-8.3 0 0zm-43.2 9.8c4.037 25.5 108.644 9.69 44.4 36.3-22.779 21.15-53.316-11.295-83.2 10-1.529 15.45-34.907-7.926-65.6 1.2-108.27 8.146-208.7 65.738-306.4 102.8 12.036-60.64 93.461-76.432 143.1-98 84.604-31.472 176.53-29.945 259.5-41.4.891-4.576-.951-14.574 8.2-10.9zm201.5 33.5c52.874-13.02-46.587 27.629 8.7 26.8-31.472 9.371-44.317-21.914-8.7-26.8zm210 6c56.006-10.332 32.719 44.664-4.3 16.2 24.076-14.613-10.848-2.779 4.3-16.2zm-369.7 10.2c4.864 15.204-7.784 1.136 0 0zM1414 3159c-2.555 3.587-2.555-3.588 0 0zm2 5.8c31.835 40.788 107.013-14.575 134 27.3-112.897 16.154-226.325 22.7-328 81.9-44.355 7.24-84.575 59.977-122 57 43.316-90.348 152.242-112.817 239-141 24.549-6.225 70.975-3.713 77-25.2zm298 30.2c88.84 6.105-84.419 56.221-21 5 6.618-.789 15.44-6.458 21-5zm66 27c11.633 25.47-5.255.132 0 0zm-234 11c31.532 22.236-38.037 15.558-57.7 24.2-129.61 10.604-249.276 72.736-345.9 160.8-53.695 34.197 4.347-73.316 37.4-76 107.685-73.57 240.33-96.713 366.2-109zm192.4 10.2c56.33 14.453-92.867 68.239-47.4 8.8 15.708-3.119 31.045-10.233 47.4-8.8zm-202 48c20.492 9.701-55.445 22.16-75.6 34.8-111.094 21.998-202.196 99.76-286.8 164.1 42.792-148.53 235.267-171.855 362.4-198.9zm247.6 3.8c6.25 37.057-64.4 50.342-94 47-2.6-39.32 65.711-47.78 94-47zm-212 54c3.902 16.956-50.094 16.886-70 30-111.706 29.865-205.383 101.572-288 180-18.102-26.354 37.767-80.061 68-98 81.89-63.368 190.079-94.968 290-112zm184.6 18.4c3.262 62.297-105.328 17.592-18.6-.4zm391.4 3.6c-2.555 3.587-2.555-3.588 0 0zm-585.4 38.4c-78.835 40.464-171.465 72.322-230.1 146.6-28.68 47.062-56.04 31.614-30.5-6 47.023-98.061 164.858-121.457 260.6-140.6zm35.4 1.6c-2.555 3.587-2.555-3.588 0 0zm150.6 10.4c14.424 36.273-72.142 35.801-21.6 4.6 6.41-3.873 13.263-8.878 21.6-4.6zm615.7 17.8c96.243 3.263 203.178-.986 281.7 64.8 29.775 43.701-58.175 17.877-83 16-48.87-9.264-88.82-77.689-83-35-37.071-14.308-53.686-56.826-106-36-50.61 5.146-117.448 14.547-146.6 57.6 51.957-4.133 19.439 40.78 42.6 69.4 43.201-17.107-30.293 40.21-1 18-22.2 49.868 43.635 20.542 45 11-26.37 31.88-67.998 79.67-94 90 19.243-25.032 39.826-81.384 4-87-45.8 13.193-63.473 54.644-46 96 1.241 29.452 18.114 58.217 12.5 87.5 75.972 1.055 68.243-119.45 141.5-135.5 28.525-32.304 95.65-20.52 90-69.8 63.527-39.297 168.707-71.334 224-14.2 9.54 25.048 74.42-8.928 72.2 33.2-40.512-22.564-32.038-7.877-36.2-1.2-68.116-27.994-140.563-8.082-205.5 18-31.976 37.82-92.287 21.407-116.5 76-22.938 25.006-18.976 50.506 10 59.5-56.605 36.454-21.694 54.092-11.4 40.5-28.67 1.305-77.758 25.032-27.2 42.3 7.225 42.648 38.552 44.532 66.3 18.9 38.398 3.79-66.8 15.822-30.7 50.8 49.158 133.919 139.885 245.067 221 361.8 75.625 77.074 165.473 152.338 185 264.2 28.164 113.343 80.43 225.081 66 344-26.71 31.02-12.978-122.148-18-100-8.489-47.792-15.679-100.959-40.5-142-10.11 19.657-64.391 93.107-54.5 34.4 25.075-48.921-68.34-22.94-47-76.4-17.52-29.607 38.453-71.793-6.6-86-34.736 15.532-12.68 67.802-41.9 75.5-3.768-18.356 31.57-72.162-12-61.5-19.133 53.199-47.774 12.586-27.5-26 30.097-49.203-18.195-89.675-21-137-23.688-20.108-60.888-76.533-54-32-11.304 24.77-20.712-60.205-34 4 47.53-38.038.455-118.357-15.5-65-8.475 16.156-47.324 90.24-51.5 40 22.111-30.774 14.724-73.506-3-97-4.685 25.22-44.577 88.974-55.087 31.25-53.574 13.048-8.777-57.241 5.087-71.75-5.485-40.918-77.662 89.675-65 5.5 16.709-42.645 107.095-36.362 67-94-81.093 11.437-2.53-5.073-76-48 32.878-38.422-12.048-58.249-34.5-14.5 6.365 25.987-26.722 107.84-53.5 66.5 11.356-43.33 69.437-72.152 53.5-121.5-56.164-16.17-79.358 64.615-71.6 97.5-23.852 25.19-93.88 35.313-39.7-10 43.888-20.184 19.952-82.19-22.2-38-35.576 24.554-76.165 45.556-110 72-1.07 69.361 76.83 36.562 114 30.4-46.702 79.731-165.088 69.19-246.9 81.6-49.908 11.735-30.547-28.793 8.9-39 2.301-37.49-65.436 37.955-41-19 40.271-23.128 14.634-46.553-17-31-25.107 18.538 9.566 27.243-22.4-7 29.34-10.844 78.652-90.258 16.4-59-18.027 31.507-46.135 43.793-69.2 27.3 10.269-21.537 88.19-89.886 63.2-46.3 52.37-44.568 99.91-112.563 158-138.4-17.462 17.28-54.168 94.06-9.5 50.9 46.834-23.424 32.78-77.013 51.2-108.5-36.543-27.364-74.375 6.3-114.3.6-3.278-41.185-78.82-7.19-109.3-29.6-29.832 1.139-87 8.11-62.1-36 11.058-42.709 90.742-46.396 86.4-84.3-16.625-4.104-61.619 14.321-30.4-9.7-50.333 16.864-86.108 64.014-144 44-50.211 12.647-16.376-12.615 11.5-21 30.349-42.203-44.486-16.385-53.5 13-73.947 18.594-18.366-63.024 16-74 86.981-22.95 124.703-126.604 216-142 75.014-40.714 156.56-52.649 239.6-43.8 59.204 5.454-23.071 43.654-32.8 16.8 59.424-18.197-87.31-14.205-36.8 14 36.599-5.01 1.858 43.295-22.2 51.2 24.232-18.082 20.514-53.21-19.8-27.2-47.321-11.394-29.294 69.765-62.5 30.5-51.565-7.609-136.06 88.268-46.5 87.5 114.25-51.408 239.8-61.596 347-129 54.713-18.074 108.931-37.943 166.3-49.8zM1606 3459c-13.801 34.127-80.766 39.086-114 67-63.495 19.612-96.037 85.904-150.6 118.6 12.766-125.506 165.863-158.665 264.6-185.6zm826 24c50.56 21.01 4.997 20.343-25 11-36.07-7.323-91.765 38.654-35.6 60.3-48.478 48.814-57.838 49.043-23.4 10.7-32.354-38.75 6.858-88.577 58-74 9.003-1.198 18.11-7.969 26-8zm-796.5 19.5c-25.693 39.186-94.673 51.574-130.5 91.5-24.996 22.258-95.372 92.434-67 22.4 46.336-61.07 120.902-108.014 197.5-113.9zM2752 3587c-7.665 10.762-7.665-10.762 0 0zm150 72c-2.555 3.588-2.555-3.588 0 0zm-267.4 26.4c3.37 23.402-31.473 2.253 0 0zm343.4 9.6c-2.555 3.588-2.555-3.588 0 0zm-260 13c24.45 35.324-69.51 82.233-58 59 34.905-4.311 55.083-36.427 56-69zm-130 4c3.132 24.083-25.591-22.97 0 15-8.444-9.909-3.114-45.141 0-15zm316-11c38.568 5.896.831 5.018 22 27 14.11-8.274-28.854-20.772-22-27zm86 0c-2.555 3.588-2.555-3.588 0 0zm12 12c-2.555 3.588-2.555-3.588 0 0zm-125.7 18.2c6.249 15.282-61.881 17.484-82.3 33.8-20.968 9.983-101.09 24.85-58 48 51.464 6.413 108.565-1.949 148 39-40.304-6.128-70.529-25.009-119.7-22.8-28.823 9.79-92.81 23.56-86.3-26.7 48.738-51.589 129.234-35.49 188-71.5zm13.7 2.8c-1.76 6.968-5.184-4.652 0 0zm6-1c11.068 3.765-8.701 2.538 0 0zm140 9c-2.414 6.951-2.414-6.951 0 0zm6 7c-2.555 3.588-2.555-3.588 0 0zm-492 4c17.875 36.663 105.464 42.366 61 91-41.892 41.463 33.866 26.983 57 29 45.546-13.109 66.52 3.638 18 11-39.264 17.13-83.921 32.42-122 51-3.065-24.844-55.743 1.804-35-15-18.73 63.577-24.788 1.412-17 8-29.256 25.378-77.37 9.725-61.2-16 58.677 15.044 99.322-56.173 151.1-74 37.963-38.862-32.572-51.664-37.9-7-68.8 80.37 76.062-176.706 4-30-8.444-35.682-55.028 44.12-83.8 11-20.126 23.377-59.148 2.458-62.2-1 16.219-12.907 74.81-46.247 68-33-2.822 25.179 88.755 18.572 48-18 2.745-2.35 9.087-8.425 12-7zm-972.5 5.5c-8.405 48.693-85.448 16.53-93.5 54.5 59.026-1.418 125.784-52.039 174 1-33.9 46.883-15.561-29.194-56-14-26.431 4.67-89.07 28.388-23 30 17.338 10.43-9.975 44.532 21 2 37.233 5.897 21.994 44.797 17.8 29.2 35.434-16.34-24.135 42.032 3.6 31.3 18.245-6.623 77.737-15.298 36.6 10.5-48.661 34.01-51.203-57.944-100-23-38.36 5.927-37.795 47.696-60 65-32.68 4.55-89.918 6.23-106 28 4.043 15.24-59.576 54.522-30 52-31.952-8.826-64.4 31.787-19.5 12.3 30.075 4.022 68.423-21.574 99.5-12.3 31.603-19.012 76.53-22.368 107-17-43.506 20.29-102.797 20.214-149 36-71.148 6.747-127.695 47.24-193 70-39.683-4.238 33.774-27.13 46.5-42 5.384-31.992 89.1-42.659 67.5-74-14.91 4.157-57.977 53-60 20-15.204-16.447-72.126 52.696-14.8 30 4.253 39.02-81.797 31.02-70.2 78-32.873 19.197-87.686 93.613-117 52-5.642-68.183 28.724-121.609 85-157 42.515-25.456 49.174-52.386-7.9-44-58.06 3.46-121.68 4.462-174.1-24-10.344-42.347 97.008-27.337 46-6.5 42.443 11.674 116.49-37.795 94-19.5 56.606-1.992 103.302-29.042 150-52 8.974 31.918 49.434-49.939 37-1 34.076-37.602 91.527-57.79 139-79 49.655-10.339 99.336-31.695 149.5-36.5zm820.5 54.1c-17.956 20.823-64.862 21.501-20 1.4 6.128-2.4 13.986-6.792 20-1.4zm133.6 15.9c-12.172 13.872 20.615-28.62-33.6 21.5 8.377-8.271 19.906-25.963 33.6-21.5zM2862 3871c-2.555 3.588-2.555-3.588 0 0zm-414 18c-11.132 16.34-7.94-10.775 0 0zm-684 4c47.876 18.052-22.495 37.474-44 30-49.453 22.752-102.96.323-146 40-48.2 23.019-105.541 41.776-158.5 43.5 7.004-17.675-50.976-8.605-3.1-19.3-7.801-19.415 40.47-35.818 45.2-6 32.682-.399 33.094-54.497 76.4-27.2 26.919-14.275 35.899-53.225-2.4-30.8-4.516-14.906 65.816-33.89 50 1.5 36.49 1.42 64.21 15.961 96.4-14.7 27.918-9.721 56.285-17.339 86-17zm50 38c-12.784 30.228-80.86 24.582-117.1 37-24.959 4.122-85.878 25.785-86.9 5 68.195-19.493 134.018-36.267 204-42zm712 32c13.418 10.998-12.84-.754 0 0zm-755.5 12.5c-10.03 33.907-74.71 23.716-108.3 33.4 8.902-20.182 73.763-15.988 103.8-35.9zM372 4013c-15.93 19.433-89.013 16.8-127.7 28.2-57.524 3.694-128.161 10.784-168.8 49.4-1.956-59.871 69.129-73.044 116.5-62.6 61.212-5.03 120.79-8.794 180-15zm1348 2c47.25 8.17-45.445 16.196 0 0zm-1187.4 4.4c-70.941 22.238-163.54 40.417-242.6 59.6-63.937 21.945-140.241 26.065-190.5 73.7 3.29-96.962 128.3-93.743 198.2-99.5 78.578-3.694 156.221-29.238 234.9-33.8zm1048.9 9.1c-23.313 42.741-99.044 50.793-145.5 42.5-31.554-12.808 43.617-34.966 55.6-11.8 48.257 11.864 42.501-46.338 89.9-30.7zm158 4c9.239 15.997-9.947-7.628 0 0zM1260 4034c-4.251 12.278-23.766 12.015 0 0zm-600.5 16.5c-60.814 18.384-148.7 33.51-221.5 48.5-90.219 30.822-191.45 48.604-265 113-56.005 60.779-62.96-78.53 0-74 135.384-59.216 287.933-68.497 431-84 18.42 4.586 37.185-7.973 55.5-3.5zm293.1.9c-59.363 27.429-145.97 30.192-214.7 49.6-144.739 29.707-286.572 68.694-429.9 102-44.2 14.576-11.455 39.88 18 20 172.143-47.87 351.159-70.19 522-120 31.587-1.873 85.67-31.373 103-17-213.702 61.406-428.072 112.819-645 153-48.759 17.061 35.313 10.428 54.9 1 204.213-24.648 407.191-84.629 607.7-136.6-62.845 40.277-151.308 48.468-223.6 78.6-131.108 31.884-256.38 77.657-389 105.6-51.364 6.028-165.515 34.796-162-52.6 110.915-88.785 261.428-74.832 392-114 122.605-31.442 244.183-44.572 366.6-69.6zM2484 4071c-2.555 3.588-2.555-3.588 0 0zm-672 11c-4.934 4.763-1.89-7.03 0 0zm464 37.6c-18.17 45.193-35.551-5.632 0 0zm36.6-.2c7.465 47.796-57.129 25.09-12.6-.4zm-1402 50c-52.588 37.815-126.656 55.112-188.6 83.6-155.299 47.258-305.897 124.277-472 121-34.853 5.314-92.755-31.447-81.4-62 93.076 57.474 209.708 9.685 311.4-3 145.055-43.174 287.359-93.15 430.6-139.6zm1332 .1c-3.8 18.371-20.15-4.185 0 0zm30 3.9c12.397 32.17-51.96 87.94-37.6 26.6 8.39-12.208 20.76-29.482 37.6-26.6zM990 4191.6c-130.492 84.306-283.62 126.862-428 181.4-118.477 28.549-231.083 95.53-354 91-40.237 4.053-77.89-68.327-17.7-48.8 279.587-8.781 536.447-136.511 796.7-227.2zm836.6 23.8c32.507 43.834-10.74 30.55 0 0zm241.4 6.6c-36.536 40.81-120.019 50.9-175.6 28 14.824-14.79 83.87-4.692 121.6-18 17.682-2.969 37.018-11.66 54-10zm-263.4 5.4c7.196 13.14-13.14-7.196 0 0zm496.4 8.6c27.635 42.401-63.547 52.078-13 4 3.302-2.74 8.18-7.313 13-4zm-495 1.6c-3.643 13.507-5.882-3.862 0 0zm54.6-.2c1.95 6.798-6.798-1.95 0 0zM2106 4257c15.054 29.441-60.28 42.179-88 50-31.544-32.77 67.675-41.043 88-50zm-1230 30.9c-55.159 52.62-148.27 68.34-220 101.1-113.971 32.707-219.085 90.379-326 125-41.39 15.858-113.338 48.802-139.5 2.5 101.773-5.478 195.192-57.465 293.5-84.5 132.33-43.303 265.135-93.789 392-144.1zm1458 3.1c24.111 58.648-49.273 24.987 0 0zm42 4c43.641 45.915-62.74 40.112 0 0zm-636 18c52.007 24.01 125.08 19.937 168 33-56.734 19.323-141.045 39.146-178-21.5l4.3-8zm418.5 8.5c-2.816 24.239-79.36 81.624-98.5 47 27.39-17.866 66.356-54.724 98.5-47zM794 4368c-39.329 32.022-108.77 48.286-160 75-105.282 37.901-203.289 90.166-306 134-21.266 15.269-88.854 18.212-74 1 118.216-38.75 229.565-100.745 350-136 63.575-20.033 133.296-45.51 190-74zm1598.6-.6c4.185 33.586-27.985-8.078 0 0zm46 0c4.516 41.66-29.3-4.419 0 0zM2201 4372c12.955 30.116-50.296 61.299-76.5 74-36.689-15.725 59.26-73.546 76.5-74zm348.8 22.7c9.445 34.86-26.259 95.32-55.8 84.3 2.39-25.775 37.742-52.143 44.3-84.5zm-102.3 9.8c11.522 62.629-61.325 9.573 0 0zM1748 4407c65.949 36.067 146.69-9.075 208.2 9.9-61.384 34.994-159.518 62.012-216.2 8.1-7.349-7.142-1.34-20.188 8-18zm745.5 7.5c23.836 42.658-56.32 21.277-9-4.5zM2222 4439c22.078 25.531-90.442 117.303-68 53 16.46-19.396 41.836-53.353 68-53zm342.3 4.2c34.138 10.069-17.25 106.558-21.3 40.8 4.706-13.357 8.475-36.092 21.3-40.8zM2280 4469c11.658 38.44-52.462 84.475-80 108-17.194-38.656 56.835-82.835 80-108zm-290 8c24.357 26.254-60.278 37.874-86 58-48.308 16.744-137.68 40.704-160-14.5 48.628-18.579 111.71 12.689 164-18.5 27.755-5.74 55.179-20.764 82-25zm339.5 29.5c-5.572 42.409-57.548 101.054-101.5 107.5 4.59-37.25 66.225-103.07 101.5-107.5zm238 28c5.84 45.98-25.374-2.082 0 0zm246.5.5c-2.555 3.588-2.555-3.588 0 0zm-446.5 31.5c1.528 39.533-43.566 76.443-76 97.5-34.133-31.633 44.48-82.541 76-97.5zm-346.9.9c-22.171 49.336-96.233 56.969-144.6 76.6-29.185 6.608-97.976 23.449-100-11.6 74.048-14.513 150.32-28.257 220-61.4 8.164-1.456 16.086-5.752 24.6-3.6zm398.9 27.1c-1.568 39.306-36.253 90.73-71.5 113.5-25.187-27.906 37.71-74.576 56-103 5.644 3.381 8.77-20.723 15.5-10.5zM2084 4611c-2.555 3.588-2.555-3.588 0 0zm11.5 21.5c36.366 16.015-58.513 48.175-35.5 37.5-74.53 45.63-169.122 137.215-259.2 83.6 39.06-36.745 105.367-33.04 153.2-60.6 45.936-20.316 92.282-54.706 141.5-60.5zm368 8c-11.504 34.486-30.886 91.083-70.1 100.1.208-40.088 37.513-85.063 70.1-100.1zm384.5 4.5c-2.555 3.588-2.555-3.588 0 0zm-330.5 7.5c-16.402 45.166-41.477 110.25-86.1 128.1 5.011-49.192 54.755-101.376 86.1-128.1zm54.5 2.5c-2.555 3.588-2.555-3.588 0 0zm-448 26.8c16.469 24.563 74.881-11.56 46.4 42.2-90.382 60.316-183.312 147.605-297.2 146.2-46.216-29.61 37.107-54.748 62.8-68.2 63.642-38.804 166.909-44.678 188-120.2zm428 5.2c-4.775 41.63-33.774 107.686-69.4 139-26.121-40.013 45.22-90.94 62.4-132 1.96-2.197 4.747-11.237 7-7zm54 20c-3.584 53.962-19.84 127.863-60 174-26.997-26.126 23.589-92.946 33.6-135 13.146-8.787 12.011-34.771 26.4-39zm46.6 20.4c2.1 63.454-23.698 127.058-45.1 186.1-40.434-1.417 6.143-66.596 12.5-93.1 15.577-26.84 19.572-72.44 32.6-93zM1950 4753c-2.555 3.588-2.555-3.588 0 0zm740 7c-7.455 62.368 25.024 161.256-31.6 198-7.41-61.053 19.38-128.384 31-190-13.05 28.685-8.121-24.442.6-8zm-465.4 9.4c-42.523 68.168-132.257 110.46-199.6 160.6-29.587 15.923-106.563 46.39-110.8 6 113.475-31.213 191.967-133.912 303.8-167zm563.4 7.6c-.818 45.53 26.39 131.705-10 153 1.71-48.859-3.47-107.236 8-158zm-54 8c5.32 54.739 34.346 132.937-9 181-9.539-53.12 14.194-118.907 9-181zm-445.4 20.4c-41.836 90.405-143.854 152.564-192.6 233.6-64.511 12.132-130.063 108.283-202 63 123.438-61.488 220.072-170.014 328-256 17.696-17.473 39.039-42.419 66.6-40.6zm37.4 57.6c4.853 46.66-52.41 90.998-78 132-47.291 81.894-130.103 147.894-178.9 219.1-20.683-5.328-82.81 46.774-93.3 11.9 129.958-104.262 221.034-251.257 342.2-361zm82 36c25.928 24.928-22.275 71.633-32 104.8-32.48 46.306-62.57 99.615-82 146.2 25.151 10.703-10.916 16.182-3.1 28.1-1.258-47.79-56.147 43.242-74.4 60.4-31.04 20.32-3.802 44.607-7.5 65.5-18.869-3.508-87.898 56.475-64.6 18-30.701 16.505-71.544 71.243-103.4 50 72.572-134.938 189.9-246.32 277-375.8 27.407-33.28 56.22-74.49 90-97.2zm56.3 30.2c39.419 26.106-16.508 81.917-20.3 120.6-46.798 132.29-111.79 266.4-193.6 386.2-35.474 23.44-73.243 95.685-115.6 82.4 22.782-73.832 79.688-137.191 103.2-207.4 74.754-84.75 119.052-203.066 189-297 12.697-26.284 18.124-68.83 37.3-84.8zm63.7 66.4c17.069 60.091-28.684 126.455-38 189-19.146 56.605-32.668 120.956-50 175.4 22.56 16.728-39.992 94.344-33 60-42.461 73.613-83.624 154.517-149.2 209.2 26.663-78.217 60.562-167.695 95.2-249.2 50.477-112.03 106.983-220.118 141-339 8.596-17.692 7.72-45.826 34-45.4zm334.6 11.8c38.284 187.385 83.48 377.24 84.4 568.6-1.54 36.163-88.56-22.009-50 42-54.19-112.094-2.784-242.236-29-363-2.311-79.252-21.61-173.955-5.4-247.6zm-255.1 21.1c-22.534 199.442-71.927 401.43-151.5 588.5-18.759 30.445-43.535 89.575-78 85.9 22.158-66.225 38.915-140.171 57.3-206.6 32.137-36.963 51.335-111.584 70.7-166.2 22.307-102.256 58.33-204.617 92.5-302.1l1.5-1zM2876 5047c-2.555 3.587-2.555-3.587 0 0zm-82 27c18.787 108.8 9.867 217.202 24 324-11.308 113.615 16 231.636-26 340.4-46.572-22.047-14.674-111.618-21-162.4 9.809-109.272 15.45-212.454 9.8-318.3 8.591-58.617-6.437-136.435 13.2-183.7zm-117.4 9.4c-17.625 218.419-53.314 432.146-112.6 642.4-10.612 29.031-53.261 92.303-48 18.2 7.365-142.455 67.512-275.272 90-415 27.664-80.384 37.328-163.3 59.3-245.5zm59.9 14.1c7.154 167.93-19.007 340.967-30.5 510.5-11.38 59.709-20.487 149.332-63 184-1.66-155.613 28.852-307.22 53-459 12.708-77.39 12.548-164.311 28-238l4.5-1zM2710 5113c-2.555 3.587-2.555-3.587 0 0zm-114 60c-2.555 3.587-2.555-3.587 0 0zm-74 6c-2.555 3.587-2.555-3.587 0 0zm-136 85c-2.414 6.951-2.414-6.951 0 0zm-168 54.6c.378 5.57-7.058-1.576 0 0zm222 82.4c-2.555 3.587-2.555-3.587 0 0zm2 12c-2.327 10.4-2.327-10.4 0 0zm-262 4c-2.555 3.587-2.555-3.587 0 0zm648 78c-2.555 3.587-2.555-3.587 0 0zm36 78c-2.555 3.587-2.555-3.587 0 0zm-112 86c-2.555 3.587-2.555-3.587 0 0z"/>
  <path d="M1386 2333c2.555 3.588 2.555-3.588 0 0zM1395.2 2335.6c-3.391 6.725 8.104-.41 0 0zM1332 2408c2.414 6.951 2.414-6.951 0 0zM1388 2438c-5.351 11.463 6.361-4.95 0 0zM1302 2582c11.285 59.424 42.585-3.955 0 0zM1710 2712c2.414 6.951 2.414-6.951 0 0zM1652 2766c5.11 7.175 5.11-7.175 0 0zM1940 3079c-17.152 45.735 41.896 4.998 0 0zM1953.3 3189.5c-15.303 22.772 28.908-.299 0 0zM2068 3307c2.555 3.588 2.555-3.588 0 0zM1406 2980.6c5.938 9.454 3.857-1.65 0 0zM1474 3037c2.555 3.588 2.555-3.588 0 0zM1230 3513c2.555 3.588 2.555-3.588 0 0zM2506 3457c-59.154 18.255 30.622 41.265 48.2 44.5 17.82 4.563 83.804 33.417 79.8 3.5-44.41-12.499-80.589-46.108-128-48zM1936 3459c-37.587-3.812-50.96 57.704-6.8 33 17.114.746 31.953-36.968 6.8-33zM1860 3487c-25.33 19.01-13.611 60.033 14 24-2.856-12.842 9.257-32.81-14-24zM2210 3511c-26.753 7.41-116.92 38.668-56 56 21.979-1.541 97.394-35.973 56-56zM1802 3521c-21.367 17.326-99.962 50.486-57.4 71 25.16-13.702 86.457-42.243 57.4-71zM2230 3543c-28.645 8.185-85.791 60.525-47.4 75 27.024-18.039 97.422-30.727 47.4-75zM2094 3563c-58.615 4.42.308 104.376 30 41.4 35.655-26.315-2.972-44.653-30-41.4zM1788 3601c-26.683 9.151-51.336 23.5-47.4 49-34.376 32.089 29.605 4.457 47.4-4 30.45-6.517 37.15-37.894 0-45z"/>
  <path d="M2006 3605c-56.91 4.692-22.066 75.336 22 46 52.455-16.672 34.21-63.24-22-46zM2131 3608c-12.812 16.058-48.63 93.541-7 74 25.748-15.414 37.352-62.325 7-74zM1684 3611c-45.156 25.576-38.935 48.672.5 15.5 5.314-.08 9.431-19.14-.5-15.5zM1928 3611c-24.768 5.427-102.716 30.893-48.4 47.7 3.704-8.414 114.542-54.958 48.4-47.7zM2061 3642c-22.683 20.466-96.8 83.356-39 93 51.026 10.933 89.114-89.925 39-93zM2248 3643c2.555 3.588 2.555-3.588 0 0zM1664 3645c2.555 3.588 2.555-3.588 0 0zM1958 3657c-31.603-1.69-99.537 26.483-72 60 33.354 37.843 128.995-32.538 72-60zM2162 3666c2.414 6.951 2.414-6.951 0 0zM1684 3669c-41.57 19.63 18.385 18.776 0 0zM2152 3677c-38.095 15.149-48.507 45.39-35.4 83 21.91-17.63 84.829-45.456 35.4-83zM1848 3719c-53.822 3.592-48.24 88.435 0 35.2 5.597-10.556 27.077-41.599 0-35.2zM1970 3721c-27.968 13.395-115.703 31.531-70.6 65 40.497 8.21 86.239 5.503 79.6-48 4.766-7.057 5.55-24.428-9-17zM2070 3739c-24.53 15.79-108.22 41.46-54 66 28.806 14.752 70.304-53.7 54-66z"/>
  <path d="M2160 3745c-58.99 12.52-11.105 109.604 9 43 8.35-12.54 16.144-46.612-9-43zM2083.2 3769.6c-3.391 6.725 8.104-.41 0 0zM2104 3801c-34.863 18.394-90.994 39.975-72 86.6-13.992 35.468 65.231-4.949 62-32.8 6.17-16.233 20.232-40.06 10-53.8zm-28 24c-2.555 3.588-2.555-3.588 0 0zM2204 3809c-38.175.283-118.936 69.506-67 89 41.273-7.837 116.336-42.956 72-90zM2178 3897c-41.283-1.426-44.796 60.217-46 88 44.808 7.09 94.434-63.73 52-89zM2038 3923c-34.458-8.047-85.2 46.16-57.9 65 27.604.005 98.446-44.8 57.9-65z"/>
  <path d="M2110 3927c-34.467 5.097-94.922 56.302-33.7 64.2 33.214 13.565 65.825-62.352 33.7-64.2zM1922 3953c-41.965 2.273-76.632 88.656-20.5 75 14.987-19.452 50.065-56.599 20.5-75zM2030 4005c-47.041-11.45-48.94 81.644-5 45 17.779-9.193 51.409-49.11 5-45zM1942 4025c-55.247-3.311-88.938 105.49-16.5 63 12.034-6.774 42.727-62.505 16.5-63zM1964 4097c-39.769 6.936-90.686 31.677-58 78 32.367 6.17 124.413-10.276 79-55-1.475-7.053-10.542-24.752-21-23zM2354 4148c5.11 7.175 5.11-7.175 0 0zM2379.3 4175.6c-44.441 107.04 91.11-83.597 24.7 22.9 5.096-13.6-10.074-38.936-24.7-22.9zM2452 4251c-14.125 13.203 18.073 3.342 0 0zM2464 4263c2.555 3.588 2.555-3.588 0 0zM2572 3783c2.555 3.588 2.555-3.588 0 0zM2473.3 3801.5c-4.756 14.962 12.2-4.096 0 0zM1602 3862c-22.523 19.733 21.236-1.353 0 0zM1459 3908c-46.009 11.665-1.502 32.728 11-2h-4.8zM1320 3963c-27.503 4.523-69.552 58.088-16.4 35 .735-14.642 51.636-27.843 16.4-35z"/>
  <path d="M1266.3 4004.5c-6.378 31.284 19.967-6.206 0 0zM2018 4921c-23.351 18.459 18.168-4.184 0 0zM2188.3 5276.5c-11.22 26.67 36.627.99 0 0zM2446 5193c2.555 3.587 2.555-3.587 0 0zM2278 5590c1.89 7.03 4.934-4.763 0 0zM1256 2275c2.555 3.588 2.555-3.588 0 0zM1274 2282c2.414 6.951 2.414-6.951 0 0zM1252 2284c1.89 7.03 4.934-4.763 0 0zM2746 2325c-25.813 7.93 20.198 9.789 0 0zM2754 2331c-16.746 12.947 32.944-4.53 0 0zM2800 2353c19.688 29.13 7.699 3.81 0 0zM3186 2365c2.555 3.588 2.555-3.588 0 0zM3227.3 2477.5c-3.955 23.394 23.272-4.917 0 0zM3560 2511c2.555 3.588 2.555-3.588 0 0zM1714 2545c2.555 3.588 2.555-3.588 0 0zM2792 2705c2.555 3.588 2.555-3.588 0 0zM2562 2735c2.555 3.588 2.555-3.588 0 0zM2064 2757c2.555 3.588 2.555-3.588 0 0zM2812 2764.6c5.938 9.454 3.857-1.65 0 0zM2820 2765c2.555 3.588 2.555-3.588 0 0zM3456 2775c2.555 3.588 2.555-3.588 0 0zM2730 2855c2.555 3.588 2.555-3.588 0 0zM2784 2877c-15.257 12.869 15.865 2.306 0 0zM2853 3015.7c-1.207 10.61 20.026 1.784 0 0zM2248 3139c2.555 3.588 2.555-3.588 0 0zM2937.3 3259.5c-2.503 13.73 11.098-1.765 0 0z"/>
  <path d="M2936 3271c4.959 10.538 4.959-10.538 0 0zM2410 3373c2.555 3.588 2.555-3.588 0 0zM3023.3 3713.5c-1.638 6.687 6.905-2.26 0 0zM3030 3721c2.555 3.588 2.555-3.588 0 0zM2886 3803c2.555 3.588 2.555-3.588 0 0zM3040 4009c2.555 3.588 2.555-3.588 0 0zM4170 4509c2.555 3.588 2.555-3.588 0 0zM1692 4592c2.414 6.951 2.414-6.951 0 0zM1628 4883c2.555 3.588 2.555-3.588 0 0zM1444 5129c2.555 3.587 2.555-3.587 0 0zM746 5279c2.555 3.587 2.555-3.587 0 0zM1160 5769c2.555 3.587 2.555-3.587 0 0zM3756 5946c7.089 14.365 1.054-13.046 0 0z"/>
</svg>