<svg xmlns="http://www.w3.org/2000/svg" version="1.0" viewBox="0 0 1099.549 1077.501">
  <path d="M540.088.68c-1.7.6-4.1 2.2-5.3 3.7-1.9 2.4-2.1 3.8-1.9 10.8.3 7.8.3 8.1-3.4 13.1-2.1 3-3.7 6.3-3.7 7.9 0 3.9 2.7 7.9 7.2 10.6 6.1 3.7 8.4 5.7 7.5 6.5-.4.4-2.4-.2-4.5-1.5-6.6-3.9-14.4-7.1-17.4-7.1-7.1 0-10.3 5-9.3 14.5.9 7.7 1.9 9.3 12.5 19 9.7 8.9 11.4 11 10.6 13.1-.8 2.1-3.8 1.1-10.1-3.1-12.1-8.2-22.2-8.8-26-1.6-2.8 5.6-1.4 11.8 4.3 18.3 2.4 2.7 3.1 4.4 3 7.2-.2 4.6 3.4 8.6 11.2 12.3 12.2 5.9 16.9 10.7 15.6 15.9-.7 2.8-2 2.9-11.1 1.2-7.3-1.3-11.2-.2-14.5 4-4 5-1.1 12.2 7.1 17.7 6.7 4.4 9.9 7.6 12.1 12 1.1 2.2 3.1 5.4 4.4 7.2 3 4 3 5.7-.1 7.7-1.4.9-2.5 2.4-2.5 3.3 0 2.6 4.6 9.6 7.9 12.1 1.7 1.2 3.8 3.6 4.6 5.2 1.5 2.8 1.4 3.3-1 8-1.4 2.7-2.5 5.4-2.5 6 0 .6 1.6 5.1 3.5 10 4.1 10.5 4.5 16.5 1.5 19.8-1.2 1.2-2.4 2.2-2.9 2.2-4.9 0-49 7-59.9 9.5-3.5.8-6.5 1.5-6.7 1.5-.2 0-.5-18.3-.8-40.8-.3-22.5-1-42.9-1.6-45.7-.6-2.8-1.3-6.8-1.7-9.1l-.6-4.1 9.1-4.7c10.2-5.3 10.3-5.5 3.8-12.4-4.2-4.3-6-4.3-5.1.3.6 3.3.4 3.6-3.1 5.1-7.2 3-7.7 2.4-10.1-11.6-2.7-16.2-3.3-18-11.4-33.5-15.8-30.6-36.8-60.3-41.8-59.3-.8.2-2 2.1-2.6 4.3-1.3 4.5-4.6 6.8-8.6 5.8-4-.9-11.2-4.8-24.1-12.9-14.8-9.3-30.3-16.8-38.9-19-7.3-1.8-20.7-2.2-23.5-.6-1.7.9-1.4 1.2 2.1 3 5.4 2.8 9.8 7.7 12.8 14.2 3.8 8.1 4.8 14.7 4.4 28.4-.3 11.7-.4 12.4-3.3 16.7-1.6 2.4-3.3 4.9-3.7 5.5-.5.8.8 2.1 3.5 3.7 10.1 6 18.6 18.4 22.3 32.7 2.4 9.3 1.5 26.4-2.1 38.5-4.2 14.4-9.3 22.1-16 24.2-4.2 1.4-3 2.5 4.6 4.5 19.6 4.9 36 18.1 51.4 41.3 14.2 21.3 21.5 37.4 21.5 47.4v5.9l-11.2 6.9c-6.2 3.7-16 10.3-21.8 14.7-5.8 4.3-11.1 7.9-11.9 8-.8 0-3.4-2.8-5.9-6.4-7.6-10.9-22.6-29.2-29.3-35.6-6.5-6.1-18.5-15-29.4-21.7-6.6-4.1-26-12.3-31.3-13.3-3.2-.6-3.2-.7-1.6-2.5s1.6-1.9-.1-1.9c-1.4 0-1.5-.3-.5-1.5 1.1-1.3.7-1.5-2.4-1.5-3.2 0-3.6-.3-3.6-2.5 0-3.4 2.4-4.1 6.8-2l3.7 1.7-2-2.2c-3.6-4-5.1-4.2-8.4-1.4-2.4 2-3.1 2.2-3.1 1 0-2-2.6-2-6.4-.1-3.6 1.9-5 1.9-10.4-.2-4.8-1.8-4.7-1-1.8-11 1.2-4.3 1.3-7.1.4-15.5-.5-5.7-.8-14.4-.6-19.3.4-8.1.9-10 5-19 5.6-12.3 6.3-15.3 4.5-19.6-3.5-8.4-11.3-13.8-19.9-13.9-8.6 0-22.2 3.6-34.8 9.3-7.7 3.4-20.6 6.5-33 7.8-12.1 1.2-25.8 4.2-29.8 6.4-14 8-30.3 30.4-35.7 49-2.2 7.5-1.6 20.8 1.4 31.5 5.5 19.3 7.2 27.1 8.6 40.8 1.9 17.2 3 21.2 9.6 34.7 6 12.4 9.8 17.2 14.4 18.1 7.4 1.4 13.6-2.5 23.8-14.7 4.5-5.3 6.9-7.2 13.2-10.3 4.3-2 10.3-5.6 13.4-8 9.4-7.3 24.7-22.2 30.1-29.6 2.9-3.9 5.9-7 6.8-7 2.2 0 13.8 5.5 14.6 6.9.4.6-.8 1.8-2.8 2.8-4.3 2-4.7 3.5-.7 2.7 2.3-.5 3.2-.2 4 1.5.7 1.2 1.7 2.1 2.4 2.1.7.1 2.8 1.4 4.7 3 4 3.5 5.5 3.7 7 1 1.5-2.8 4-2.5 11.3 1.1 13.9 7.1 29.9 18.9 43.3 32.3 12.7 12.8 13.2 13.4 19.7 26.4 3.7 7.3 6.7 14.3 6.7 15.5 0 2.7-1 4.2-11.5 17.2-4.4 5.5-9.9 13.1-12.1 17-7.1 12.1-19.1 34.6-23.9 44.7-2.6 5.4-5 9.8-5.5 9.8s-1.2-2.1-1.5-4.8c-.4-2.6-1.2-6.5-1.9-8.7l-1.3-4-10.9-.6c-8.4-.5-12.3-1.3-16.8-3.2l-5.9-2.4-6.9-21.4c-3.8-11.8-8.4-27.2-10.3-34.3-2.6-9.9-4.1-13.6-6.2-15.8-3.8-4-17.3-10.4-25.9-12.3-3.8-.9-9-2.2-11.5-3-6-1.9-16.5-1.9-21.9 0-2.4.8-8 1.9-12.5 2.4-9.1 1.1-16.6 4.1-23.3 9.6-2.7 2.1-5.4 3.5-7.1 3.5-3.5 0-8.7 3.5-18.5 12.3-5.4 4.9-7.6 7.5-7.6 9.2 0 1.6-1.2 3.3-3.5 5.1-4 3-14.5 16.5-17.6 22.7-1.6 3.1-2 5.1-1.5 8.5.6 4.2.4 4.7-3.3 8.3-6.9 6.6-10.7 23.4-7.6 33.2 1.6 5 1.6 5.7.1 8.5-1.2 2.3-1.6 6-1.6 13.7v10.6l5.1 5.4 5 5.3-.7 7.1c-.6 6.4-.4 7.6 2.1 12.6 1.6 3.4 4.7 7.3 8 10.1 4.6 4 5.4 5.2 5.9 9.2 1 7.6 5.3 14.3 11 17.4 3.3 1.7 6.1 4.4 8.5 7.9 6.1 8.9 11 11.5 31.9 16.9 7.4 1.9 9.1 2 15 1 3.7-.6 9.6-2 13.1-3.2 6.1-2 7.4-3 21.5-17.3 15.3-15.4 36.1-33.1 42.3-36 3.2-1.5 3.6-1.5 6.6.3 1.8 1 4.5 2.2 5.9 2.5 1.5.4 5 3.4 8 6.6l5.3 5.9 5.8-6.4c3.2-3.5 6.4-6.4 7-6.4.9 0 1.2 7.6 1.2 28.7 0 18.4.5 32.9 1.4 40 .7 6.2 1.1 11.9.7 12.8-.5 1.4-.8 1.4-3.5 0-2-1-5.8-1.5-11.1-1.5-4.8 0-9.5-.6-11.5-1.4-3.8-1.6-4-1.5-2.5 1.5 1.2 2.2.7 2.4-2.1.8-1.1-.6-2.5-.8-3.2-.6-.7.2.8 1.5 3.3 2.8 4.3 2.3 4.4 2.4 1.7 2.7-1.5.2-5.2-.8-8.3-2.2-6.7-3.1-14.2-3.4-24.9-1-3.8.9-9.9 1.7-13.5 1.8-5.3.2-8.1.9-15 4.3-10.3 4.9-11 5.1-28 6.3-7.4.5-16.7 1.7-20.6 2.6-7 1.7-7.1 1.7-18.9-.9-6.5-1.5-12-2.5-12.3-2.2-.9.8 1.5 2.9 10.7 9.5 5 3.6 9.1 6.8 9.1 7.2 0 .4-2.6-.4-5.7-1.8-13.3-6-18.5-6.6-19.8-2.4-.3 1.1-1.4 2.4-2.3 2.9-2.1 1.1-18 5.1-20.1 5.1-4.5 0-18.1 9.6-18.1 12.8 0 .8-.7 1.1-1.7.8-2.7-.8-9.2 1-12.4 3.3-1.9 1.4-4.3 2.1-7.6 2.1-5.3 0-12.3 1.6-12.3 2.9 0 .4-1.4 2.9-3.1 5.5-4.8 7.2-2.6 7.8 5.6 1.6 5.1-3.8 8.1-5.4 11.9-6 2.8-.5 7.6-1.9 10.6-3 5.7-2.2 11.9-2.2 14.7.2 1.8 1.4 1.6 3.1-.2 2.4-2.1-.8-1.9.4.8 3.3l2.2 2.5-3-1.9c-1.6-1-4.1-2.5-5.4-3.4-1.8-1.2-2.6-1.2-2.9-.3-.2.6-1.3 1.2-2.4 1.2-1.5 0-1.8.4-1.3 2.1.7 2 .5 2.2-2.9 1.6-2.9-.5-4.2-.1-6.7 2-2.6 2.2-3.4 2.4-5.5 1.4-3.4-1.5-4.4-1.4-4.4.5 0 .8-1.3 2-3 2.5-4.3 1.6-3.7 2.9 1.4 2.9 2.5 0 4.8.6 5.5 1.4 1.7 2 12.6 2.7 16.7 1 4.2-1.8 4.5-1.8 3.7.2-.5 1.5 0 1.6 4.8 1 3-.4 7.2-.9 9.4-1.1 2.2-.2 5.1-.5 6.5-.7 2.1-.3 2.4.1 2.2 2.1-.4 2.4-.3 2.4 2 .8 4.7-3.5 6.8-4.2 8.9-2.9 1 .7 2.6 1.2 3.4 1.2 1.7 0 2.1 2.5.5 3.5-2.5 1.5-.5 2.5 5.3 2.5 7.5 0 12.6-1.3 15.7-4 3.6-3.1 8-2.4 4.8.8-.6.6-.9 1.4-.6 1.8.4.3 2.6-1.3 5.1-3.5 5-4.7 6.7-5.3 4.3-1.6-.9 1.4-2.1 3.7-2.7 5.3-.9 2.4-.5 2.2 3.5-1.8 7.2-7 6-1.9-1.7 7.1-9.3 10.9-14.3 15.1-17.4 14.7-3.5-.4-5.2-3.2-3.5-5.8 1.3-2.1 1.7-6 .6-6-.4 0-3.6 2.5-7.3 5.6-6.5 5.6-6.6 5.6-11.6 5-2.7-.3-7.9-.6-11.4-.6-5.6 0-6.2-.2-5.6-1.8 2.8-6.6 2.9-7.2 1.7-8.4-.9-.9-2.6-.5-7.6 2.2-6.3 3.4-6.5 3.4-8.5 1.6-2.7-2.5-2.7-7-.1-8.9 1.9-1.3 1.9-1.5.4-2.1-1-.4-4.8-.4-8.6 0-6.2.6-7.1.4-10.6-1.9-4-2.7-8.3-4.2-14.8-5.2-4.3-.7-5.9.2-4.9 2.7.6 1.5 13.8 8 20 9.9 5.2 1.5 6.9 2.9 5.5 4.3-.5.5-1 1.3-1 1.7 0 1.6 8.9 4.2 14.3 4.1 5.7 0 5.8.1 5.3 2.4-.9 3.6 2.1 4.7 9.4 3.4 6.3-1.1 7.9-1 22.7 2.1 12.4 2.6 15.9 2.5 19.9-.6 1.8-1.4 3.5-2.5 3.8-2.5.3 0-.4 2-1.6 4.5-3.1 6.4-1.5 7.3 5.2 3 7.3-4.7 13.2-6.5 24.7-7.4 8.1-.7 10.8-1.4 15.6-3.9 3.6-1.9 8-3.4 11.7-3.8 7-.8 6.1.1 20.6-20.8 5.3-7.7 9-12.3 9.2-11.3.2.9-2.5 7.3-6.1 14.2-4.2 8.3-5.9 12.5-5 12.5 4.1 0 16.5-7.2 23.8-13.8 4.4-4 8.5-7.2 9-7.2.6 0 3.7-2.7 7-6s6.7-6 7.7-6 3.1-1.8 4.6-4c1.5-2.3 6.1-8.7 10.2-14.3 6.6-8.9 8-10.2 10.8-10.5 2.5-.3 3.8-1.2 5.7-4.2 2.9-4.6 4-5.4 5.3-3.7.5.6 4.4 11.8 8.7 24.7 9.1 27.3 14.8 40 27.3 60 7.9 12.5 8.8 14.6 7.4 15.4-.9.5-4.1 2.4-6.9 4.4-4.3 2.8-5.4 4.2-5.9 7.1-2.2 12-13.9 19.8-31.5 20.8-6.6.4-9.2.2-11.6-1.1-1.7-.8-8-7-13.9-13.7-13.1-14.8-17.1-17.9-23-17.9-2.4 0-4.6.5-5 1.1-.3.6.8 3 2.5 5.2 1.8 2.3 4.5 6 6.1 8.1 5.8 7.6 3 9.3-7.4 4.3-4.1-1.9-12-6.5-17.7-10.1-11.2-7.2-14-7.9-15.7-4.2l-1.1 2.4-5.8-1.8c-11.5-3.5-25.3-3.5-25.3.1 0 .6 2.4 3.3 5.3 6.1 2.8 2.8 4.4 4.8 3.5 4.4-1-.3-4.1-.8-6.9-1.2l-5.2-.7.7 2.8.7 2.8-4.8-.7c-13.5-1.8-19.7-1.8-23.3.1-4.2 2.2-4.5 4.3-.7 6.1 2.2 1.1 2.6 1.8 2.1 3.9-.5 2-.1 3 2.2 5l2.9 2.4-3-.5c-13.3-2.4-21.2-2.8-25.9-1.5-2.7.8-4.9 1.8-5 2.4 0 .5 3.5 2.9 7.9 5.2l8 4.2-7.7.1c-7.2 0-7.8.2-9.6 2.8-1.3 1.7-3.6 3.2-6.4 3.9-2.3.7-5.2 1.9-6.3 2.7-1.9 1.4-1.8 1.6 3 3.7 2.8 1.2 4.6 2.3 4 2.5-10.9 2.9-12.5 3.6-12.5 5.3 0 2.7 3.6 4.6 11.5 6.1 3.9.7 7.4 1.5 7.8 1.7.5.3-2.7 2.9-7.1 5.9-4.4 2.9-8.3 5.8-8.7 6.4-.4.7.2 1.8 1.4 2.7 2.2 1.5 2.2 1.5-1.7 6.1-4.8 5.8-6.5 8.9-5.8 10.8.8 2.2 4.1 1.7 13.8-2.2 9-3.7 11.4-3.9 8.5-.6-1.4 1.6-1.5 2.2-.2 5.7.8 2.2 1.4 5.2 1.5 6.8 0 2.7 3 6.7 5 6.7.6 0 3.3-2.1 6-4.6 4.3-4 5.3-4.5 8-3.9 1.8.4 3.6.2 4.4-.4.9-.8 2.2-.4 4.7 1.5 2.7 1.9 4.4 2.4 7.9 2.2l4.5-.3-.3-8.7c-.4-10.4 1.1-14.7 8.8-24.3 11.6-14.6 35.3-30.7 45.5-30.9 3.3-.1 4.1.3 4.3 1.9.4 2.8-6 10-10.8 12.1-2.2 1-4 2.1-4 2.5 0 1.3 6.9 2.2 12.1 1.6 7.1-.9 12.8-3.7 19.4-9.7 3.1-2.9 8.5-7 11.8-9.1 5-3.3 6.9-3.9 11.2-3.9 5.6 0 13.9 2.1 19.8 5.1l3.7 1.9v11.3c0 8.6.4 11.8 1.6 13.5 2.4 3.5 5.1 2.8 7.5-2 1.2-2.4 5.3-8.1 9.1-12.8 6.1-7.4 7.9-8.9 14.1-11.8 3.9-1.8 8.9-5 11.2-7 2.2-2.1 8.7-6.2 14.5-9.2 5.8-3 12.2-7.3 14.4-9.4l3.9-3.9 4.3 4.9c2.4 2.7 4.2 5.3 4 5.9-.1.5-7.2 6.3-15.8 12.7-8.6 6.4-17.6 14.1-19.9 17-7.6 9.1-12.1 13-18.7 16.1-5.8 2.7-6.9 2.9-13.3 2.3l-6.9-.7v3c0 6.4 8.9 10.1 24 10.1h7.9l.8 3.7c.4 2.1.8 9.4.8 16.3 0 16.8-1 18.6-16 29.3-13.7 9.7-15.9 11.8-19 18.1-2.7 5.4-3.4 12.6-1.2 12.6 1.5 0 4.9-2.2 9.5-6.2 4.2-3.6 9.8-3.9 11.1-.6 2.4 6.3-12 23.8-24.9 30.3-8.2 4.2-18.9 6.9-27.5 6.9-11.6.1-14.5-2.2-18.1-14.5-.8-2.7-1.9-4.9-2.4-4.9-1.5 0-4.9 5-6.9 10.6-1.6 4.2-1.8 5.9-1 8.1 1.9 5.2 6.2 9.5 11.5 12 3 1.3 5.4 2.9 5.4 3.4s-3.3.9-7.4.9c-5.3 0-7.7.4-8.6 1.5-.7.8-2.9 1.9-5 2.5-5.3 1.4-6.7 3.3-4.6 6.4.8 1.4 3 3.3 4.7 4.3 2.9 1.7 3.1 2.1 2.7 6.4-.3 2.5-2.1 7.9-4.1 12-6 12.1-4.6 16.3 3.7 11.4 3.4-2 5.2-2.5 7.8-2 3 .6 4 .1 8.4-3.5 2.7-2.3 5.7-3.9 6.8-3.8 1.1.2 3.3 2.3 5 4.7 4.1 5.8 6 7 8.6 5.3 1.1-.6 3.5-1.2 5.4-1.2 3 0 3.9.6 6.6 4.5 1.7 2.5 3.9 4.9 5 5.5 4.8 2.6 8.8-.2 9.7-6.9.5-3.9.8-4.1 3.9-4.1 3.5 0 5.9-2.6 4.9-5.2-.3-.7.6-2.9 2-4.8s2.5-4.5 2.5-5.9v-2.5l2.2 2.2c1.2 1.2 3.1 4.1 4.2 6.4 3.7 7.7 8.5 4.5 8.6-5.7 0-5.6.5-6.7 3.7-8.4 1.5-.7 2.7-2.8 3.4-5.6 1.1-4.3 1.1-4.4 5.2-4.2 4 .2 4.2 0 5.4-3.7.8-2.2 1.6-7.3 2-11.4.6-7.1.7-7.5 3.6-8.5l3-1-.6-7.2c-.3-4-1.3-10-2.3-13.4-.9-3.4-1.5-6.4-1.2-6.6.2-.2 2.4.5 4.7 1.7 5.2 2.5 7.4 1.7 7.9-3 .2-2.2.9-3.2 2.8-3.6 3.5-.9 3.1-3.3-3.1-15.6-3-6-5.5-11.5-5.5-12.2 0-.6.8-2 1.7-3 1.5-1.7 1.5-2.1-.5-6.2-2.4-4.7-2.7-7.1-1.3-8.1 1.3-.7 11.4 9.2 13.5 13.3 2.1 4 4.1 4.1 6.1.2 3.1-6 1.4-11.9-6.6-22.1-2.4-3-5-6-6-6.6-.9-.7-3-3.4-4.5-6-2.5-4.2-2.9-5.8-2.9-12.3 0-10.5 2.4-15.3 10.6-21.5 5-3.8 7.6-5.1 11.9-5.7 5-.8 15.1-5 19.1-7.9 1.4-1.1 3.8.3 15 8.3 17.7 12.7 35.2 23.8 47.2 30 5.4 2.8 9.6 5.5 9.5 6-.2.6-4.6 2.6-9.8 4.6-5.2 2-9.7 4-9.8 4.4-.2.5-2.1 1.7-4.3 2.8-2.1 1.1-4.3 2.9-4.9 4-.6 1.1-3.3 3.1-6 4.5-2.8 1.4-5 2.9-5 3.4 0 .4-1 1.2-2.3 1.8-3.2 1.5-16.6 13.9-20 18.5-1.5 2.1-3.3 3.8-4 3.8-.6 0-2 1.2-2.9 2.8-3.8 6-9.3 13.1-16.6 21.5-4.2 4.9-8.5 10.5-9.6 12.5-1 2.1-4.5 7.3-7.6 11.7-5.4 7.5-7.3 11.3-13.3 27.5-1.3 3.6-4.3 10.2-6.6 14.7l-4.1 8.3v14.4c0 12 .4 15.9 2.4 23.6 1.4 5.5 3.1 9.7 4 10.2.9.5 1.6 1.7 1.6 2.7 0 .9 1.1 3.9 2.5 6.7 3 5.7 11 12.6 22.7 19.5 4.3 2.6 8.7 5.4 9.6 6.3 2.8 2.5 16.7 5.7 27.3 6.3 13.5.8 32.2-1.2 37.6-4 6.2-3.2 22.8-15.6 30.5-22.6 6.6-6.1 12.8-15.9 12.8-20.3 0-1 .8-3.3 1.7-5.1 1.5-2.7 1.8-6 1.8-19.7v-16.5l-3.2-4.5c-1.8-2.4-3.3-4.9-3.3-5.6 0-1.9-11.9-13.5-18.1-17.7-4.9-3.4-14.3-6.8-28.9-10.7-7.4-2-19.1-1.2-28.3 1.9-16.9 5.7-21.4 9.8-28.3 25.1-2.8 6.2-2.9 7.2-2.9 20.5v14l4.3 8.7c4.8 9.7 8.4 13.4 17 17.7 7.6 3.8 11.1 4.3 21.2 3.1 13.3-1.6 27-9.4 28.5-16 .4-1.7 2.5-5.7 4.7-9 4.8-7.2 4.7-9.4-1-20.7-3.5-7.1-3.7-7.3-9.6-9.3-10.6-3.6-17.9-2.2-25.6 4.7-7.8 7-11.5 17.7-7.4 21.7 2.4 2.4 3.9 2 9.4-2.9 7.5-6.7 13-5.9 13 1.9 0 4.9-8.9 10.6-16.7 10.6-2.5 0-8.5-6.4-11.3-11.9-1.9-3.9-2.1-5.3-1.5-12.7.7-7.4 1.2-9 4.4-13.6 5.3-7.7 10.6-10.1 22.5-10.2 11.3-.1 14.8 1.1 21.1 7.3 10.7 10.4 12.8 13.6 14 21.6 1.2 7.3.7 10.3-2.6 17.1-3.5 7.5-12.7 16.4-21.5 21.1-6.8 3.7-20.6 7.3-27.5 7.3-9.7 0-26.1-7.2-34-15-8.4-8.2-10.1-13.5-10.7-32.6l-.4-15.2 4.2-9.8c2.3-5.5 5-10.8 6.1-12 1-1.1 1.9-2.6 1.9-3.2 0-.7.7-2 1.6-3 .8-.9 5-6 9.4-11.2 4.3-5.2 9.2-10.4 10.9-11.5 1.7-1.1 5.6-4.8 8.6-8.2 12.2-13.7 42.8-33.3 69.6-44.5 7.5-3.1 16.3-6.9 19.5-8.5 3.3-1.7 7.5-3.6 9.4-4.3 1.9-.8 6.2-3.2 9.4-5.4l6-3.9 13 2.1c7.2 1.2 17.8 2.7 23.6 3.3 6.6.7 11.1 1.7 12.2 2.6 3 2.7 4.2 8.4 4.2 19.8-.1 12.9-1.6 18.4-9.8 34-6.4 12.2-23.7 39.7-28 44.5-1.8 1.9-3.9 4.8-4.7 6.4-2.2 4.7-11.1 13-14.8 14.1-6.2 1.8-8.9 8.6-6.8 16.8 1 3.7 6.4 6.1 11.9 5.2 2.9-.5 4.7-1.7 7-4.6 2.2-2.7 3.9-3.9 5.2-3.7 2.4.4 10 9.5 16.1 19.3 6.4 10.4 6.4 10.5.5 16.9-3.8 4.3-5 6.4-5 8.9 0 5 3.3 9.5 7.5 10.3 8.5 1.6 14.8-2.6 16.4-10.9.8-4.7 2.5-7.7 4.3-7.7 1.6 0 16.6 10.1 25.1 16.9 9.8 7.8 13.7 13.6 13.7 20.5 0 6.6 3.1 13 7.2 14.7 2.7 1.1 3.5 1 6.6-.7 4.8-2.6 7.3-6.3 7.9-11.5.4-3.6 0-5-2.1-7.8-1.4-1.9-2.6-4.6-2.6-6 .1-3.8 3.3-10.3 8.3-16.9 8-10.4 29.3-29.2 31.6-27.8.5.3 1.9 2.5 3 4.9 4 8 11.4 10.8 16.8 6.3 8.2-6.9 6.1-18.9-3.7-21.1-3.9-.8-7.6-5.5-14-17.4-2.9-5.3-7.8-14.1-10.9-19.5-3.1-5.5-7.2-12.9-9.1-16.5-2-3.6-6.5-11.5-10-17.5-6.8-11.7-13.7-26-17.7-36.6-3.4-8.9-4.4-25.9-1.9-32.5 1-2.5 2.1-4.5 2.6-4.5.4 0 6.1-.9 12.7-2 23.1-4 48-11.5 70.2-21.4 12-5.2 12.4-5.1 11.5 3.4-1.3 11.1-5.3 20.1-23.3 52-8.6 15.3-12.2 24.7-14.6 38.7-2.1 11.9-1.9 17 1.1 27.5 6.2 22.2 21 43.1 35 49.5 4.6 2.1 6.6 2.5 10.9 2 5.4-.5 16.9-5.7 17.8-7.9.7-1.7 2 0 7.5 9.9 5.8 10.6 21.2 29.4 30.2 37 12.9 10.8 33.9 22.2 44.8 24.3 6 1.1 15.1-1.2 18.7-4.8 10.1-10.1 10.5-55.4 1-110.5-2.8-16.3-6.5-33-7.1-32.4-.3.3.5 6 1.6 12.7 1.2 6.8 1.9 12.9 1.6 13.7-.4.8-2.2 1.3-5.3 1.3l-4.8-.1 3.3-1.4c1.7-.8 3.2-1.8 3.2-2.2 0-.4-1.2-5.6-2.7-11.5l-2.7-10.6-5.1-.7c-5.5-.6-10.4.6-10.6 2.7 0 .7-.5-.1-1-1.7-.5-1.9-2.5-4.3-5.2-6.2-6.3-4.4-16.9-17.3-14.2-17.3.3 0 4.1 3.4 8.6 7.5 11.3 10.4 22.8 15.6 24.5 11 .6-1.6-7.2-18.6-14.3-31-4.8-8.4-12.7-19.9-27.6-40-4.9-6.5-12.3-17.1-16.4-23.3-4.3-6.6-7.8-11.1-8.3-10.6-1 1 .7 8.8 4.5 19.9 2.5 7.6 4.3 17.1 2.6 14.5-.5-.8-3.2-8.5-6.1-17-2.9-8.5-6.4-17.7-7.8-20.3-2.3-4.4-2.4-4.9-1-6.4 2.9-2.9 6.3-.7 15.1 9.5 12.8 14.8 40.7 53.1 47 64.3 1 1.7 2 2.9 2.3 2.6 1-1-4.3-10.1-12.3-21.2-4.3-6.1-9.8-13.8-12.2-17.3-2.3-3.5-10.6-14-18.3-23.4-7.7-9.4-14.2-17.6-14.4-18.3-.3-.6 3.5-4.3 8.3-8.2 15.7-12.6 34.8-31.7 51.1-51.2 2.4-2.8 4.9-5.1 5.7-5.1 3.7 0 16.5 15.7 16.5 20.3 0 1.1.8 2.9 1.7 3.9 1.2 1.3 1.8 4.3 2.1 10.2.6 10.6-1.6 20.7-6.5 30.7-3.5 7-3.7 8-3.7 16.9 0 15 2.4 17.9 25.3 30 15.7 8.2 23.3 14.3 27.3 21.7 3.3 6 4.3 10.4 6.3 27.4 2 17.5 3.6 22.1 9.6 28.1 4.8 4.8 13.6 9.8 17.3 9.8 3.4 0 14.7 6.1 19.2 10.4 4.8 4.7 5.5 7.6 2.9 12.6-1.4 2.8-1.4 3 .3 3 .9 0 2.8-.7 4.1-1.6 2.2-1.6 2.3-2.2 1.9-10.8-.5-14.1-3.7-18.9-19.1-29.1-13.3-8.7-14.7-11.1-14.8-25.9 0-6-.7-11.5-2.1-16.1-1.1-3.9-2.1-8.6-2.1-10.6-.1-2.3-1.2-4.7-3.1-7-1.6-1.9-3.5-4.8-4.2-6.6-.8-1.7-3.5-4.6-6-6.5-3-2.1-5.3-4.8-6.5-7.5-1.1-2.7-3.4-5.3-6.5-7.5-4.7-3.3-6.3-4.9-13.8-13.4-3.5-4-3.8-4.8-3.4-8.9.3-2.6 1.7-6.2 3.2-8.3 2.6-3.8 3.6-10.2 1.6-10.2-.6 0-1.5 1.1-2 2.5l-.9 2.5-5.2-2c-7.3-2.9-10.9-4.9-10.9-6.1 0-1.4 6.3-3.9 9.8-3.9 1.6 0 4.6 1.1 6.6 2.5s3.9 2.5 4.1 2.5c.9 0 3.5-6 3.5-8 0-2.4-1.7-2.6-4.2-.3-1.7 1.5-2.3 1.5-9.3-.7-8.6-2.7-10.1-3.8-8.1-6.5 2.9-4 18.6-2.5 18.6 1.8 0 .8.4.7 1-.3 1.7-2.6 1.1-9.2-1.5-17.3-1.4-4.3-2.5-8.9-2.5-10.3 0-3-7-16.4-8.7-16.4-.6 0-1.4.9-1.8 2-.8 2.6-8.4 9-10.7 9-2.2 0-2.2.1-.1-5.2 2.3-6.1 5.1-9.8 7.4-9.8 2.3 0 2.4-.4.2-4.1-2.1-3.5-4.3-3.8-4.3-.6 0 6.1-11.5 13.1-13.4 8.1-2.1-5.5.6-17.4 3.8-16.1.6.3 2.8 1.2 4.9 2.1 5.9 2.6 4.3.2-2.3-3.3-3.8-2.1-6-3.8-5.9-4.9.1-2.7 5.4-10.7 7.3-11 1-.2 4.4.8 7.5 2.2 3.8 1.7 9 2.9 15.7 3.6 5.4.6 11.8 1.5 14.2 2 2.6.6 5 .7 6 .1.9-.5 3.9-1.2 6.6-1.6 7.3-1.1 26.4-10 31.1-14.6 9.9-9.5 13.7-12.1 16.9-11.5 34.2 6.1 71.7 4.6 81.7-3.3 1.4-1 4-2.6 5.9-3.5 1.9-.9 4.6-2.3 6-3.1 4.7-2.6 12.5-.1 30.8 10 5.5 3 7.3 3.5 13.1 3.5 3.8 0 8.3-.5 10.2-1.1 4.9-1.7 9.9-5.7 9.9-8 0-2.4-1-2.4-5.3.1-5.4 3.2-9.4 1.5-21.5-8.9-8.9-7.7-22.9-14.1-32.4-14.8-8.2-.7-12.9.4-26.6 6.3-13.7 5.8-21.9 7.8-30.3 7.1-9.2-.8-17.9-3.9-28.9-10.5l-9.5-5.7h-9.5c-10.5 0-7.3-1.2-33 12.1-7.8 4.1-14.4 6.7-20.5 8.1-10.5 2.5-21.5 3.7-23.2 2.5-1-.6-.3-4 2.8-14.3 6.9-23.1 10.7-39.7 13.3-58.9 1.4-10.2 2.8-19.9 3.1-21.6l.5-3.1 18.3-.8c30.4-1.4 30.9-1.3 44 10.5 13.9 12.5 17.1 12.6 17.9.6.2-2.2.9-4.1 1.6-4.4.8-.2 5 3.4 9.5 8.1 9.2 9.6 14 13 20.8 14.8 4.1 1.1 5.3 1 9.4-.5 2.6-1 5-1.4 5.5-1 .5.5 2 4.7 3.4 9.4 7.5 24.6 21 33.9 48.9 34 10.1 0 10.9-.1 13.2-2.5 1.4-1.3 2.5-3.3 2.5-4.3 0-2.6-7.3-5.7-20.5-8.6-11-2.4-16.8-5.4-20.6-10.7-3.8-5.4-1.7-6.9 9.6-6.9 8.8 0 14-6.2 7.8-9.3-1.6-.8-6.6-1.8-11.3-2.1-9.7-.8-16-2.2-16-3.6 0-.6 1.5-1 3.4-1 3.8 0 6.1-2 5.2-4.7-.4-1-2.7-3-5.1-4.5-3-1.8-4.5-3.4-4.5-4.8 0-1.1.4-2 .8-2 1.2 0 8.3 5.2 10.1 7.3 1.1 1.4 3.2 1.7 10.5 1.7 5.1 0 10.9.6 13.1 1.4 2.2.8 6.8 1.7 10.2 2.1 8.2.9 11.8 3.5 16.3 11.4 7.6 13.3 11.1 15.8 26.5 18.1 8.9 1.4 14.5-.1 15.9-4.2 1.4-4.1-1.1-6.9-10.6-11.8-10.2-5.2-12.2-7-15.2-13.4-1.3-2.8-3.6-6.7-5-8.6-2.2-2.9-2.4-3.6-1.2-4.8 1.8-1.8 7.9-3.1 14.6-3.2 6 0 10-2 10-4.9 0-4.9-11.9-10.1-23.3-10.1-6.5 0-7.5.3-12.2 3.6-5.7 3.9-13.1 5.6-14.5 3.4-.5-.8.8-4.3 3.3-9 4.3-8.4 4.4-11 .2-11-5.4 0-11.6 5.1-15.3 12.6-2.2 4.4-6.8 8.8-10.2 9.9-1.4.5-3.5-.4-6.9-2.9-2.7-2-6.3-3.9-8-4.2-1.7-.4-3.1-1-3.1-1.5 0-1.1 2.3-1.7 11-2.9 8.8-1.3 10.6-2.5 8.9-6.2-1.8-4-8.1-6.3-16.9-6.3-6.9.1-8.4.5-18.5 5.2-6.1 2.8-13 5.5-15.5 5.8-2.5.4-6 1.3-7.9 2.1-4.4 1.8-6.9 1.8-12.2-.3-3.2-1.2-7.9-1.6-17.1-1.7-11.2-.1-13-.3-15.5-2.2-3.5-2.6-4-5-1.6-7.6 2.6-2.9 10.7-2.1 19.8 1.9 11.7 5.2 21.5 5.3 20.2.3-.7-2.6 1-3 13.7-3h11.3l11.4-5.4c13.6-6.5 17.4-7.6 27.1-7.9 6.9-.2 7.7.1 14.9 4 10.3 5.7 15.5 6.9 22.4 5.4 5.7-1.3 10.5-4.3 10.5-6.6 0-.7-1.9-2.4-4.2-3.7-2.4-1.3-4.4-3.1-4.6-4.1-.5-2.5 4.6-2.2 14.9.8 4.6 1.3 9.6 2.5 11 2.5 2.8 0 8.6-3.4 10.2-6.1 2.8-4.5-4.5-13.6-12.9-16-8.6-2.4-19.7-1.5-31.8 2.5-5.8 2-11.5 3.6-12.6 3.6-2.4 0-2.6-2.2-.5-4 1.8-1.5 1.9-4.2.3-5.8-3.3-3.3-15.8 1.5-31.8 12.2-11.5 7.8-18.7 11.4-27.9 13.7-8.8 2.3-25.4 3-27.2 1.2-2.2-2.2.9-4.1 13.9-8.4 16.1-5.2 22.5-8.2 25.7-12 3.1-3.8 2.2-6.2-3.1-7.9-3.3-1.1-4.2-.9-13.1 3.4-10.3 5-12.1 5.4-13 3.1-1.5-4.1 8.9-9 22.1-10.5 4.3-.5 9.5-1.8 11.5-2.8 4-2.1 7.5-7.1 6.6-9.4-.7-1.7-4.7-3.8-7.4-3.8-.9 0-2.6-.6-3.7-1.4-1.8-1.4-1.8-1.6 1.6-5.1 5.2-5.5 9.9-7.5 17.2-7.5 7.2 0 14.7 3 18.8 7.5 3.5 3.8 7.5 5.7 10.5 4.9 2.1-.5 2.8-1.7 4.2-6.4l1.6-5.8 6.1-.7c14-1.5 23.5-5.5 25.1-10.5.9-2.9-1.8-6.6-6.6-9.1-4.6-2.3-9.5-2.1-23.2.7-8.3 1.7-7.7 1.7-7.7 0 0-.8 2.9-4.1 6.5-7.3l6.5-5.8-3.7-2.9-3.6-2.9-3.4 1.8c-1.9 1.1-5.8 4-8.8 6.6-5.4 4.7-8.4 5.9-23.8 8.9-3.2.6-9.5 2.9-14.1 5.1-4.6 2.1-8.9 3.9-9.5 3.9-.7 0-1.1-2-1.1-4.9 0-6-2-8.6-5.9-7.6-5.9 1.5-9.8 7.5-11.2 17.4-.5 3.6-2.2 9.3-3.9 12.6-2.8 5.8-11.9 17.6-20.3 26.3-6.4 6.7-11.7 8.8-11.7 4.7 0-4.5-6.1-1.6-12.6 6-8 9.2-7.1 8.9-30.9 9.5l-21 .5-6.8 3.8c-4.8 2.7-6.8 3.4-7.1 2.5-.3-.7-1.4-7.3-2.6-14.6-1.2-7.3-3.4-17.7-5-23-1.6-5.4-3.8-14-4.9-19.1-2.4-10.9-3.4-9.1 9.2-16.6 4.3-2.6 10.1-5.5 13.1-6.5 2.9-1.1 8.6-3.7 12.8-6 15.6-8.4 28.6-11.4 56.3-13 34.7-2 75.3-10.4 89.2-18.6 12.4-7.2 28.6-23.9 38.8-39.9 3.7-5.7 12.9-24.3 13.9-28 .7-2.6-.8-4.9-2.8-4.2-.8.3-3.4 4.3-5.7 8.9-8.8 17.6-18.1 30.1-24.5 32.9-2.3 1.1-6.1 3.5-8.4 5.4-5.2 4.3-7.5 4.4-9.5.5-1.7-3.2-3.6-3.7-8.1-1.9-4.2 1.5-7.3.3-8.9-3.5-1.5-3.5-3.1-4.6-6.8-4.6-3.6 0-9.4-1.9-11.8-3.9-1.6-1.3-2.4-3.3-2.8-6.7-.6-4.8-.7-4.9-3.8-4.6-4.1.4-9.7-2.2-11.9-5.5-.9-1.4-1.8-4.7-1.9-7.2-.3-4.5-.4-4.6-4.7-5.9-6.1-1.7-8.5-4.6-10.1-12.2-1.2-5.9-1.6-6.5-5.2-8.5-6.8-3.5-9.6-9.4-7.2-15.5.4-1-.8-2.5-3.6-4.5-5.7-4.2-7.3-7.5-5.3-11.3 1.4-2.8 1.4-3.1-1-5.3-4.6-4.3-6.7-9.6-6-15.3.6-4.8.4-5.6-3.5-11.6l-4.1-6.4 2.1-4.3c2.4-5 2.6-8.8.6-12.3-2.6-4.5-1.9-8.5 2-11.4 2.9-2.2 3.3-3.1 2.9-5.5-.8-3.9 3.9-9 11.8-12.8 3.5-1.7 8-4.5 10.2-6.2 5.1-4.1 8.5-4.9 25.6-6.2 16.5-1.2 18.3-1.6 15.8-3-4-2.2-12.4-2.9-22.3-1.9-30.4 3.3-69.5 14.6-87.2 25.1-14 8.4-25.3 22.8-44.3 56.9-13.6 24.3-21 35-31.7 45.6-14.5 14.4-34.5 28.4-40.8 28.4-.9 0-4.9-2.6-8.8-5.8-4-3.3-13.4-10.5-20.9-16.1-7.6-5.6-13.8-10.6-13.8-11 0-1.5 5.7-6.1 9-7.2 4.4-1.5 10-5.6 10-7.3 0-1.9 4.1-5.4 7.3-6.1 1.5-.4 5.5-2.5 9-4.8 3.4-2.2 9.2-5.5 12.9-7.3 3.6-1.9 6.9-3.8 7.2-4.3.4-.5 2.6-1.9 5.1-3.1 4.5-2.2 12.5-10.2 12.5-12.5 0-.7 3.7-5.3 8.1-10.2 11.6-12.5 29.3-33.5 35.9-42.4 6.8-9.1 17.7-27.9 21.5-36.9 7-16.5 13.7-41.6 15.5-58 1.6-14.9-.7-28.6-6.8-40.6-2.7-5.3-4.9-7.1-7-5.7-1.4.9-1.6 3-1.3 16.6.3 18.1.6 17.7-8.5 12.2-5.9-3.6-8.7-4.2-11.4-2.5-1.6 1-1.7.8 3.2 7.7 6.7 9.4 5.6 21.8-2.7 31.1-5.6 6.2-11.5 9.2-18.1 9.2-7.5 0-8.6 1.2-4.7 5.2 4.5 4.6 8.7 14.3 8.7 19.9 0 15-24.2 39.9-47.6 48.9-4.5 1.8-10.6 3.4-13.5 3.7-4.9.5-5.2.4-5.8-2-1-4 .8-6.1 11.3-12.5 5.4-3.4 10.5-6.8 11.2-7.7 1-1.2 1.2-6.5.8-25.1-.4-14.5-1-24-1.6-24.6-1.3-1.3-1.9 1-2.5 10-.3 3.4-1.1 7-1.8 7.8-1 1.2-1 3.4 0 11.2 1.6 11.7 1.1 13.2-6.1 20.8-5.9 6.3-14.1 10.8-16.9 9.3-2.7-1.4-5.9-6.4-5.9-9.1 0-1.2 1.4-4.3 3-6.7 3-4.4 3.8-7.5 2.1-8.6-.5-.3-1.5 1.1-2.1 3-1.1 3.3-3.5 5.5-5.9 5.5-1.9 0-2.3-4.6-.7-8.3.8-2 1.1-3.9.7-4.2-1.3-.7-3.8 2.7-4.5 6.1-.4 1.7-1.8 4.1-3 5.3-2.3 2.1-2.7 2.2-10.2 1.1-4.3-.6-8.2-1.4-8.6-1.8-.5-.5-.3-3.2.3-6.1 1.1-5.1.8-11.7-.6-17.5-1-3.6.8-5.1 12.3-10.7 8.5-4.1 9.8-5.5 6-6.1-3.4-.5-2.7-1.9 3.1-5.9 6.5-4.5 11.1-8.9 11.1-10.6 0-.7-.4-1.3-.8-1.3-2.6 0-12.4 8-24.5 19.9l-13.7 13.6 1 11c.6 6 1.5 12.5 2.1 14.4 1 2.9.9 3.6-1 5.5l-2.2 2.1-2.8-3.1c-5.1-5.6-7.3-13.4-7.9-26.9-.5-14.2.6-20.5 5.3-30.3 6.9-14.4 12.6-18.4 31.8-22.2 3.1-.6 5.7-1.6 5.7-2.2 0-.6-3.4-4.3-7.5-8.3-7.2-6.8-7.5-7.3-7.5-11.7 0-3.4.7-5.5 2.8-8.4 3.1-4.2 11.3-12.1 15.3-14.7 7.9-5.2 23.5-7.5 28.5-4.2 5 3.2 5.9-.9 1.7-7.3-1.6-2.2-4.7-5.7-7.1-7.7-3.6-3.2-4.1-3.9-3-5.3 1.9-2.2 14.2-7.8 22.6-10.1 8.6-2.4 9.2-2.7 9.2-5 0-4-2.4-4.6-13.7-3.2-14.5 1.8-25.1 4.5-32.5 8.2-17.9 9-58.8 59.5-70.3 86.9-6.3 14.8-11.2 34.6-12.4 49.3-.4 5.3-1.1 10-1.4 10.3-.3.4-2-.5-3.7-2-3.8-3.1-4.1-3.1-7.1-.7-2.3 1.8-2.4 2.6-2.4 12.8 0 10.3-.2 11.1-3.5 17.8-3.4 6.9-3.4 7.2-3.5 20 0 11.1.3 13.5 2 16.5 2.4 4.3 3.4 22.6 1.6 30.5l-1.2 5.1-12.2-3.3c-19.3-5.3-28.1-7.1-49.2-9.8-11-1.4-20.1-2.8-20.4-3.1-1.2-1.2 4.7-10.3 10.4-15.9 4-4.1 8.8-7.5 14.5-10.4 14.3-7.3 26.7-14.9 28.9-17.7 2.7-3.5 1.4-5.9-4.5-8.6-2.5-1.1-4.8-2.6-5.1-3.4-.7-1.9 6.1-9.1 14.3-15 4.7-3.3 6.9-5.9 9.5-10.6 3-5.7 3.4-7.3 3.7-15.8.4-11.7-.7-14.4-5.9-14.8-3-.3-4.5.5-9.3 4.4-5.4 4.3-8.5 5.4-5.5 1.8 2-2.4 12.4-9.3 17.4-11.5 7.5-3.3 9.8-10.5 5.2-16.3l-2.4-2.9 3.5-8.1c4.2-9.7 5.2-16.5 2.7-18.9-3.1-3.1-10-1.5-16.1 3.6-6.1 5.1-6 2.4.1-5.8 2.5-3.3 4.5-6.2 4.5-6.6 0-.3-1.6-2.6-3.6-5.1-3.5-4.6-3.5-4.6-2.5-10.4 1.6-8.3 1.4-18.7-.4-23.2-2.9-7.1-11.2-9.4-17.5-4.7-1.9 1.4-4.4 2.5-5.6 2.5-1.9 0-2.3-.9-3.3-7.3-2.1-12.5-4.3-17.9-8-20.4-4.7-3.2-7.2-2.9-12.7 1.3-4.5 3.4-4.8 3.5-6.1 1.8-.7-1-1.3-2.7-1.3-3.7 0-8.2-18.2-16.9-28.7-13.7zm15.3 5.1c3.3 2 5.9 5.6 9.8 13.3 2.8 5.5 6 5.9 12.7 1.6 2.7-1.8 5.5-3 6.3-2.7 2.3.9 6.7 9.3 7.3 13.7.4 3 .1 4.5-1.2 6-2.6 2.9-4.4 8.9-4.5 14.8v5.4l3.3-.7c9.9-2.2 28.2-10 28.2-12.1 0-1.9-4.5-1.4-9.4 1-2.8 1.4-5.6 2.6-6.3 2.6-.7-.1.3-.9 2.3-2 1.9-1 4.1-2.6 4.8-3.4 2-2.4 6.8-2 9.6.9 2.1 2 2.5 3.3 2.5 8.7 0 3.5-.5 10.1-1 14.8l-1 8.5 3 2.7c1.6 1.5 3 3.5 3 4.4 0 1-1.7 4-3.9 6.8-2.1 2.8-4.4 6-5 7.1-1.1 1.7-1.2 1.6-.7-1.4.4-1.9 1.3-4.3 2.2-5.2 1.5-1.7 1.2-3.9-.6-3.9-2.9 0-20 17.7-20 20.7 0 3.5 20.1-1.4 28-6.7 6.8-4.7 9.7-6 11.4-5.4 2.6 1 1.9 8.1-1.4 15.9-3.7 8.5-3.7 10.9-.4 14 4.1 3.8 2.8 6.2-6.2 11.5-7.9 4.6-18.4 13.3-18.4 15.3 0 1.4 3.1 4.7 4.5 4.7.6 0 4-2.5 7.5-5.5l6.5-5.5 2.2 2.5c1.2 1.4 2.5 4 2.8 5.9 1.4 7-4.9 23-10.3 26.3-1.1.6-4.6 3.3-7.8 5.9l-5.9 4.7 7.1-7.4c7.2-7.4 10.4-11.6 10.4-13.3 0-4.1-48.4 12.5-57.3 19.7-3.4 2.6-4.6 7.5-4.7 18.4 0 8.5 0 8.5 9.3 4.8 7.7-3.2 19.3-6.2 27.3-7.1 6.4-.7 13.4.8 13.4 2.8 0 2.2-7.4 7.6-20.2 14.7-7.3 4-15.5 8.9-18.2 10.9-5 3.7-15.6 15.7-15.6 17.8 0 .6-.7 1.8-1.6 2.5-1.5 1.2-1.6 1.1-.9-1.1 1.9-6.3 3.8-9.4 8.7-14.4 6.4-6.4 19.1-15.9 30.6-22.9 7.7-4.7 10.2-7 9-8.3-1.3-1.2-40.6 10.2-44 12.8-1 .8-2.6 5.8-4.3 13.8-2.8 13-5.1 20-6.5 20-1.9 0-2-2.2-.6-8.2 1.8-8.1 3.4-19.2 4.1-29.2.4-6.5.9-8.1 2.8-9.6 2-1.6 2.2-2.9 2.5-12.5l.4-10.6-10.4-10.2c-6.8-6.8-12.2-11.2-15.8-13-5.7-2.7-17-4.8-17-3 0 .5 2 2.4 4.5 4.2 2.5 1.8 5.4 4.9 6.4 6.9 2.4 4.6 6.4 8.4 11.6 11 5.2 2.6 9.8 7.5 9.3 9.9-.2 1.3-1.9 2.2-6.1 3.2-3.1.7-5.7 1.7-5.7 2.2 0 .4 2.9 2.2 6.5 3.9 3.6 1.7 6.9 4 7.5 5 1.4 2.6.2 2.6-5.5-.2-3.9-1.9-4.9-2-6.6-.9-1.9 1.1-2.5.8-6.6-3.4-2.4-2.6-4.3-5.4-4.1-6.2.2-.9 1.9-2.2 3.8-2.8 1.9-.6 3.6-1.9 3.8-2.8.2-.9-1.4-3.5-3.6-5.9-2.2-2.4-4.9-6.1-6-8.3-3-5.7-3.9-6.5-11.8-12.3-11.3-8.2-12.7-12-5.8-16.2 3.2-2.1 3.8-2.1 12.2-.9 4.9.7 9.6 1 10.5.6 2-.7 3.1-4.8 2.3-8-1.6-6.1-4.5-8.8-15-13.7-11.1-5.2-12.2-6.4-11.1-12.2.5-2.9.1-3.8-3.5-7.3-6.6-6.4-8.7-12.5-6-17.6 2.4-4.4 16.9-.9 23 5.6 3.2 3.4 1 3.2-6.5-.5-6-3-12.8-3.9-14-1.9-1.1 1.7.4 5.8 2.6 6.9 1.7 1 2.1.8 2.6-.9.7-2.8 2.5-2.6 10.8 1 4.2 1.8 10.1 3.4 14.7 3.9 4.3.5 8.6 1.4 9.7 2 5.7 3 6.6-.6 2.4-9.1-2.1-4-3.5-5.5-5.4-5.9-3.2-.6-19-14.9-23.2-20.9-4.1-5.9-4.8-12.5-1.7-16.4 1.2-1.5 3.1-2.7 4.4-2.7 1.2 0 6.6 2.3 12 5.1 10 5.1 13.1 5.7 15 2.7 1.5-2.4-.3-7-3.4-8.5-1.4-.6-4.3-2-6.5-3.1-7.2-3.4-8-10.3-1.6-13.7 4.7-2.4 5.5-4.7 4-11.9-.6-3.5-.9-7.5-.5-8.9 1.3-5.5 11.8-7.6 18.2-3.6zm203.9 19.8c-.3.5-4 3.4-8.3 6.4-10.4 7.3-16.7 13.7-20.2 20.8-1.6 3.1-3.4 6-4 6.4-.6.3-1.9 2.4-3 4.5-1.6 3.1-2.6 3.9-5.2 4.2-3.1.3-3.3.6-3.8 4.8-.3 2.5-1.2 5.5-2 6.6-1.2 1.9-1.1 2.8.3 6.6 1.8 4.6 8.1 11.7 9.4 10.4.4-.4.2-1.5-.5-2.4-3-4.3-4.3-7.5-4-10 .3-2.5.5-2.4 2.7 2.1 1.3 2.7 4.6 7.3 7.3 10.3 3.4 3.7 4.6 5.5 3.6 5.9-.7.3-6.1 1.4-12 2.4-5.8 1.1-12.2 2.7-14.2 3.6-2.1 1-6.3 5-9.7 9.1-3.3 4-6.6 7.5-7.3 7.7-.7.3-2.1 3.5-3.1 7.2-1.4 5.1-2.6 7.2-5 9.1-2.3 1.7-4 4.7-6.3 10.8-8.7 22.8-8.3 1.9.5-24.9 6.3-19.4 15.3-34.8 34.8-59.5 12-15.2 19-22.6 28.7-30.7 9-7.4 23.7-15.2 21.3-11.4zm-423.5 14.2c5.7 3 8.4 5.9 5.6 5.9-1.3 0-13.6-7.7-13.6-8.6 0-1 2.7-.1 8 2.7zm421.5.6c1.9.9 3.5 2 3.5 2.4 0 1.5-15.8 5.1-16.6 3.8-.9-1.5 1.4-4.6 4.8-6.2 4.1-2.1 4-2.1 8.3 0zm-397.8 17c5.8 4.3 12.3 9.1 14.6 10.8 4.5 3.3 5.8 5.5 3.2 5.5-2.2 0-11.7-6.7-20.8-14.8-3.9-3.4-7.4-6.2-7.8-6.2-.4 0-.9-.7-1.3-1.5-1.1-2.9 1.7-1.4 12.1 6.2zm502.3 12.8c2.1 4.3 2.5 6.7 2.8 17.4.7 20.7-1.8 29.3-12.3 40.9-2.6 2.9-6.7 6.4-9.1 7.8l-4.4 2.6v6.6c-.1 10.8-1.8 20.2-5 26.7-8.5 17.1-16.2 30-23.7 39.2-2.7 3.3-4.1 4.3-6.4 4.3-1.7 0-4.9 1.3-7.4 3-2.6 1.8-6.8 3.5-10.2 4.1-6.3 1.2-19.2.5-24.2-1.2-3.3-1.2-5.9-4.6-4.4-5.9.4-.5 5.5-2.6 11.3-4.8 12.8-4.8 19.9-8.3 24.2-12 1.8-1.6 6.9-5.5 11.3-8.7 13.9-10.2 21.7-19.6 23.9-28.9 1.1-4.4-2.9-14.2-7.7-19.3-3.7-3.8-3.9-4.3-2.1-4.9 18.3-6.6 27.4-12.4 32.9-20.8 1.7-2.5 1.5-2.8-4.4-14.7-3.4-6.7-5.9-12.4-5.6-12.7 1.2-1.3 10.2 6.9 11.6 10.5.5 1.3 1.7 2.3 2.8 2.3 1.5 0 2.2-.9 2.7-3.7.8-4.1-.2-29.1-1.2-31.8-.5-1.3-.3-1.6.7-1.3.8.2 2.5 2.6 3.9 5.3zm-441.2.4c.3.8-.1 1.2-.9.9-.7-.2-1.5-1-1.7-1.7-.3-.8.1-1.2.9-.9.7.2 1.5 1 1.7 1.7zm299.2 4.1c0 1.1-.7 2-1.5 2-1.7 0-1.8-.2-.9-2.4.9-2.3 2.4-2 2.4.4zm-350.2 1.9c6.2 3.2 15.1 10.6 28.6 23.9 17.6 17.5 23.6 25.2 22.2 28.8-1.1 2.9-6.6 1.1-24.1-7.7-20.5-10.5-23.6-12.4-22.9-14.4.3-.7-.4-1.8-1.5-2.5-1.2-.6-2.1-2-2.1-3.1 0-2.7-4.2-9.2-7.4-11.2-2.6-1.7-5.1-5.5-4.3-6.3.2-.3 2.1.5 4.1 1.7 3.7 2.2 4.6 1.8 2.2-1-.7-.9-1.7-2.6-2-3.8-.7-2-.4-2.2 3.1-1.7l3.8.5-2.2-1.9c-4.1-3.6-3-4.1 2.5-1.3zm41.4 2.8c10.2 4.7 15.3 10.3 19.6 21.1 3.2 7.8 4 12.6 2.3 13.6-1.6 1-31.7-25.4-35.1-30.9-1.1-1.8-2-4.5-2-6 0-2.6.2-2.7 3.6-2.2 2 .3 7.2 2.3 11.6 4.4zm18.1 4.6c3.9 5.7 4.2 7.5 1.3 6.4-1.5-.6-8.6-10.5-8.6-12 0-2.4 3.8.5 7.3 5.6zm-36.7-.1c20.6 17.7 29.2 26.9 39.6 42 11.6 16.8 13.4 19.8 11.9 19.8-.5 0-4.9-5.1-9.8-11.3-10.2-13-21.6-26.1-35.2-40.2-5.3-5.5-10.5-11-11.5-12.3-3.1-3.6-.3-2.5 5 2zm146.4 8.2c0 .3-.4.8-1 1.1-.5.3-1 .1-1-.4 0-.6.5-1.1 1-1.1.6 0 1 .2 1 .4zm-98.9 10.2c4.8 8 10.4 21.4 12.4 30.1 2.1 8.7 1.6 11.4-1 4.7-1-2.7-5.1-12-9.2-20.7-4-8.7-7.6-17-7.9-18.4-1.1-4.4 1.8-2.2 5.7 4.3zm90.9-5.6c1.2.8 1.1 1-.7 1-1.3 0-2.3-.5-2.3-1 0-1.3 1.1-1.3 3 0zm-186.5 5.4c3.3 1.4 4.8 3.6 2.5 3.6-1.8 0-7.7-2.7-8.4-3.9-1-1.5 1.8-1.4 5.9.3zm29.5 11c13.5 5.6 17 7.4 17 8.6 0 2.8-10.6-.5-27-8.5l-11.5-5.5 5.2.4c2.9.3 10 2.5 16.3 5zm29.8 15.9c3 1.8 9.8 6.8 15.1 11.2 5.3 4.4 13.8 11.1 18.9 14.9 7.9 6 11.1 9.6 8.5 9.6-1.1 0-30.7-21.6-42-30.7-12.4-9.8-12.6-12.3-.5-5zm-7.1 2.6c7 4.7 16.8 14.8 18.4 18.8 3 8 .6 14.5-8.1 21.8-5.9 5-9.8 6.5-16.4 6.5-4.8 0-5.9-.4-8.6-3-2.6-2.6-2.9-3.2-1.9-5.4 1.4-3 .6-5.6-1.8-5.6-2.8 0-9.6-9-8.7-11.5.4-1.1.7-3.2.7-4.8 0-2.3.3-2.6 1.9-2.1 2.8.9 2-2.7-1-4.2-3.2-1.6-4.1-2.8-1.4-2 1.9.6 2.2.4 2.2-1.9 0-2.1.4-2.6 2.3-2.5 3.6.3 4 .1 2.7-1.5-2-2.4-.2-3.5 5.7-3.5 4.8 0 5.4-.2 4.3-1.5-2.6-3.1 3.7-1.5 9.7 2.4zm-178 11.8c.7 2.1-7.7 9.2-15.1 12.8-3.9 2-9.5 3.8-12.3 4.2-2.9.3-5.3 1.1-5.3 1.7 0 .6 1.4 2.9 3 5 2.4 3.2 3 4.9 3 9 0 6.4-2.4 16.4-5.1 21.9l-2.1 4.2 3.1-2.9c1.7-1.6 3.3-2.7 3.6-2.4.6.6-9 19.4-11.2 22-1.7 1.9-1 3.8 1.3 3.8s7.5 9 7.2 12.4c-.2 1.6-.8 3.1-1.5 3.3-1.7.6-11.1-8.4-11.5-11-.3-1.8-1.7-.8-10.1 6.8-13.7 12.4-21.1 22.7-31.3 43-8.9 17.8-10.8 24.1-12.1 39.2-1 11.5-2.7 10.4-2-1.3.6-10.6 6-31.1 11.7-44.7 6.3-15 21.3-34.5 36.4-47.1 5.6-4.7 15.2-16.4 14.2-17.3-.2-.3-2.3 1.3-4.5 3.5-4.6 4.4-16.9 13.1-22.1 15.6-3.8 1.8-14.6 11.9-25.5 23.9-8.4 9.2-10.1 9.7-10.1 2.8 0-3.6-.9-6.6-3.3-11.3-9.9-18.7-12.7-25.8-10.2-25.8.5 0 3.4 2.4 6.3 5.3 5.4 5.4 14.4 11.4 15.5 10.3.3-.3-1.7-3.6-4.6-7.2-2.8-3.7-6.8-10.1-8.9-14.3-6.5-13.1-5.6-27 2.4-37.5 3.7-4.8 9.7-8.6 13.7-8.6 6.9 0 14.2 4.6 16.9 10.6 3.1 7 .6 13.2-9.6 23.9-3.6 3.8-6.6 7.3-6.6 7.7 0 1.3 5.9.9 8.8-.6 4-2.1 15.3-14.2 19.7-21.1 17.5-27.5 23.3-32.6 44.8-39 8.6-2.6 12.8-2.8 13.4-.8zm6.3 3.1c0 .4-1.9 3-4.3 5.7-6.7 7.8-14.3 18.8-20 28.8-4 7.1-5.3 8.7-5.5 6.9-.5-3.5 10.1-20.7 19.8-32.2 7.8-9.2 10-11.3 10-9.2zm8.6 3.4c-.4 1.3-1.1 5.9-1.6 10.3-.4 4.4-1.1 8.9-1.5 10-.6 1.9-.6 1.9.8.2 1.3-1.6 2.5-7 4-17.6.1-.8 1-1.9 2-2.5 2.8-1.7 5 1.8 4.3 6.9-1 8.2-8.8 21.5-12.6 21.5-1 0-3.1 1.6-4.6 3.6-2.4 3-2.9 3.3-3.7 1.9-.5-.9-.7-6.7-.5-12.8.4-12.3 2.2-17.5 7.4-21.6 3.7-2.9 6.8-2.8 6 .1zm243.5 9.3c0 1.3-4.1 1.9-4.1.7 0-1.1 2-2.2 3.3-1.8.5.1.8.6.8 1.1zm-9.4 3.2c.6 1.6-4 3.8-6.1 3-2.3-.9-2-2.6.7-3.7 2.8-1.1 4.9-.9 5.4.7zm-10.3 3.4c3.3 3.8 3.3 4.9 0 4.9-5.3 0-8.2-3.8-5.2-6.8 1.7-1.7 2.3-1.5 5.2 1.9zm-10.6 4.1c-.7 2-10.5 5.1-39.2 12.3-19.6 5-27 6.5-27.8 5.7-1.7-1.7 3-3.4 29.9-10.6 33.2-8.9 37.9-9.9 37.1-7.4zm-228.5 11.3c0 7.9-.7 10.1-9.1 27.4-5.1 10.4-6.3 6.8-2.6-8 .8-3.1 1.4-6.7 1.4-7.9 0-1.2 1.3-5.2 3-8.9 1.6-3.7 3.4-8 4-9.6 1.8-4.6 3.2-1.5 3.3 7zm442.4-3.8c1.3 1.9 1.2 2-1 1.6-2.4-.5-2.4-.3-2.9 7.4-.4 6.2-1.2 9.4-4.1 15.9-3.2 7.1-3.7 9.1-3.7 15.5 0 8.9 1.9 13.4 8.9 22.3 7.5 9.4 14.3 15.3 19 16.5 2.2.6 6 1.6 8.4 2.2 2.3.5 10.3 3.9 17.7 7.4 15.6 7.3 25.1 9.9 34.2 9.3 8.7-.5 14.1-3.4 25-13.5 5.1-4.6 11.1-9.4 13.3-10.5 4.8-2.4 9.5-6.7 9.5-8.5 0-.7.5-1.3 1-1.3 1.7 0 1.1 6.6-.7 8.3-1 .8-4.5 2.7-7.7 4.1-4.4 2-8.6 5.2-16.1 12.5-11 10.7-18.1 15.1-24.3 15.1-9 0-25.4-5.8-36.9-13.1-3.5-2.2-8.5-4.4-11.2-4.9-9.6-1.8-17.8-6.4-28.9-16.3-2.4-2.1-4.8-3.7-5.5-3.4-.7.2-1.3 2.1-1.5 4.3-.1 2.1-.5 4.6-.8 5.4-.4 1.3-.6 1.3-1.4 0-1.3-2-1.2-7.7 0-10.1.9-1.5.3-3.4-2.5-9.1-2.9-6-3.5-8.2-3.5-13.8 0-7 2-14.2 6.1-22 1.8-3.5 2.4-6.5 2.6-14 .5-12.2.7-12.6 3.5-10.8 1.2.8 2.8 2.4 3.5 3.5zm-203.3-1.5c2.2 3 2.1 4.2-1.9 29.3-5.2 33.5-8.6 41.4-18.2 42.9-3.9.6-4.3.4-4.3-1.5 0-1.2 2.4-8.2 5.4-15.8 8.9-22.6 12-33.5 13.1-47.1.4-4.1.8-8.1 1-8.8.7-1.9 3.2-1.4 4.9 1zm-227.4 9.8c0 3.7-2.7 8.7-6.2 11.4-3.2 2.4-6.8 3.5-6.8 2 0-2.2 10.3-15.4 12.1-15.4.5 0 .9.9.9 2zm199.5-.1c5.1 2.3 9.1 6.4 12.1 12.3l2.4 4.7-3.5 8.2c-3.7 8.8-7.4 14.9-9 14.9-.6 0-3.2 2.2-5.8 5-5.2 5.5-7.7 6.4-7.7 2.6 0-1.3-.5-2.6-1.1-2.8-.9-.3-.9-.9-.1-2.5.9-1.7 3.3-13.3 2.7-13.3-.1 0-2.2.7-4.8 1.6-6.4 2.2-9.8 1.6-11.7-2-.8-1.6-2.6-4-4-5.2-1.9-1.7-2.4-3.1-2.4-6.2.1-3.7-.1-4.1-2.5-4.4-2.3-.3-2.6-.7-2.6-4.3 0-3.6.4-4.2 3.5-5.7 3.6-1.8 19.4-4.5 26.5-4.7 2.2 0 5.8.8 8 1.8zm310.7 4c1 2.4 3.1 6 4.7 8 1.5 2 3.6 5 4.5 6.8 1.7 3.4 2.2 8.3.7 8.3-1.2 0-2.1-2.5-2.1-5.6 0-1.5-1.3-3.7-3.4-5.7-1.9-1.8-4.2-4.8-5.1-6.7-2.4-4.8-4.5-7-6.7-7-3.2 0-2 2.3 6.1 11.8 2.4 2.9 5.3 7.7 6.2 10.5 1.4 4.1 2.2 5.2 3.8 5 1.3-.2 3.8 1.5 6.8 4.5 3.1 3.1 8.8 6.8 16.3 10.7 12.6 6.5 12.6 8 .1 5.1-3.6-.8-8.2-1.8-10.1-2.2-4.9-.9-12.4-5.9-16.6-10.9-2.4-3-4.5-4.5-6.9-4.9-2.8-.6-3.9-1.5-5.6-4.7-1.1-2.3-4-5.4-6.6-7.2-9.3-6.4-9.9-7.1-8.5-10.2.7-1.5 2.2-2.9 3.3-3.2 2.4-.7 2.1-3.6-.4-4.1-1-.2-4.3 1.3-7.3 3.4-4.7 3.2-6.5 3.9-11.9 4.2-7 .5-11.5-.3-11.5-1.8 0-.6 2-1 4.4-1 5.1 0 14.7-2.8 19.3-5.7 2.7-1.6 4.9-1.9 13.9-1.8l10.7.1zm-62.2 6.6c8.9 8.5 10.3 9.2 21 11.5 7 1.5 11.1 3.1 16.9 6.5 4.2 2.5 9.2 5 11.2 5.5 1.9.5 6.6 3.7 10.5 7 4.5 3.9 8.1 6.2 10.4 6.6 6.4 1.1 19.4 4.5 21 5.5 1 .7-1.4.9-7.5.6-6.6-.3-10.2-1-13.2-2.6-4.1-2-7.3-2.7-7.3-1.5 0 .3 1.6 2.6 3.5 5.1 4.3 5.7 5.1 8.3 3.3 11.9-4.1 8.7-26.7 15.6-35.7 10.9-2.8-1.4-5.1-5.8-5.1-9.6 0-1.1-.8-2.7-1.8-3.7-1.7-1.7-2.5-1.7-8.8-.7-3.8.7-7.5 1-8.1.7-.7-.2-1.5-2-1.8-4-1.3-7.9-2.7-12.6-4.5-15-4.4-5.5-2.9-14.1 2.8-16.3 3.2-1.3 14.2-.4 21 1.6 4.6 1.4 23.2 10.4 25.7 12.5.6.5 1.5.7 1.9.3.9-.9-3.4-5.3-5.2-5.3-.8 0-5.2-2-9.7-4.5-8.6-4.6-17.4-7.5-23.5-7.5-4.1 0-12.2-3.6-16.8-7.4-3.1-2.7-10.2-13.6-10.2-15.8 0-1.4 1.9.1 10 7.7zm-306.3-5.9c.6 1.8-5.3 3.4-11.9 3.4-6.9 0-6.9-1.3 0-3.4 5.3-1.7 11.4-1.7 11.9 0zm565.3.4c-1.4.5-9.9 3.2-19 6-9.1 2.9-20.1 6.7-24.5 8.5-16.3 6.8-16.2 6.8-14 4.9 7.1-5.9 47.6-20.3 57-20.2 2.9 0 2.9 0 .5.8zm-733 7.1c0 7.1-3.4 24.4-5 25.4-1.1.7-2.4-17.5-1.7-23.7.6-5.1 2.9-8.8 5.4-8.8 1 0 1.3 1.8 1.3 7.1zm145-4.1c0 1.2-4.8 2.5-5.8 1.6-.8-.9 1.8-2.6 4.1-2.6.9 0 1.7.4 1.7 1zm-120.2 9.2c-.4 2.5-16.8 11.7-16.8 9.4 0-4.2 13.1-14.6 15.7-12.4.8.6 1.3 2 1.1 3zm-33.3 12.6c0 9.9-1.5 17.2-3.4 17.2-1.1 0-5.4-12.9-5.3-16 .1-2.6 3.2-9.9 5.5-12.8 2.2-2.7 3.2.9 3.2 11.6zm37.1-4.8c2.7 5.8 2.7 6.9-.1 8-3 1.2-21.5 1.4-21.5.2.1-1.9 16.5-11.4 19-10.9.8.1 2 1.3 2.6 2.7zm684.5.5c-.1 1.5-2.4 1.2-2.9-.3-.3-.9.2-1.3 1.2-1 1 .1 1.7.7 1.7 1.3zm-372.1 2.5c0 1.6-.5 5-1.2 7.4-1 3.7-.9 5.7.6 12.4 2.7 11.4 1.6 11.9-2.5 1l-3.5-9.4 2.3-4.9c1.2-2.8 2.3-6 2.3-7.3 0-1.2.5-2.2 1-2.2.6 0 1 1.3 1 3zm324.1 3.7c-1.1 2-5.9 7.3-6.6 7.3-1.1 0-.3-1.2 3.1-5 3.9-4.3 5.1-5 3.5-2.3zm42.9-.7c0 .5-.7 1-1.5 1s-1.5-.5-1.5-1c0-.6.7-1 1.5-1s1.5.4 1.5 1zm-11 2.5c0 .8-10.2 5.7-10.7 5.1-.3-.3 1.8-1.7 4.8-3.1 5.9-2.7 5.9-2.7 5.9-2zm-22 1.8c0 1.7-10.4 14.3-13 15.7-2.2 1.2-9.3 10.1-8.5 10.8.2.3 3.7-2.2 7.7-5.5 10.9-8.9 11.3-8.6 1.3 1.3-9.4 9.2-17.6 20.6-23.9 33.1-3.9 7.9-4.1 8.3-2.6 8.3.5 0 3.6-4.4 6.9-9.8 7.5-11.9 9.5-14.6 10.9-14.1 1.1.4-13.7 31-20.7 42.7-2.4 4-4.1 7.5-3.8 7.8.3.3 3.1-2.8 6.2-7 3.2-4.2 5.9-7.6 6.1-7.6 1.3 0-.5 3.1-7.8 14.2-13.3 20.2-29.8 46.6-29.8 47.9 0 .8 1.5 1 5.3.5 4.4-.5 5.7-1.2 9-4.7 4.1-4.6 4.7-7.4 1.7-8.4-1.1-.3-2-1.4-2-2.4 0-2.4 10.4-19.3 19.3-31.5 11.5-15.7 12.8-13.7 3.5 5.4-10.1 20.9-9.8 22 1.8 6.2 12.9-17.5 37.1-40.5 57.2-54.2 3.5-2.3 6.5-4 6.7-3.8.3.3-1.6 1.9-4.3 3.6-10 6.5-37.1 29.9-41.3 35.5-3.3 4.6-1.4 4.4 4.8-.5 7.2-5.6 11.8-8 14.6-7.6 3.7.5 3.3 4.6-1.1 11.3-6.1 9.5-5.9 9.2-2.7 7.1 1.7-1 5.9-4.1 9.5-6.9l6.5-4.9-5.8 5.6c-3.1 3-9 8.1-13 11.2-7.7 6.1-37.4 35.6-40.3 39.9-1.6 2.5-1.6 2.7.4 4.8 2.1 2 2.3 2 5.6.4 1.9-.9 5.2-3.1 7.3-5 2.1-1.9 7.3-5.7 11.6-8.6 4.3-2.9 7.7-5.5 7.4-5.7-.3-.3-4.4 1.8-9.3 4.5-4.8 2.8-9.1 5.1-9.5 5.1-.4 0-.9-.7-1.2-1.4-1.2-3.2 14.3-18.6 39.6-39.5 12.2-10 17.2-13.5 21.9-15 7.8-2.6 11 3.8 4.1 8-4.6 2.9-22.3 16.9-24.2 19.2-.7.9-1 1.7-.6 1.7.9 0 38.5-26.1 38.5-26.7 0-.2-1.3-2.1-2.9-4.1-1.6-2-3.4-5.5-4.1-7.7-.7-2.2-2.3-6.1-3.6-8.7-1.3-2.6-2.4-5.8-2.4-7l.1-2.3 1.9 2.3c1.9 2.3 3.9 7.3 5.9 15 .7 2.3 2.5 5.7 4 7.5 1.6 1.7 3.2 4.8 3.6 6.7 1.3 5.9 4.4 10.9 8.4 13.4 2.2 1.4 4.1 3.1 4.4 3.8.6 1.8-1.1 4.8-2.7 4.8-.7 0-3.3 1.5-5.7 3.4-2.4 1.9-12 7.6-21.4 12.6-23 12.4-27.1 14.8-28.5 16.5-1.8 2.2-.7 1.9 7.8-2.1 14.7-6.9 24.9-9.4 23.6-5.9-1.7 4.3-41.1 24.7-52.3 27-5.4 1.1-3.4-1.5 4.5-5.8 8-4.5 7.7-4.4-7.8 1.3-11.2 4.1-14.1 6.1-11.9 8.3 1.8 1.8 20.9-2.6 33.2-7.8 11.1-4.6 19.4-7.9 42.9-17 13.8-5.4 28.3-12.5 28.8-14.2.2-.6-1.1-1.9-2.7-2.8-1.7-.8-3.1-2-3.1-2.6 0-1.3 10.2 4.2 10.7 5.8.4 1.1-16.6 9.8-27.9 14.3-10.6 4.1-10.7 7.7-.1 3.7 13.6-5 22.3-5.7 22.3-1.8 0 2.2-2.2 4.2-7.8 7-4.5 2.3-5.2 4.8-1.1 4.3 1.3-.1 7.1-1.9 12.7-3.9 8.1-2.8 10.6-4.1 11.3-6 .6-1.5 1.7-2.3 3.3-2.3 3.7 0 4 1.7.6 2.9-1.7.5-3 1.4-3 1.9 0 1.5-14.7 7.4-40.5 16.2-22.5 7.7-30.5 10.9-27.9 11 2.5 0 20.6-5.2 36.4-10.5 9-3 16.8-5.5 17.2-5.5.4 0 .8.9.8 2 0 2.7-7.8 8.2-17 12.1-4.1 1.7-8.2 3.8-9 4.6-1.3 1.4-.8 1.5 5 .9 4.2-.3 5.9-.2 4.9.4-.9.5-6.7 1.4-13 2-12.8 1.3-26.6 4.2-30.7 6.5-2.7 1.6-2.7 1.6 1.8 1.1 2.5-.3 6.1-.8 8-1.2 2.6-.5 3.2-.4 2.5.5-.6.6-7.8 2.6-16 4.5-8.3 1.9-17.9 4.4-21.5 5.5-3.6 1.1-7.3 2.1-8.3 2.1-3.8 0-.3-2 7.6-4.5 10.9-3.4 11.1-3.5 10.5-4.1-.7-.7-33.7 8.3-35.3 9.6-1.5 1.2-2.5 5.8-1.8 7.7.7 1.9 2.1 1.6 9.2-1.7 10.6-5 27-8.7 46.3-10.5 21.3-1.9 34.8-3.3 40.9-4.1 4.2-.6 4.8-.4 5.9 1.6 2.3 4.3-.1 5-20.6 6.6-38.8 2.8-43.8 4.4-75.1 24-5.5 3.5-10.6 6.4-11.2 6.4-3.7 0-4.1-10.3-.7-19.8 2.4-6.9 7.5-18.2 8.2-18.2.2 0 1.2.5 2.2 1.1 1.5.9 4.2.5 12.8-1.9 13.3-3.8 25.4-8 23.4-8.1-.8 0-4 .6-7 1.4-6.4 1.7-11.6 1.9-12.5.5-.8-1.3 4.2-3.4 14.8-6.3 14.4-3.8 5.6-2.9-12 1.3-20.5 4.8-21.5 4.9-21.1 1.4.3-2.3.7-2.6 5.8-2.9 3-.2 8.8-1.1 12.8-2 8.3-1.9 9.9-4.1 2.2-3-5.8.8-7.4.1-6-2.4 1.2-2.3 3.8-3.4 18.6-7.6 15.8-4.6 7.4-3.5-14 1.8l-17 4.2-.9 3.4c-1.2 4.7-2 3.1-2.8-5-1.2-13.1-5.2-15.6-31.4-19.4-25-3.6-30.4-5-37.2-9.4-6.3-4-9.3-6.7-9.3-8.2 0-1.7 2.7-.9 6.8 2.1 2.3 1.6 5 3 6.1 3 1.1 0 4.4-2 7.4-4.5 5.6-4.5 15.9-15.6 15.2-16.3-.2-.3-2.7 1.2-5.5 3.3-2.7 2-5 3.3-5 2.8s2.5-3.3 5.5-6.3 5.5-5.9 5.5-6.6c0-.6 4.3-6.5 9.6-13 11-13.6 19-26.2 24.6-38.4 10.3-22.2 14.1-28.9 21.4-37.4 10.2-11.8 19.4-18.6 19.4-14.3zm-644.6 3.9c-.3 1.3-1.3 3.6-2.1 5.1-1.4 2.7-1.7 2.8-6.4 2.2-2.8-.4-8.2-1.5-12.2-2.4-13.4-3.1-7.6-6.9 10.6-7 10.8-.1 10.8-.1 10.1 2.1zm676.9 2.5c.5 2.6.4 2.6-.9.8-1.5-2.1-1.9-4.9-.5-4.1.5.3 1.1 1.8 1.4 3.3zm-477.7 8.5c-4.1 8.3-7.1 12.6-8.2 11.5-.9-.9 4.1-11.7 8-17.1 4.2-5.9 4.3-2.8.2 5.6zm-210.7-2.2c18.8 4.2 28.1 8.1 28.1 11.8 0 4.4-12.4 22.2-15.5 22.2-.8 0-3.5-1.8-6-4s-5.6-4-6.9-4c-2.9 0-5.7-3.1-9.5-10.7-3.2-6.4-3.9-11.9-2.1-15.4 1.3-2.3 1-2.3 11.9.1zm689.9 1.6c-.4 2-1.4 2.6-9.2 5-3.2 1-9.3 3.8-13.4 6.1-8.1 4.6-8.7 4.9-7.6 3.2 1.2-2 11.8-8.2 20.4-12 9.9-4.3 10.2-4.4 9.8-2.3zm-732.9 3.2c4.2 3.1 4.8 4.9 2.4 7.3-2 2-2.4 2.1-9.2.9-3.9-.6-8.1-2-9.3-3l-2.3-1.8 2-2.2c1.1-1.2 2.9-2.6 4-3.1 2.8-1.2 9.6-.2 12.4 1.9zm72.1-.8c0 1.1-.4 2-.9 2-1.4 0-2.3-1.8-1.6-3 1-1.7 2.5-1.1 2.5 1zm660 14.7c0 2-1.8 1.6-3-.7-1.5-2.8-.1-4.9 1.7-2.5.7 1.1 1.3 2.5 1.3 3.2zm-647.6-2.4c1.8 1.3 1.7 1.5-.2 5.3-2.3 4.3-12.9 17.4-14.2 17.4-1.6 0-1.9-3-.5-4.4.8-.8 1.5-2.1 1.5-2.8 0-.8 1.3-2.7 2.9-4.2 1.6-1.6 3.9-5 5.1-7.7 2.2-5.3 2.7-5.6 5.4-3.6zm-11.2 1.9c-.7.7-1.2.8-1.2.2 0-1.4 1.2-2.6 1.9-1.9.2.3-.1 1.1-.7 1.7zm176.3-.2c.8 1.3-.4 5-1.6 5-.5 0-.9-1.4-.9-3 0-3 1.3-4 2.5-2zm11 .7c1.2 1.2 1.5 2.6 1.2 5-.5 2.6.2 4.9 2.9 10 4.3 8 4 9.5-1.8 9.1-3.9-.3-4.4-.6-6.7-5.2-1.5-2.9-2.7-7.1-2.9-10.6-.4-4.9-.1-6.1 1.7-7.9 2.5-2.5 3.4-2.6 5.6-.4zm-265.1.2c.7 1-1.1 1.5-11.4 3.1-8.1 1.2-14 1.3-14 .1s4.2-2.1 14.8-3c4.8-.5 9-.9 9.4-1 .4 0 .9.3 1.2.8zm102.3 1.6c21.4 8.1 45 25.6 62.3 46.2 13.4 15.9 14.5 20.3 7.2 27.1-9.4 8.6-15.6 9-22.7 1.5-2.3-2.5-5-5.3-6-6.2-.9-.9-5.7-5.4-10.5-10.1-4.9-4.7-11.1-10.6-13.7-13.1-2.6-2.5-8.7-7.1-13.5-10.2-9.1-5.8-17.2-14.6-16.4-17.6.3-.9.8-4.3 1.2-7.6.7-6.7 2.8-12.5 4.3-12.5.6 0 4.1 1.1 7.8 2.5zm637.9 5.2c-.7.7-2.6-.7-2.6-1.9 0-.6.6-.6 1.5.2.9.7 1.3 1.5 1.1 1.7zm-725.7 2.9c4.8 4.3 6.5 8.9 5.6 15.1-.7 4.8-6.3 12.2-8.3 10.9-2.6-1.6-5.4-23.2-3.6-28 .9-2.3 1.9-2 6.3 2zm464.1 0c0 1.4-.7 4.1-1.5 6.1-.8 1.9-1.5 3.7-1.5 3.9 0 .2 3.8.4 8.3.4 7.8 0 8.7.2 12.7 3.1l4.3 3.2-2.7 1.4c-2.5 1.3-3.5 1.1-13.5-2.8-11.6-4.5-11.5-4.4-9.8-11.2.4-1.5.9-3.8 1.2-5.2.7-3.2 2.5-2.3 2.5 1.1zm-451.9.5c2.7 2.9 4.2 8.8 1.8 7.4-1.4-.9-6.9-8.6-6.9-9.7 0-1.7 2.3-.7 5.1 2.3zm-33.7-.6c-.9 2.2-16.1 13.4-21.9 16.1-6.5 3.1-10.8 3.2-10.3.3.2-1.5 1.7-2.6 5.3-3.8 2.8-1 9.7-4.6 15.5-7.9 11.4-6.6 12.2-6.9 11.4-4.7zm40.6 1.5c0 .5-.4 1-1 1-.5 0-1-.5-1-1 0-.6.5-1 1-1 .6 0 1 .4 1 1zm706.6 2.7c-1.1 1.1-1.9-.6-1.1-2.4.8-1.7.8-1.7 1.2 0 .3 1 .2 2.1-.1 2.4zm-46.8.5c-1.3 1.8-5.5 7.7-9.3 13-3.7 5.4-7.2 9.8-7.7 9.8-1.1 0 10.4-17.1 14.9-22.1 4.3-4.7 5.4-5.1 2.1-.7zm-700.1 4.6c-4.1 6.3-6.7 12-10.8 23.9-7 20.2-11.5 27.2-20.7 32.1-3.4 1.8-6.2 2.9-6.2 2.5 0-.5 2.1-2.9 4.6-5.3 7.4-7.3 11.2-13.1 17-26.7 6.4-14.8 12.6-26.8 15.7-30.1 3.1-3.3 3.4-.8.4 3.6zm523.5-3.8c2.1.6 5.3 2.6 7.3 4.4 4.1 3.9 4.7 8.3 1.5 12.3-1.1 1.4-2 3.2-2 3.9 0 2.6-1.9 1.4-5-3.1-1.7-2.4-5.1-5.6-7.5-7.1-5-2.9-5.1-3.1-3-5.8.8-1.1 1.5-2.8 1.5-3.8 0-2.1 1.8-2.3 7.2-.8zm-515.2 11.3c0 12.3-3.9 22-10.1 25.2-2.5 1.4-2.9 1.4-2.9.1 0-.8.5-1.8 1-2.1 2.7-1.7 7.6-15.5 9.5-26.8 1-6.2 2.5-4.1 2.5 3.6zm-20-.9c0 .3-.4.8-1 1.1-.5.3-1 .1-1-.4 0-.6.5-1.1 1-1.1.6 0 1 .2 1 .4zm86.5.6c.8 1.3-1.4 4.2-2.6 3.4-.5-.3-.9-1.4-.9-2.5 0-2 2.4-2.6 3.5-.9zm584.5 5.4c-3 5.3-4 6.5-4 4.8 0-1.4 6.1-11.4 6.7-10.9.3.3-.9 3.1-2.7 6.1zm-141.5-2.3c3.8 3.4 6.9 8.3 6.3 10.1-.3.9-15.8-11.7-15.8-12.8 0-.2 1.3-.4 3-.4 1.9 0 4.2 1.1 6.5 3.1zm-537.4 6.6c-.5 1-3.8 4.6-7.3 8-6.4 6.4-13.1 10.2-14.3 8.2-1.2-1.8.3-3.6 5.7-6.7 2.9-1.7 7.6-4.9 10.3-7.1 5.5-4.4 7.1-5.1 5.6-2.4zm443.4 16.2c42.1 7.5 78.9 23.1 110.8 46.9 5 3.8 11 8.5 13.2 10.4l4 3.6-76.5.6c-42.1.4-118.3.6-169.5.4l-93-.3 7.5-6.3c12.1-10.1 33.4-23.9 49-31.6 22-10.9 40.6-17.3 64.5-22.1 18.8-3.8 26.3-4.4 53-4.1 20.2.3 27.3.8 37 2.5zm220.7 1.8c-4.4 6.2-10.2 11.9-14.3 14.2l-4.3 2.4 2.1-2.9c3.1-4.2 16.4-16.4 17.9-16.4.3 0-.3 1.2-1.4 2.7zm-24.3 29.3c-7.3 5.8-10.5 7.9-9.4 6 1-1.6 13.7-11 14.9-11 .5 0-1.9 2.3-5.5 5zm-621 5c4.4 2.2 6.2 4.3 13 15 4.8 7.6 7.7 10.8 8.7 9.7 1-1-.6-4.4-5.7-12.2-2.7-4.2-4.9-7.8-4.9-8 0-.3 1.7-.5 3.9-.5 6.3 0 8.1 2 15.1 17.3 2.3 4.8 6 8.2 6 5.4 0-.8-1.1-3.9-2.4-6.8-5.2-11.4-4.4-13.6 2.5-7.2 3.4 3.3 4.4 5.2 6.9 13.8 1.6 5.5 3 11.2 3 12.6 0 2.9 2.6 10.7 6.3 19 1.4 3.1 4.7 11.7 7.2 19 4.8 13.9 14.5 35 18.6 40.6 1.3 1.7 3.9 5 5.8 7.4 2.6 3.1 2.9 3.9 1.4 3.1-2.3-1.3-11.3-11.7-14-16.3-1.8-2.9-4.3-3.9-4.3-1.6 0 .7 2.2 5 5 9.7 5.5 9.5 6 12 2.9 15.1-2.1 2.1-2.8 2.2-14 1.6-6.5-.4-15.1-.9-19.1-1.2-8.1-.6-8-.6 4.6 4.7 4.4 1.8 8.1 3.9 8.3 4.5.6 1.8-2.7 3.1-10.8 4.3-4.1.6-8.9 1.3-10.6 1.6-5.8.9-3.5 2.1 4.7 2.6 11.8.7 11.9 1.8 1.1 7.2-10.8 5.5-11.7 7.4-3.3 7.8l5.7.3-5 2.9c-2.7 1.6-8.8 5.1-13.5 7.9-6.1 3.7-9.8 5.2-13.3 5.5-3.7.4-5.1.9-5.4 2.3-.4 1.4-1.2 1.6-3.8 1.2-2.6-.4-4.3.1-7.7 2.4-2.3 1.7-5.8 3.8-7.7 4.8-1.9.9-4.4 2.8-5.7 4.2-1.2 1.3-6.2 3.9-11.1 5.7-4.8 1.8-11 4.4-13.8 5.8-5 2.5-11.3 4.7-19.2 6.8-2.6.6-4.3 1.7-4.3 2.5s2.5 3.3 5.5 5.6c3.1 2.3 5.3 4.4 5.1 4.7-1.6 1.6-17.6-11.7-17.6-14.7 0-1.1 4.7-2.7 11-3.7 9.1-1.4 25.2-7.9 55.5-22.5 36.9-17.8 33.9-16.3 34.3-18.2.5-2.4-5.7-4-11.5-2.8-5.6 1.1-19.4 5.9-20.8 7.2-.6.6-.3 2 .8 3.9 2.2 3.7 1.2 3.8-3.3.5-1.9-1.4-4.2-2.5-5.2-2.5-1.9 0-16.1 4.6-19 6.1-2.4 1.3-2.3 2.2 1 6.1l2.7 3.3-3-1.9c-1.6-1-3.6-2.5-4.2-3.4-1.8-2.2-2.8-.7-1.5 2.3 1.4 3.1.6 3.2-2.4.4-2.2-2.1-2.4-2.1-6.5-.5-6.8 2.7-20 5.6-25.8 5.6-3.9 0-6.6-.7-10.2-2.6-2.7-1.5-4.6-3.1-4.3-3.5 1-1.7 29.3-10 58.8-17.5 16.5-4.1 33-8.8 36.7-10.4 3.7-1.7 7.1-3 7.6-3 2.7 0 11.3-3.2 10.8-4-.7-1.1-13.6-1.3-17.2-.4-1.2.3-2.3 1.5-2.5 2.7-.3 2-.4 2-3.2-.6-1.6-1.5-3.8-2.7-5-2.7-4.1 0-6.6 1.2-6.6 3.1 0 2.5-1.7 2.4-3-.1-1.9-3.6-3-1.2-1.5 3.5 1.8 6.2.1 5.6-2.3-.8l-2-5.2-7.4.1c-4 .1-9.9.7-13 1.3-5.4 1.1-5.8 1.5-5.8 4 0 1.5.5 3.2 1.1 3.8 2.3 2.3.2 4.3-4.5 4.3-2.5 0-4.7-.4-5-.9-.3-.5-2.3-.7-4.5-.4-5.1.7-11.1-2.1-12.5-5.9-1.2-3.3-2.8-3.4-12.6-1.3-3.6.8-10.7 1.4-15.9 1.5h-9.4l.6 4.6c.3 2.6 2.2 7.9 4.2 11.8 3.5 6.8 3.6 7 1 4.6-1.5-1.4-3.8-4.4-5.2-6.7-3.6-6.2-3.3-15.5.5-16.7 4.6-1.5 34.2-5.8 48.6-7.1 35.1-3.2 53.7-4.5 63.2-4.6 10.9-.1 20.7-1.2 18.4-2.1-.8-.4-7-1.1-13.7-1.7-9.5-.8-13.4-1.6-17.5-3.5-5.1-2.4-7.6-2.3-9.3.4-.8 1.3-5.8 1.3-8.8-.1-1.4-.6-3-2.2-3.6-3.6-1.4-3.1-3.2-2.6-5 1.5-1.8 4-2.4 4-5.1.2-2.4-3.3-4.1-3.8-6-1.5-1.7 2.1-5.5 1.9-7.1-.5-1.2-1.6-5.1-2.5-25.8-5.4-25.9-3.8-27.1-3.7-27.1 1 0 1.3-.5 2.4-1.1 2.4-.8 0-1-1.7-.5-5.5l.6-5.5h-4.8c-2.6 0-5.3.5-6 1.2-.8.8-1.2.9-1.2.1 0-.6.8-1.9 1.7-2.9 1.5-1.5 3.4-1.6 17.8-1 29.6 1.3 61.5 4.7 81.7 8.6 5.5 1.1 11.5 2 13.3 2 1.9 0 7.9 1.2 13.5 2.6 5.5 1.4 10.5 2.4 11.2 2.2 1.6-.6-2.9-3.6-13.7-9.3-4.9-2.7-10.6-6-12.5-7.4-4.5-3.3-18.3-9-23.7-9.8-2.3-.3-5-1.4-5.9-2.4-2-2.2-4.4-2.4-9.2-.7-3.1 1.2-3.5 1.1-5.3-1.1-1-1.3-1.9-3.3-1.9-4.6 0-1.2-.6-2.8-1.4-3.4-2.2-1.8-4.4 2.2-5.9 10.5-.9 4.9-1.7 6.9-2.7 6.9-.8 0-1.7-1.1-1.8-2.5-.2-1.4-1.1-2.9-1.9-3.4-1.1-.6-1.3-1.8-.8-5.2.9-6.4 0-8.4-3.8-8.4-1.8 0-4.3-.7-5.7-1.5-6.5-3.8-10.8-5.5-14.2-5.5-4.1 0-4-.3-5.7 15.3-.5 4.3-1.1 8-1.3 8.3-.3.2-1.3-.2-2.3-1-1.7-1.3-1.8-2-.8-9.2.6-4.4 1.4-9.1 1.8-10.5.5-1.8.2-3.1-1-4.3-1.6-1.6-1.9-1.6-3.5-.1-2 1.8-4 8.6-4 13.4 0 1.7-.4 3.1-1 3.1-1.4 0-1.2-2.5.5-9 2.1-7.9 2-11-.5-11-2.3 0-6.2 5.5-8 11.3-1.5 4.8-3.2 3.9-1.8-1.1 1.6-5.8 3.7-9.4 7.9-13.5 4.4-4.3 5.2-4.4 8.6-1.7 1.4 1.1 3.6 2 5 2 2.2 0 24.9 7.2 28.4 9.1.9.4 6.1 2.2 11.5 3.8 5.5 1.6 17.1 5.6 25.9 8.9 8.8 3.2 21.9 7.8 29 10.2 7.2 2.3 13.4 4.6 13.9 5.1.6.5 2.2.9 3.7.9 1.4 0 5.2 1.4 8.4 3.1 3.1 1.7 6 2.7 6.3 2.4 1.1-1-3.9-4.3-9.8-6.4-7.9-2.8-17.4-6.7-26-10.7-4.2-1.8-8.5-3.4-9.6-3.4-2.6 0-14.3-7-16.1-9.6-1-1.6-1.1-2.8-.3-4.9.6-1.5.9-3 .6-3.2-1.1-1.1-4.3 1-6.4 4.2-1.2 1.9-2.9 3.5-3.7 3.5-.8 0-3.2-1.6-5.4-3.5-3.7-3.4-4.1-3.5-11.5-3.5-7.3 0-7.9-.2-10.8-3-1.9-2-2.8-3.6-2.4-4.7 1-2.4-.3-5.3-2.3-5.3-1 0-2.8 1.1-4.1 2.5-3.1 3.3-5.7 3.2-10.9-.7-6.9-5-11.1-6.9-13.2-5.7-2.2 1.1-3.9-1.4-3.9-5.9 0-5.3 14.4-22.2 19-22.2 2.4 0 17.3 8.8 40.5 24 41.1 26.9 62.6 39.6 67.9 40.2 4.1.4 4.4-1.8.6-3.9-13-7.1-21.4-15-19-17.8 1.5-1.8 1-1.8-2.5-.5-2.4.9-2.5.8-1.5-1 1.2-2.2.1-2.7-1.8-.8-1.7 1.7-2.7.2-1.2-1.7.7-.9 1-1.8.7-2.2-.4-.3-.9.2-1.3 1.1-.3.9-1.4 1.6-2.4 1.6-2.5 0-20-8.2-25.4-11.9-2.4-1.6-5.9-3.4-7.8-4-4.7-1.5-9.6-6.7-8-8.3 2.1-2.1 1.3-3.1-1.9-2.4-2.4.5-3.5.1-5.5-2.1-2.8-3.1-2.9-4.1-.8-7.1 2.3-3.3 1.1-3.8-3-1.2-3.9 2.3-7.5 2.4-8.6 0-.4-.8-1.7-3.4-2.9-5.7-1.2-2.3-2.1-4.9-1.9-5.7.2-.8-.1-1.4-.6-1.3-.5.1-1.3-.9-1.8-2.2l-.9-2.5-1.8 3c-2.1 3.4-4.9 5.9-5.7 5.1-.9-.9 3.1-5.7 7.7-9 2.2-1.6 5.3-4.2 6.9-5.8 2.4-2.4 3.7-2.9 8-2.9 6.5 0 7.3.4 20.5 11.5 6.1 5 15.5 12.8 21 17.3s17 14.7 25.5 22.7c8.5 7.9 15.6 14.2 15.8 14 1.1-1.1-5.4-8.2-30.1-33.2-2.3-2.4-5-4.3-5.9-4.3-2.9 0-7.2-4.5-7.3-7.6-.1-1.5-.8-3.1-1.6-3.5-.8-.3-3.5-1.6-6.1-2.7-5.8-2.6-7.8-5.6-4.7-7.2 1.1-.7 1.9-1.4 1.6-1.7-.3-.2-1.4.1-2.6.8-2.9 1.9-7.2.1-8.4-3.5-.8-2.5-.6-3.1 1.4-4.7 2.3-1.7 2.3-1.7-4-1.2-5.8.6-6.3.4-5.9-1.3.4-2.4 8.8-7 15.1-8.4 3.8-.8 5.4-.7 7.5.4 3.4 1.8 8.5 8.3 9.2 11.6.4 1.9 1.2 2.5 3.2 2.5 4.2 0 4.4 1.3.5 3.1-4 1.9-4 3.4.1 3.4 4.2 0 8.7 3.4 11.1 8.2 1.4 3 3.2 5 5.6 6.1 7 3.3 6.9 2.1-.7-9.1-10.2-14.9-11-16.3-13.1-22.4-.3-.9-1.9-1.9-3.6-2.3-1.7-.4-3.1-1.3-3.1-2.1s.1-1.4.3-1.4c.1 0 2-.7 4.2-1.5 5.5-2 8.9-1.8 13.4.5zm796.9 12.2c1.4 1.4 1.6 2.8.2 2.8-.5 0-1.4-.9-2-2-1.2-2.2-.1-2.7 1.8-.8zm-141.1 23.3c2.3 2 2.5 2.4 1 2.5-2.3 0-7.7-2.8-7.7-4 0-1.9 3.9-1 6.7 1.5zm168.3-1.5c0 .5-.7 1-1.6 1-.8 0-1.2-.5-.9-1 .3-.6 1-1 1.6-1 .5 0 .9.4.9 1zm-152 6.6c0 1.6-2.6 1.9-3.5.4-.4-.6-.4-1.8-.1-2.7.5-1.2.9-1.3 2.1-.3.8.7 1.5 1.9 1.5 2.6zm-403.8 75.6c37.1 42.5 71.4 81.8 76.2 87.3 4.8 5.5 9 10.6 9.3 11.3.3.7-1.7 3.8-4.3 6.9-8.7 10.2-144.6 165.7-147.1 168.3l-2.4 2.5-5-5.5c-7.5-8.4-18.9-23.4-26.2-34.5-20.8-31.9-35.3-73.7-38.7-111.5-6.4-72.7 15.2-139.9 62.3-193.7 4-4.5 7.5-8.2 7.8-8.3.3 0 30.9 34.8 68.1 77.2zm305-71c26.3 30 45.6 64.9 55.4 100.6 7.7 28.1 9.9 47.1 9.1 77.7-.6 22.7-2.5 36.6-7.8 57.2-7.4 28.8-23.3 61.8-41.7 86.7-7.9 10.5-20 24.6-21.3 24.6-1.2 0-152.7-173.3-153.6-175.8-.5-1.3 6.5-9.6 71.1-83.7 72-82.5 81.7-93.5 82.5-93.5.4 0 3.2 2.8 6.3 6.2zm296.6-2.4c-7.1 8.4-17.6 15.9-29 20.9-9.1 4-11.6 3.8-3.6-.3 7.9-4 20.3-12.1 27.6-18.1 7.3-6 8.4-6.6 5-2.5zm-215 .6c.3 1.2-.1 1.7-1 1.4-.7-.3-1.5-1.3-1.6-2.2-.3-1.2.1-1.7 1-1.4.7.3 1.5 1.3 1.6 2.2zm192-1.9c-1.1 1.1-6.8 2.3-6.8 1.5 0-.5.8-1.1 1.8-1.3 2.5-.7 5.6-.8 5-.2zm-184.4 5.2c.8 2.1-1 4.1-2.4 2.7-1.1-1.1-.3-4.4 1-4.4.4 0 1.1.8 1.4 1.7zm8.4 1.7c.3 1.3-.1 1.7-1.4 1.4-1.1-.2-2-1.1-2.2-2.2-.3-1.3.1-1.7 1.4-1.4 1.1.2 2 1.1 2.2 2.2zm120.2-1c0 .8-10 3.8-11.3 3.3-.6-.2 1.1-1.1 3.8-2 5.2-1.6 7.5-2 7.5-1.3zm-123 9.1c0 .8-.9 1.5-2 1.5-2 0-2.6-1.1-1.3-2.3 1.2-1.3 3.3-.7 3.3.8zm6.5 3.6c1 1.5-.1 2.3-2 1.5-.9-.3-1.3-1-1-1.6.8-1.3 2.2-1.3 3 .1zm128 1c-1.1.5-3.3 1.4-5 2-6.1 2.4.4 2 10.6-.6 5.6-1.4 10.9-2.4 11.8-2.2 2.8.6-13.1 7.5-20.9 9-13.4 2.7-16.6 2.9-17.9 1.4-2.3-2.8 1.8-5.8 11.5-8.3 9.3-2.4 13.4-3 9.9-1.3zm-131 4.9c.9 1.4-.4 7-1.6 7-.5 0-.9-.9-.9-2.1 0-1.1-.5-2.9-1-4-.9-1.6-.7-1.9.9-1.9 1.1 0 2.3.5 2.6 1zm-191.7 5.9c-1.3 1.6-23.4 27.2-49.3 56.9-39 44.9-47.2 53.9-48.4 52.9-1-.9-78.2-89.2-96.9-111-1.4-1.6 3.3-1.7 97.7-1.7h99.2zm324.9 1.7c-.3.3-1.2.4-1.9.1-.8-.3-.5-.6.6-.6 1.1-.1 1.7.2 1.3.5zm-7.1 1.3c-.6.9-3.7 1.3-36.4 4.1-33.2 2.9-43.5 5.3-57.2 13.5-10.9 6.5-10.7 4.1.3-3.1 9.5-6.2 20.5-8.7 51.5-11.5 12.5-1.1 26.1-2.4 30.2-2.8 10.9-1.2 12.2-1.2 11.6-.2zm-720.4 16.7c4 1 8.4 1.4 12 1.1 3.2-.3 5.6-.1 5.3.4-1.1 1.7-9.1 3.1-14.2 2.5-6.9-.8-6.9.4-.3 10.8 8.2 12.7 10.6 18.2 7.6 17-2.9-1.1-17-24.2-19.1-31.2-.8-2.7.1-2.8 8.7-.6zm795.8 2c0 .3-1.8 2.6-4 5.1-2.2 2.5-4 5.2-4 5.9 0 1.8 6.5 1.8 15-.1 12.6-2.8 23-1.2 24.6 3.7.6 2.1-1 3.9-3 3.3-12-3.9-14.8-4.4-19.7-3.5-2.9.6-7.9 1-11.1 1-5 0-6.5-.4-9-2.5-3.4-2.8-5-3.1-6.7-1.1-.6.8-3.4 2.3-6.1 3.5-2.8 1.2-5 2.7-5 3.5 0 1.5 2.4 3.6 6.3 5.6 2.8 1.4 3.6 3 1.5 3-.7 0-3.3-.5-5.8-1-9.7-2.2-9.1-1.8-7.8-4 2.2-3.4 0-4.1-9-2.8-4.5.7-8.5.8-8.9.4-2.3-2.3 13-9.3 23.2-10.6 6.1-.8 10.1-2.1 17-5.5 8.1-4.1 12.5-5.5 12.5-3.9zm-776.3 6.6c-.3.8-.6.5-.6-.6-.1-1.1.2-1.7.5-1.3.3.3.4 1.2.1 1.9zm-213.7 5c0 2.8-.3 3.9-1 3.2-.9-.9-.3-7.4.6-7.4.2 0 .4 1.9.4 4.2zm205.6-.4c.6.4 2.8 2.8 4.8 5.5 2.8 3.7 3.6 5.6 3.6 9 0 2.4-.6 5.2-1.4 6.2-1.4 1.9-1.4 1.9-8.8-14.3-2.5-5.5-1.6-8.7 1.8-6.4zm717.4 3.3c0 2-2.1 4.9-3.5 4.9-1.8 0-2-3.1-.3-4.8 1.5-1.5 3.8-1.6 3.8-.1zm53 4.9c0 1.1-.4 2-.9 2-1.4 0-2.3-1.8-1.6-3 1-1.7 2.5-1.1 2.5 1zm13.7 2.6c-.9.9-2.8-.6-2.1-1.8.4-.6 1-.6 1.7.1.6.6.8 1.3.4 1.7zm18.3-.1c0 .8-.9 1.5-2 1.5s-2-.7-2-1.5.9-1.5 2-1.5 2 .7 2 1.5zm-12.5.5c.3.5-.1 1-1 1s-1.3-.5-1-1c.3-.6.8-1 1-1 .2 0 .7.4 1 1zm-72.1 3.5c.3.8-.3 1.9-1.3 2.4-2.1 1.2-3.1.5-3.1-2.1 0-2.2 3.5-2.5 4.4-.3zm14.8 7.7c-.7.7-1.2.8-1.2.2 0-1.4 1.2-2.6 1.9-1.9.2.3-.1 1.1-.7 1.7zm-938.3 8.6c.6 4.1 1.8 8.7 2.6 10.3 1.8 3.4.6 3.8-2.1.8-1.5-1.6-2-4-2.3-10.8-.1-4.7-.1-8.4.2-8.1.3.3 1 3.8 1.6 7.8zm916.7-5.2c-.5 1.4-.9 1.5-1.9.5-.9-.9-.9-1.4.3-2.1 1.8-1.1 2.4-.6 1.6 1.6zm18.4 4.8c0 2 1.3 2.7 6.8 3.5 8.6 1.2 6.2 7.2-3.7 9.1-23.9 4.7-30.8 7.6-40 16.7-6.8 6.8-8.4 7.6-7.9 4 .6-4.2 21.5-18 31.3-20.5 2.2-.6 6.1-1.6 8.8-2.3 2.6-.6 5-1.6 5.3-2.1.4-.5-.6-2.2-2.1-3.8-1.7-1.7-2.5-3.5-2.2-4.4.8-2 3.7-2.1 3.7-.2zm-17.7 2.1c.1.5-.6 1.1-1.5 1.3-1.1.2-1.8-.3-1.8-1.3 0-1.7 3-1.8 3.3 0zm13.2 22.4c.7 1.3-4.8 7.5-8.8 10-3.5 2.1-11.7 4.4-11.7 3.2 0-1.5 7.2-7.5 12.7-10.7 6.4-3.7 6.9-3.8 7.8-2.5zm53.3.8c-.2 1.1-2.1 2.4-5 3.4-2.6.8-6.7 2.9-9 4.5-2.4 1.7-5.5 3.5-7 4.2-3.3 1.4-3.6 3.7-.9 5.2 1.4.7 3.5.6 7-.2 5.9-1.3 8.7-.7 22.9 5.3 5.1 2.2 11.5 4.4 14.2 5 2.8.6 5 1.5 5 2s-3.2.9-7.1.9c-6.3 0-8.2-.5-16.3-4.2-8.7-4.1-9.5-4.3-18.6-4.2-10 0-12.2.7-34 10-8.3 3.5-20.2 4.5-25.8 2-2.2-.9-8.8-1.9-16.4-2.5-18.5-1.3-22.9-4.9-10.5-8.6 7.8-2.3 10-2 11.7 1.8 1.5 3.1 1.7 3.2 8.5 3.5 16.1.7 33.6-3.9 46.6-12.2 4.6-3 11.7-7.6 15.8-10.2 10.9-7 19.7-9.6 18.9-5.7zm-109.6 2.9c-.5 2.2-10.7 14.1-13.6 15.6-1.3.7-11.5 1.5-26.1 1.9-13.2.4-24.9 1.1-26 1.5-3.9 1.5.4-2.4 5.2-4.7 4.2-2 5.8-2.2 17.7-1.9 28 .8 28.4.7 36.2-9 4.8-5.8 7.2-7.2 6.6-3.4zm-684.2-1.2c0 .2-.7.7-1.6 1-.8.3-1.2.2-.9-.4.6-1 2.5-1.4 2.5-.6zm842.8 1.5c7.2 3.7 10.7 9.7 7.6 13.2-2.8 3.1-7.1 1.6-4.4-1.6 1.6-2 .4-5.1-3.1-7.5-2.7-2-5.7-6-4.4-6 .3 0 2.2.9 4.3 1.9zm-146.8 0c0 1.2-6.3 5.1-8.3 5.1-1.9 0-3-2.7-1.5-3.6 1.2-.7 6.3-2.1 8.6-2.3.6-.1 1.2.3 1.2.8zm131.5 2.1c.3.5.2 1-.4 1-.5 0-1.3-.5-1.6-1-.3-.6-.2-1 .4-1 .5 0 1.3.4 1.6 1zm-114 1c-.3.5-1 1-1.6 1-.5 0-.9-.5-.9-1 0-.6.7-1 1.6-1 .8 0 1.2.4.9 1zm103.5 1c0 .5-.4 1-1 1-.5 0-1-.5-1-1 0-.6.5-1 1-1 .6 0 1 .4 1 1zm-837 1.5c0 .8-.7 1.5-1.5 1.5-1.6 0-2-1.2-.8-2.3 1.1-1.2 2.3-.8 2.3.8zm25.8-.3c1.7 1.7 1.5 6.9-.4 9.6-2.1 3-6.4 3-6.4-.1 0-2.7 3.6-10.7 4.8-10.7.4 0 1.3.5 2 1.2zm827.7 1.9c0 .7-.8 1.5-1.7 1.7-1.8.3-2.5-1.8-1.1-3.2 1-1 2.8-.1 2.8 1.5zm-9.7-.2c1.1.6 1 1.1-.3 2.5-2.2 2.1-3.5 2-3.5-.2 0-3 1.4-3.9 3.8-2.3zm-109.1 3.7c-.9.9-2.8-.6-2.1-1.8.4-.6 1-.6 1.7.1.6.6.8 1.3.4 1.7zm99.3.4c0 .5-.7 1-1.6 1-.8 0-1.2-.5-.9-1 .3-.6 1-1 1.6-1 .5 0 .9.4.9 1zm-842 1.4c0 .3-19.4 16.7-26 22-1.4 1 1.6-2.1 6.5-7.1 10.6-10.5 19.5-17.4 19.5-14.9zm17.8 5c1.5.8 4.5 3.4 6.7 5.7l4 4.3-4-3.5c-2.2-1.9-5.5-4.1-7.3-4.8-1.7-.7-3.2-1.7-3.2-2.2 0-1.2.7-1.1 3.8.5zm820.2-.4c0 .5-.4 1-.9 1-.6 0-1.3-.5-1.6-1-.3-.6.1-1 .9-1 .9 0 1.6.4 1.6 1zm-168 2.9c0 1.4-1.8 2.3-3 1.6-.6-.4-.8-1.1-.5-1.6.8-1.2 3.5-1.2 3.5 0zm-637.8 2.3c-.7.7-1.2.8-1.2.2 0-1.4 1.2-2.6 1.9-1.9.2.3-.1 1.1-.7 1.7zm650.4.3c.7 1.8-1.3 4.5-3.3 4.5-1.7 0-2.7-2.4-1.9-4.5.7-2 4.5-1.9 5.2 0zm21.2 8.8c-5.4 4.9-5.8 8-1.7 12.3 4.2 4.3 2.9 4.4-9.5.8-8.9-2.6-9-2.6-17.2-1-11.2 2.2-15.9 2.1-18.4-.4-2.7-2.7-2.5-7.1.5-10.4 2.8-3 4.1-3.1 16.7-1.4 7.7 1 9.6 1 14.1-.5 2.9-.9 5.9-1.8 6.7-2.1.8-.2 4-.5 6.9-.5l5.5-.1zm36 5.1c.3 1.2-.1 1.7-1 1.4-.7-.3-1.5-1.3-1.6-2.2-.3-1.2.1-1.7 1-1.4.7.3 1.5 1.3 1.6 2.2zm63.2 1.1c3.3 1.7 3.6 2.5 1.8 4.3-1.5 1.5-5 1.6-6.5.1-2.9-2.9-10.9-3-21.3-.3-2.3.6-2.4.5-.9-1 4.1-4.4 20.8-6.2 26.9-3.1zm25 6.2c0 1-.7 3.7-1.6 6-3.6 9.4 2 11.8 14.4 6.4 9.6-4.2 11.8-4.6 14.7-2.7 1.7 1.1 2.5 2.6 2.5 4.5 0 2.4-.6 3.1-3.1 4-4.7 1.6-5.3 1.4-3.5-1.4 3-4.5 1.9-4.6-7.4-.5-5.9 2.6-8.7 3.1-21.2 4-17.7 1.3-19.8 1.8-22.3 5.8-1.1 1.7-2.6 3.1-3.3 3.2-.7 0-3.1-1.7-5.5-3.9-7.9-7.2-11.7-7.8-11.7-1.8 0 2.8.9 4.2 4.5 7.6 4.4 4 4.4 4.1 1.7 4.1-4.6 0-8.8-3.5-13-10.7-2.2-3.7-4.9-7.6-5.9-8.5-2.7-2.5-8-4.5-14-5.3-8.1-1.1-6.4-4.8 3-6.5 3.6-.7 5.2.2 2.2 1.4-2.7 1-1.6 2.5 2.7 3.7 2.4.6 6.5 2.3 9.3 3.8 4.9 2.5 5.5 2.6 22.7 2.6 20.1 0 21.2-.4 25.7-8.6 1.3-2.4 3-5.4 3.8-6.7 1.6-2.6 5.3-3 5.3-.5zm-144 4.8c0 .8-.7 1.5-1.5 1.5-1.6 0-2-1.2-.8-2.3 1.1-1.2 2.3-.8 2.3.8zm48-.6c-2.2 1.2-9.9 2.3-11.2 1.5-1.9-1.2 1.6-2.4 7.2-2.4 3.5.1 4.9.4 4 .9zm42.8 2.3c-.6 1.8-2.8 2.1-2.8.4 0-.9.7-1.6 1.6-1.6.9 0 1.4.5 1.2 1.2zm-96.8 2.8c0 .5-.7 1-1.5 1s-1.5-.5-1.5-1c0-.6.7-1 1.5-1s1.5.4 1.5 1zm22.5 3c0 3.6-2.9 3.3-3.3-.3-.3-2.3 0-2.8 1.5-2.5 1.2.2 1.8 1.2 1.8 2.8zm163.7-1.5c0 .5-.5 1.1-1.1 1.3-.6.2-1.1-.4-1.1-1.3s.5-1.5 1.1-1.3c.6.2 1.1.8 1.1 1.3zm-175.2.5c0 .5-.5 1-1.1 1-.5 0-.7-.5-.4-1 .3-.6.8-1 1.1-1 .2 0 .4.4.4 1zm21-.1c0 1.2-2 2.5-2.7 1.8-.7-.7.6-2.7 1.8-2.7.5 0 .9.4.9.9zm32.5 3.1c-.3.5-1.5 1-2.5 1-4.5 0-3.4 2 7.7 14.6 3.5 4 6.3 7.5 6.3 7.8 0 .3-1 .6-2.3.6-3 0-10.1-6.1-13.2-11.3-1.3-2.3-4.2-6-6.4-8.1-2.2-2.2-3.8-4.3-3.5-4.8.3-.4 3.7-.8 7.5-.8 4.4 0 6.8.4 6.4 1zm9.5 1c0 .5-.7 1-1.5 1s-1.5-.5-1.5-1c0-.6.7-1 1.5-1s1.5.4 1.5 1zm-821 .8c0 3.1-12.8 11.1-17.8 11.2-4.1 0-2-2 7.3-7 9.5-5.1 10.5-5.5 10.5-4.2zm821 7c0 3.9-4.4 5.7-5.5 2.2-.9-2.7.1-4 3.1-4 1.6 0 2.4.6 2.4 1.8zm6-.3c0 .8-.4 1.5-1 1.5-.5 0-1-.7-1-1.5s.5-1.5 1-1.5c.6 0 1 .7 1 1.5zm76.5 4.5c0 1.8-.6 2.6-2.3 2.8-2.4.4-3.8-1.8-2.8-4.4.3-.9 1.5-1.4 2.8-1.2 1.7.2 2.3 1 2.3 2.8zm-63.7.8c.4 2.9-2.6 4.2-4.4 1.8-1.7-2.4-.6-4.8 2-4.4 1.3.2 2.2 1.2 2.4 2.6zm-9.8 4.8c4 3.6 5.2 6.4 2.8 6.4-2.1-.1-10.8-6.9-10.8-8.5 0-2.6 3.9-1.6 8 2.1zm82.7-1c.8 2.1-1.3 4.2-2.8 2.7-1.3-1.3-.5-4.3 1.1-4.3.6 0 1.3.7 1.7 1.6zm8.3 2.9c0 .8-.7 1.5-1.5 1.5-1.6 0-2-1.2-.8-2.3 1.1-1.2 2.3-.8 2.3.8zm-511.2 8.4c1 1.1 22.3 25.5 47.4 54.4 25.2 28.8 46.7 53.6 47.9 55l2 2.7h-199.3l2.7-3.3c4.9-5.8 79-90.9 87.9-101 4.8-5.3 8.9-9.7 9.2-9.7.3 0 1.3.9 2.2 1.9zm509.2-.9c0 .5-.7 1-1.5 1s-1.5-.5-1.5-1c0-.6.7-1 1.5-1s1.5.4 1.5 1zm-41.9 5c2.4 1.3 2.5 3.6.2 4.5-1 .4-5.8 1-10.6 1.2-6.2.4-9 1-9.4 1.9-1 2.6.7 6.2 5.2 11.2 6.3 7 6 9.4-.6 4.9-5.3-3.5-8.2-8.5-7.4-12.7.9-5.1 3.1-7.9 7.8-10.1 4.6-2 11.7-2.5 14.8-.9zm60.9 6.5c0 .8-.7 1.5-1.5 1.5-1.6 0-2-1.2-.8-2.3 1.1-1.2 2.3-.8 2.3.8zm-8 2c0 1.6-2.7 3.2-3.7 2.2-.3-.4-.3-1.3 0-2.2.8-2 3.7-2 3.7 0zm-849.8 8.6c2 .5 5.3 1.6 7.4 2.5l3.8 1.6-2.8 1.5c-2 1-4 1.3-6.5.8-2-.4-5.8-1-8.6-1.5-2.7-.4-5.9-1.1-7-1.5-1.1-.5-.5.5 1.5 2.3l3.5 3.1-3.3.1c-1.9 0-4.5.9-5.9 2-1.4 1.1-3.4 2-4.4 2-1.2 0-1.9.7-1.9 2 0 2.4-1.3 2.6-3 .5-1.9-2.2-3.2-1.8-2 .6.7 1.1 1 2.2.8 2.4-.2.2-3.2-1.6-6.8-4-7.2-5.1-8.7-5.6-6.4-2 1.8 2.7 1.3 3.1-1.7 1.4-1.7-.9-2.1-.7-2.6 1-.4 1.4-1.3 2.1-3 2.1-2.8 0-10.3-3.6-10.3-4.9 0-2.5 1.6-4.4 5.1-6.2 2.2-1.1 3.9-2.4 3.9-2.9 0-.6 3-1 6.8-1 5.5 0 7.6.6 12 2.9 5.5 3.1 5.8 3.1 4.2.2-1.4-2.8 1.1-5.3 6.1-6.2 4.9-.8 15.5-.2 21.1 1.2zm17.2.5c.9.3 1.6 1 1.6 1.5 0 1.5-3.7 1-5-.6-1-1.2-1-1.5.3-1.5.8 0 2.2.3 3.1.6zm2.5 7.8c-.2.2-7.1 3.4-15.4 7.1-23 10.3-21.5 9.7-21.5 8.2 0-1.9 18.1-11.6 23.8-12.7 2.6-.5 6.1-1.4 7.7-1.9 3.2-1 6.1-1.4 5.4-.7zm-82.1 5.1c3.7 1.6 8.2 5.2 8.2 6.6 0 .4-1.2.9-2.6 1.1-2.6.3-2.5.4 2 3.7 2.6 1.8 4.5 3.5 4.2 3.8-.2.3-4.4-1.2-9.3-3.2-10.8-4.5-15.1-6-15.8-5.3-.3.2 1.7 2.9 4.5 5.9 2.7 3 5 5.7 5 6.1 0 1.8-15.2-1.7-24.5-5.6-8.2-3.5-9.6-3.3-5.9.6 2.7 2.9 3 3.6 2 6-.5 1.6-1.5 2.8-2.2 2.8-2.1 0-12.8-8.5-16.3-12.9-4-5.1-3.1-7.1 3.3-7.1 2.3 0 4.7-.5 5.3-1.1 2.9-2.9 35.7-4 42.1-1.4zm76.2 6.1c-2.3 6-12.2 19.4-16.4 22.4-2.4 1.6-6.2 5-8.4 7.5-2.3 2.6-4.8 4.5-6 4.5-1.3 0-3.7 2.1-6.6 5.8-4.8 6-7.9 8.7-13.3 11.5-7.2 3.8-8 1.4-2.8-9 2.4-4.9 4.6-7.6 7.2-9.4 2.3-1.4 4.9-4.5 6.6-7.7 2.1-3.8 3.4-5.2 5-5.2 1.2 0 3.1-.7 4.1-1.5 1.1-.8 2.7-1.5 3.5-1.5 2.3 0 10.2-6.3 18.7-15 5.1-5.1 7.7-7.1 8.4-6.4.8.8.7 2 0 4zm783-1.6c0 .5-.9 1-2 1s-2-.5-2-1c0-.6.9-1 2-1s2 .4 2 1zm-924.9 5.6c6.2 1.8 10.2 4.1 9.4 5.4-.3.5 2.3 3.2 5.7 6.1 8.2 6.7 8.5 7.8 1 3.4-8-4.6-9.8-4.4-4.2.5l4.5 3.9-6.3-2c-3.7-1.2-7-1.8-8-1.3-.9.4-2.3.6-3.1.5-1.1-.2-1 .3.4 2.5 1.7 2.6 1.7 2.7-.1 1.9-1.1-.4-3.5-1.1-5.4-1.6-5.8-1.3-12.4-2.9-14.2-3.6-2.7-.8-2.2 1.9.7 4.7 2.9 2.7 2.6 3.7-.5 2-1.6-.9-2.5-.9-3.3-.1-1.4 1.4-11.4 1.5-12.2.1-.3-.6-1.6-1-2.8-1-4.5 0-8.8-5.7-6.8-8.8.6-1 15.2-6.2 24.2-8.6 3-.9 6.4-2.5 7.4-3.6 2.2-2.4 6.2-2.6 13.6-.4zm106.5 2.3c-2 2.2-15.8 7.6-32.3 12.6-35.5 10.8-78.4 18.6-109.3 19.9l-12.5.5 8-1.4c4.4-.8 14.3-2.1 22-3 7.7-.8 19.9-2.6 27-4 7.2-1.3 17.3-3.1 22.5-4 5.2-.9 14.5-2.9 20.5-4.5 10.7-2.8 42.5-13.4 49.5-16.4 5-2.2 6.8-2.1 4.6.3zm717.8 12.8c.9 3.4-.6 6.9-2.6 5.7-1.5-1-2.9-5.5-2.2-7.6.9-2.9 3.7-1.7 4.8 1.9zm-10.7 0c2.7 3 6.3 9.5 6.3 11.4 0 1.6-4.8 7.9-6.1 7.9-3.1 0-6.8-13.4-5.3-19.4.8-3.3 1.9-3.3 5.1.1zm17.7-.4c1.2 1.9.3 3.2-1.9 2.4-1.7-.7-2.1-5.1-.3-4.5.6.2 1.6 1.2 2.2 2.1zm92.3 2.3c-.3.3-1.2.4-1.9.1-.8-.3-.5-.6.6-.6 1.1-.1 1.7.2 1.3.5zm-6.9 3.1c-.4 2.2-4.8 3.1-4.8 1 0-1.9 1-2.7 3.2-2.7 1.3 0 1.8.6 1.6 1.7zm-110.2 9.5c1.3 2.6 2.4 5.8 2.4 7 0 3.2-2.7 6.8-5.1 6.8-3.6 0-6.9-11.8-5.5-19.5l.7-3.7 2.6 2.3c1.4 1.3 3.6 4.5 4.9 7.1zm134.4-8.2c0 .5-1.8 1-3.9 1-2.2 0-4.3-.5-4.6-1-.4-.6 1.2-1 3.9-1 2.5 0 4.6.4 4.6 1zm-33.9 1.8c2.9 2.4 2 4.8-2.2 5.7-3.7.8-5.9-1.1-5.9-5.2 0-1.9.5-2.3 2.9-2.3 1.6 0 3.9.8 5.2 1.8zm-942.6 5.3c1.4 2.2-.3 1.8-2.6-.7-2.3-2.5-2.3-2.6-.2-1.5 1.2.6 2.5 1.6 2.8 2.2zm115.4 9c-3.4 5.6-8 12.3-10.1 15-3.3 4.2-4.4 4.9-7.3 4.9-3.2 0-3.6-.3-4.2-3.1l-.6-3.1-6.1 6.1c-6.3 6.2-8.5 7.2-10.5 4.7-1-1.1-.9-2.1.4-4.6.9-1.8 1.5-3.4 1.2-3.6-.2-.2-3.1 1.6-6.3 4.2-8.8 6.8-10.6 7.6-15.5 6.5-6.3-1.4-6.9-3.4-2.5-9.4 2.7-3.8 19.5-17.1 26.9-21.5 5.8-3.4 8.7-3.6 8.7-.7 0 2.7 2.9 1.6 6.9-2.5 4.1-4.2 5.4-5 4.5-2.5-.9 2.3 2.5 3 5.6 1.1 3.8-2.2 4.3-2 3.6.9-.8 3.2-.2 3.1 5.9-.9 2.8-1.8 5.2-2.9 5.3-2.4.2.4-2.4 5.4-5.9 10.9zm763-9c2.2 6.4.6 9.3-3.9 6.9-1.8-1-2.1-1.8-1.6-4.2.6-3.2 2.3-5.8 3.6-5.8.5 0 1.3 1.4 1.9 3.1zm25.8-.9c2.3 2.5 5.3 8.1 5.3 9.8 0 1.3-8.5 1.3-11.1 0-3.7-2-1.6-12 2.6-12 .6 0 2.1 1 3.2 2.2zm13.3-1.2c2.6 1.4 4.6 7.6 3 9.5-1.8 2.2-5.7 1.8-7.4-.7-2.1-2.9-2-5.7.1-8 1.9-2.1 1.9-2.1 4.3-.8zm12.7 1.1c4.7 2.9 4.3 6.4-.6 6.4-4 0-5.7-2.1-4.7-5.8.8-3.2 1-3.3 5.3-.6zm51.7-1.2c.8 1.2-4.1 2.3-6.5 1.6-1-.4-1.9-1.1-1.9-1.6 0-1.2 7.7-1.2 8.4 0zm-91.9 2.5c.9 1.3 1.9 4 2.2 6 .7 4.4-1 5.3-6.1 3.2-3-1.3-3.6-2-3.6-4.6 0-6.7 4.4-9.4 7.5-4.6zm-60 3.6c.7 1.4 2.3 5.4 3.5 8.9 1.6 4.9 1.8 6.6.9 7.7-1.4 1.7-5.1 1.8-6.6.3-.7-.7-1.6 0-3.1 2.5-1.2 2-2.8 3.6-3.6 3.6-.8 0-3.6 1.1-6.2 2.5-5.3 2.8-9.2 3.2-10 1-.4-.8.1-4.7 1-8.6.9-3.9 1.6-8.5 1.6-10.1 0-3.8 2.7-4.9 5-2 1 1.2 2.1 4.3 2.4 6.9 1 6.8 1.6 8.4 2.8 7.7.7-.5.9-3.8.4-10-.4-5.4-.2-9.5.3-9.8 1.2-.8 3.7 1.7 5.7 5.6 2.2 4.2 2.6 3 1.3-3.1-1.3-6.2-.7-9 1.7-7 .8.7 2.1 2.4 2.9 3.9zm37.5-1.9c2 3.7.6 5-5.2 4.7-6.4-.4-7.1-2.4-1.8-5 4.5-2.3 5.7-2.3 7 .3zm118.4.5c2.3.9 1.9 2.1-.9 2.8-2.7.7-6.5-.8-6.5-2.4 0-1.1 4.9-1.3 7.4-.4zm6.4 5c3.4.9 2.6 2.4-1.2 2.4-3.4 0-5.2-1.1-3.9-2.4.8-.7 2.1-.8 5.1 0zm-191 6.6c1.6 1.6 1.5 12.9-.1 15.2-.7.9-3.1 2-5.4 2.3l-4.1.5 3.4-8.3c1.8-4.6 3.4-9 3.4-9.7 0-1.5 1.2-1.6 2.8 0zm-10.2 6.4c-1 8.3-2 10.2-6 11-6.6 1.2-7 .2-2.4-7.3 7.2-12 9.5-13 8.4-3.7zm-13.2 0c-.2 7.2-1.6 9.4-6.2 9.4-3.8 0-10.3-2.8-10.9-4.7-.2-.6 2-3.1 4.8-5.7 4.5-4 5.7-4.7 8.8-4.4l3.6.3zm-680.2 43.5c2.9.6 7.4 2.2 10 3.5 6.4 3.2 7.8 3.1 7.8-.6 0-1.7.4-3 .9-3 1.2 0 3.8 2.6 5.1 5.1.6 1 1.7 1.9 2.6 1.9 2.7 0 10.7 4.7 20.2 11.8 10.9 8.2 14.9 10.2 16.3 8.1 2.6-4.1.1-13.4-6-22.3-1.7-2.5-3.1-4.7-3.1-5 0-1.6 3.9-.3 5.9 1.8 3.7 3.9 10.1 14.9 10.1 17.3 0 6.1 8.5 10.7 21.8 11.9 6.6.6 7.3.9 7 2.8-.4 2.9 2 2.7 3.5-.4 1.4-2.9 4.7-4 4.7-1.6 0 1.1.9 1.6 2.6 1.6 2.3 0 2.5-.3 2-2.5-.6-2.3-.4-2.5 2.5-2.5 1.8 0 5.3-1.2 7.8-2.7 2.5-1.5 6.2-2.9 8.1-3.3 3.2-.5 3.5-.8 3.2-3.7-.5-4.9 2.2-9.3 5.8-9.3 2.2 0 3.3-.7 4.4-2.8l1.4-2.7.7 2.8c1.1 4.1-.2 12.7-2.1 14.8-.9 1-4 2.7-6.8 3.8-3.4 1.2-5.6 2.8-6.6 4.6-.9 1.6-2.2 3.2-3 3.6-5.1 2.7-10.3 5.2-15.8 7.5-4.8 2-10.2 7.5-10.2 10.4 0 1.1-2 4.2-4.5 7l-4.5 5.1v-3.6c0-2 1.1-6.3 2.6-9.6 3.8-9.3 3.9-9.2-10.6-10.5-9.4-.8-14.1-1.7-19.2-3.7-8.9-3.6-15.3-4.5-17.6-2.4-.9.8-3 1.9-4.7 2.3-4.6 1-5.5 2.3-5.5 7.1 0 7.1-5.1 15-10.7 16.8-2.8.8-2.8.4-.3-3.7 2.9-4.7 2.6-10.4-.9-17.3-3.3-6.5-4.4-7.5-8.3-7.5-1.5 0-4.3-.8-6.2-1.7-3-1.4-4.1-1.5-7.3-.4-3.2 1-4.4 1-7.5-.3-4.8-2.1-14.1-2.1-15.8-.1-1 1.2-.8 2.1.9 4.8 2.8 4.6 2.7 5.4-1.1 7.3-1.8.9-4.7 3.1-6.5 5-3.2 3.4-8.4 4.7-9.8 2.4-1.3-2.1-5.4-.9-8.4 2.5-3.8 4.4-4.8 7.9-3 11.2 1.3 2.4 1.1 2.7-2.2 5.7-1.9 1.7-4.3 4.4-5.3 5.9-2.1 3.4-6.7 6.3-12.1 7.8-2.2.6-5.8 2.8-8 4.9-4.1 4-12.2 8.3-13.8 7.3-.5-.3 1-2.5 3.4-4.9 4.2-4.3 4.3-4.4 2.3-6.5-1.8-2.1-1.8-2.1.1-3.6 1.1-.8 5.1-3 8.8-5 3.7-2 7.7-4.8 8.8-6.2l2.1-2.6-7.9-.8c-17.6-1.7-20.7-3.6-8.3-5.1 6-.7 8.8-.5 14.2.9 9.2 2.4 10.8 1.7 10.8-4.6 0-5.7-1.3-6.2-6.3-2.7-4.6 3.3-12 3.5-18.2.5l-5-2.4 6.5-1.4c5-1.1 6.7-1.9 7.5-3.7.9-2 1.7-2.2 7.7-2.2 10.1 0 10.3-3 .7-8.1-3.2-1.7-5.6-3.5-5.3-4 .8-1.4 3.6-1.1 5.4.6 1.3 1.2 2.3 1.3 4.4.5 2-.7 4.7-.6 9.8.5 3.9.8 7.5 1.2 8 .8.6-.3.8-2.1.5-3.9-.6-3.3-.5-3.4 2.9-3.4 2 0 4.4-.5 5.5-1.1 2-1 2-1.2.3-3-.9-1-4.2-2.4-7.4-3-6.6-1.3-8.5-2.2-7.6-3.8 1-1.5 10.9-1.3 18.1.4 8.9 2.2 11.2 2 11.9-1 .8-3.3 2.3-3.2 9.8.9 6.4 3.5 16.4 6.6 21.2 6.6 1.9 0 2.6-.5 2.6-1.9 0-1.1.2-2.6.5-3.3.4-1-.6-1.8-3.3-2.6-2.2-.7-4.5-1.9-5.2-2.7-.7-.8-2.3-1.5-3.7-1.5-2.4 0-7.1-2.1-15.3-6.9l-4.5-2.6 3-.6c4.6-1 5-1 10.7.2zm677.7 6.8c2.9 4 2.6 5.8-1.1 8.1s-10.7 4.4-11.6 3.6c-.3-.3-.1-1.6.5-2.9 1.2-2.6 8.5-11.5 9.5-11.6.4-.1 1.6 1.2 2.7 2.8zm-117.1 11.5c.9 1-2 3.7-13.3 12.1-33.6 25.2-67.4 40-110 48.1-11.7 2.2-17.8 2.7-37 3.1-24.2.6-35.1-.2-54.5-3.8-32-6-65.1-19.5-92.9-37.9-11.5-7.6-25.4-18.3-28.2-21.6-1.3-1.6 8.1-1.7 167-1.1 92.6.3 168.6.8 168.9 1.1zm121 .8c2.2 2.2 1.3 3.9-3 5.8-4.5 2.1-11.8 2.7-11.8 1 0-1.3 10.1-8 12-8 .9 0 2.1.5 2.8 1.2zm3.2 11.4c1.1 1.1 1.2 1.8.3 3.2-1.3 2.1-8.5 2-14-.3-4.3-1.8-3.9-2.4 2.4-4.1 5.3-1.4 9-1 11.3 1.2zm-517.7 14.8c-.3 3.9-2.8 6.5-9 9.2-3.3 1.5-5.6 3.3-6.5 5.1-.7 1.5-3 3.6-5 4.5-2.1 1-4.4 3-5.2 4.6-1.5 2.9-7.6 7.6-14.1 11-2.2 1.1-5.1 3.2-6.4 4.6-2.6 2.7-4.8 2.7-10.1.1l-2.5-1.3 3-1.2c9.5-3.9 14.2-6.8 19.5-11.7 3.2-3 6.2-6.3 6.5-7.3.4-1.2 1.9-2.2 4.1-2.6 4.4-.8 6.9-3.1 5.4-4.9-1.2-1.5 3.2-5.3 12-10.4 6.5-3.7 8.6-3.6 8.3.3zm510.5 19.2c2.6 1.7 2.8 3.1.5 6.4-2.5 3.7-3.4 4-7.2 2.4-4.8-2-7.1-4.3-7.1-7 0-4.1 8.3-5.2 13.8-1.8zm-11 14.6c1.7 1.7 1.5 4.8-.4 5.5-1.8.7-8.4-2.2-8.4-3.6 0-2.6 6.7-4 8.8-1.9zm-709 3c1.7 1.7 1.4 5.7-.8 10.5-2.2 4.9-4.7 5.6-5.2 1.6-.2-1.4-.9-2.8-1.6-3.1-1.4-.4-7.7 5.7-15 14.6-2.4 2.9-4.8 5-5.3 4.7-1.4-.9-1.1-5.9.6-8.1.9-1.2 1.2-3.1.9-5-.5-3-.2-3.5 6.1-7.9 11.4-8.2 17.3-10.3 20.3-7.3zm596.2 3.2c1 2.5 2.4 7.2 3.1 10.6.6 3.3 1.6 6.3 2 6.6.5.3.9 1.8.9 3.3 0 1.6.9 4.9 2 7.3 2.3 5.2 5.7 25 6.5 38.1 1.1 16.4 1.8 17 7 6.7 1.9-3.8 4.9-8.5 6.6-10.5l3.1-3.5-.7-9.3c-1-12.5.7-10.3 3.4 4.7 2.5 13.7 3.2 15.3 9.6 22.4 2.6 2.9 4.4 5.2 4 5.2-1 0-6.5-3.9-9.7-6.8-3.4-3.1-5.1-2.1-4.2 2.5.5 2.6.4 3.4-.5 2.9-.7-.4-1.1-3.8-1.1-8.7 0-11.3-1.7-10.7-8.1 2.8-5.7 12.3-6.9 18.7-6.9 39.9v12.1l11.7 10.8 11.6 10.8 1.2-3.9c.6-2.2 1.9-5.1 2.7-6.4.9-1.4 2.2-4.4 2.9-6.8l1.2-4.3 2 3.1 1.9 3-2.6 3c-2.5 3.1-6.1 12.9-7.2 20.1-.4 2.2-.9 3.9-1.3 3.9-.3 0-1.6-2.1-2.9-4.8-4.7-9.9-20.1-25.6-23.2-23.7-.5.3-1.7 2.2-2.5 4.1-1.6 3.9-5.1 4.9-4.2 1.1 4.1-15.7 4.1-15.8 4.2-44.2 0-17.8-.5-30.5-1.3-35-3.1-17.4-4.2-22.7-7.1-33.7-1.7-6.4-4.2-14.7-5.6-18.4-1.4-3.6-2.5-7.3-2.5-8 0-2.9 2.1-1.2 4 3zm-5.2 3.1c2 5.9 1 7.7-1.6 2.8-1.2-2.3-2.2-5-2.2-5.8 0-2.9 2.5-.9 3.8 3zm132.1-1.1c.9 1 .9 1.6.1 2.1-1.6 1-4-.2-4-2 0-1.9 2.4-2 3.9-.1zm-542.5 3.1c.3.8 2.2 2.3 4.4 3.4 5.6 2.8 8.2 9.3 4.2 10.6-1.5.5-2 1.5-2 3.9 0 1.9-.7 5-1.5 6.9-.8 2-1.5 5.3-1.5 7.4 0 2.1-1.3 6.6-3 10.1l-3 6.4 3.8 4.4c4 4.7 7.1 5.6 7.9 2.4.8-3.1 2.2-2.4 4.3 2.2 2.5 5.6 2.6 8.3.3 7.3-3.7-1.6-5.6-1.1-6.4 1.8-.4 1.5-1.9 4-3.2 5.7-1.4 1.6-2.8 4.4-3.2 6.2-1.3 6.8-1.3 6.7-4.5 5.5-2.5-.9-3.3-.8-4.7.6-1.6 1.5-1.6 2.1 0 9.3l1.7 7.6-7.8 8.5c-4.2 4.7-9.3 9.3-11.2 10.3-1.9 1-4.9 3.2-6.7 4.8-1.8 1.7-4.7 3.2-7 3.5-2.7.5-5.6 2.1-8.7 4.8-4.4 3.9-4.9 4.1-7.4 2.9-1.5-.7-6-2.3-10.1-3.7l-7.5-2.4-4.8 2.6c-2.7 1.5-7.2 2.9-10.3 3.2-3 .3-6 1.2-6.6 1.9-1.7 2-3.9 1.7-3.9-.5 0-2.8-1.8-3.6-4.5-2.1-1.3.7-3.1 1-4.1.6-2.8-1.1-.2-2.8 5.3-3.3 2.6-.3 5.5-1.2 6.4-2 .9-.7 5-1.7 9.1-2.2 7.1-.8 13.8-3.2 13.8-5 0-1.7-2.7-3-10.5-5.1-8.3-2.3-12.5-4.3-12.5-6 0-.6 1.3-.4 2.9.5 1.9.9 3.2 1.1 3.6.5.4-.6 5.6-1 12.4-1 13.1 0 18.4-1.2 29.7-6.6 13.1-6.4 21.8-15.4 28.9-29.8 4.2-8.5 4.6-9 7.7-9 2.9-.1 3.3-.4 3-2.6-.2-1.4-.4-4.6-.3-7.3.1-4-.2-4.7-1.8-4.7-1 0-2.4.7-3.1 1.5-.7.8-2.2 1.5-3.5 1.5-1.2 0-4 1.3-6.2 2.9-5.1 3.7-14.3 8.4-15 7.7-1.2-1.2 3-5.8 7.1-7.9 10.1-5.2 12.6-6.9 16.6-11.4 2.3-2.6 5.3-6.6 6.6-8.8 2.4-4.2 4.3-14.2 4.4-22.8 0-2.6.5-4.7 1-4.7.6 0 1 1.1 1 2.5 0 2.7 1.7 3.4 2.6 1 1-2.6-.5-6.3-3.7-9.3-2.3-2.2-3-3.5-2.5-5 .7-2.2 3.1-2 4 .3zm526.8 1.2c2.5 2.3 2.2 4.2-.9 5.4-6.3 2.4-11.1-2-6.1-5.5 2.9-2 4.7-2 7 .1zm-134.1 14.5c-.2 14.7-.8 17.8-4.1 20.8-1.6 1.4-4.2 6.1-6 10.5-1.7 4.4-4.9 11.2-7 15.1-2 3.9-5.4 11-7.5 15.8-3.4 8-3.6 8.9-2.1 9.8 1.5.8 1.4 1.3-1.3 4.4-3.5 3.9-4.5 7.4-6.1 20.4-.6 5.2-1.2 10.5-1.4 11.7-.2 1.3 0 2.3.5 2.3s3.6-2.5 7-5.5c3.4-3.1 9.7-8 14-11 4.2-3 8-5.9 8.4-6.5.8-1.2 2.5-1.3 2.5-.1 0 2.1-5.8 7.6-12.3 11.8-8.1 5.2-15.3 11.6-17.3 15.4-1.3 2.6-1.1 3.4 4.1 13.8 3.1 6.1 7.1 13 8.9 15.4 4.3 5.6 5.7 8.3 4.9 9.1-.3.3.4.6 1.6.6 1.2 0 3.5.7 5.1 1.5 1.6.8 6.4 2 10.7 2.7 9 1.3 10.8 2.3 6.9 3.8-6.9 2.6-18.2-.7-25.1-7.4-5-4.8-14.3-18.8-18.6-28-4.5-9.7-5.9-15.9-5.9-27.2 0-17.2 3.4-30.7 10.8-43 9.4-15.4 22.1-40 24.6-47.6 1.9-5.4 2.6-9.8 2.6-14.9 0-5.4.3-7 1.1-6.2.8.8 1.1 5.2 1 12.5zm156.6-10.1c3.4 1.2 3.5 2.6.4 3.9-5.6 2.3-11.2-.8-8.2-4.4 1.4-1.6 2.4-1.5 7.8.5zm-131.3 21c2.8 13.8 3 14.9 1.8 14.9-.7 0-6.2-25.9-6.2-29.1.1-3.6 2 2.4 4.4 14.2zm114.6-13.8c0 1.9-2.1 3.7-4.2 3.7-1.9 0-2.2-.8-1.2-3.4.7-1.9 5.4-2.2 5.4-.3zm26.1.7c1 .6 1.9 1.7 1.9 2.4 0 2.9-12.8 5.6-13.7 2.9-.7-1.8 4.6-6.3 7.4-6.3 1.3 0 3.3.5 4.4 1zm-150.4 5.2c-.3.8-.6.5-.6-.6-.1-1.1.2-1.7.5-1.3.3.3.4 1.2.1 1.9zm-391.5 4c4.8 5.9 5.2 6.8 3.4 6.8-2.4 0-7.4-5.1-8.2-8.3-.9-3.9.8-3.4 4.8 1.5zm392.5 2c-.3.8-.6.5-.6-.6-.1-1.1.2-1.7.5-1.3.3.3.4 1.2.1 1.9zm160 .2c1.5 1.3 2.4 2.8 2 3.3-.5.4-4.4 1-8.8 1.2-6.6.3-7.9.1-7.9-1.2 0-2.4 4.9-5.7 8.6-5.7 2 0 4.3.9 6.1 2.4zm-158.7 9c0 1.9-.9 5-1.9 6.8-1.1 1.8-3.1 8.9-4.6 15.7-1.5 6.8-3.7 15.8-5 20-1.2 4.2-2.8 10.8-3.5 14.8-1.2 7.4-3.1 10.6-5.2 8.5-.7-.7-.3-3.6 1.7-9.9 1.5-4.8 5.1-18 8.1-29.3 6.4-24.1 8.2-30 9.5-30 .5 0 .9 1.5.9 3.4zm167 1.5c1.4 1 2.6 2.6 2.8 3.5.3 1.4-.7 1.6-7.5 1.6-8.9 0-11.4-1-9.7-3.7 2.8-4.5 9.4-5.1 14.4-1.4zm1.5 9.5c3.8 1.6 6.2 5.4 5.1 8.2-1.2 3.1-15.6.3-17-3.2-.9-2.2.4-4.2 3.2-5.3 3.8-1.3 4.8-1.3 8.7.3zm-464.1 3.8c2.2 5.1 2.7 8.3 1.3 10-.6.8-5.8 4.3-11.3 7.7-5.6 3.4-11.9 7.5-14 9.1-5 4-8 4.7-10.4 2.5-1.1-1-2-2.3-2-2.8 0-.6-1.1-2.5-2.5-4.2l-2.4-3.2 2.2-2.1c5.8-5.3 26-16.2 37.4-20.1.1-.1.9 1.4 1.7 3.1zm309 10.5c.3 2.8.2 5.4-.3 5.7-.8.5-1.6-3.2-2.6-13.4l-.5-4.5 1.3 3.5c.8 1.9 1.7 5.8 2.1 8.7zm43.3-8.5c1.6 1.8 5.4 7.6 8.4 12.8 2.9 5.2 7.1 11.7 9.1 14.3 3.5 4.6 4.8 7.7 3.1 7.7-.5 0-4.8-3.4-9.6-7.5-4.8-4-10.5-8.4-12.5-9.6-4.9-3-4.8-2.9-5.5-11.2-.9-10.2 1.4-12.4 7-6.5zm-200.7 1.8c0 .5-.7 1-1.5 1s-1.5-.5-1.5-1c0-.6.7-1 1.5-1s1.5.4 1.5 1zm-10.2 5.8c.6 3.7 4.5 3.8 9.9.3 6.4-4.3 8.3-4.1 8.3.7 0 2.9-.5 3.9-2.2 4.7-1.4.6-2.7 2.6-3.5 5.5-1.1 3.8-1.1 5.2.2 8.9 1.8 5.4 6 11.1 8.2 11.1.9 0 3.5-1.8 5.9-4 2.4-2.2 5.2-4 6.2-4 3.6 0 8 7.4 6.4 10.8-3.8 7.9-3.7 7.7-7.3 7.6-1.8-.1-4.3-.3-5.4-.5-1.7-.3-2.1.2-2.3 3.4-.2 2.1-1.2 5.3-2.3 7-2.4 4.1-2.4 7.9.1 10.2 2.4 2.2 3.6 6.6 4.4 16.5.4 4.1 1.2 10.9 1.8 15 .9 6.8.8 8-1.1 12.9l-2.1 5.5 3.5 3.2c2.9 2.6 3.5 3.9 3.5 7.2 0 2.2-.3 4.7-.6 5.6-.8 2.1-3.7 2-6.4-.2l-2.1-1.7 2-2.7c2.6-3.3 2.6-3.9-.3-8.2-2.6-3.9-4.2-12.5-5.2-28.5-.6-9.2-.5-10.1 1.5-12.6 2.9-3.8 2.7-5.1-1.9-10.1l-4-4.4v-10.9c0-6.6-.4-11.2-1-11.6-1.7-1.1-4 1.5-4 4.6 0 4-1.5 4.3-4.4.8-5-5.9-4.9-11.6.3-13.4 1.9-.6 3.8-2 4.1-3.1 1-2.7-.9-6.3-3.7-7-3.2-.8-6.5 2.3-10.6 10-1.7 3.3-5.1 7.9-7.4 10.3-2.8 2.7-4.3 5.2-4.3 6.8 0 3-3.2 6.5-5.9 6.5-1.1 0-2.3.4-2.6 1-.9 1.5-3.2 1.2-3.9-.5-.9-2.5.4-4.3 4-5.5 3.4-1.2 3.5-1.3 2.8-5.6-.6-4.1-.4-4.6 2.9-7.9 1.9-1.9 4.2-3.5 4.9-3.5.8 0 2.2-.8 3.1-1.8 1.4-1.5 1.5-2.4.5-5.5-1.4-4.7.3-6.9 7.2-9.2 2.7-.9 5.1-2.2 5.3-3 .3-.7-1-3.4-3-5.9-2.2-2.8-3.3-5.2-2.9-6.2.8-2.1 3-1.2 3.4 1.4zm328.9 3c3 4.5 2.1 6.6-2.7 5.9-7.3-.9-11.6-6.1-7.2-8.6 3.3-2 7.5-.8 9.9 2.7zm-199.7 5c0 1.3-3 5.2-4.1 5.2-1.4 0-1.1-2.2.8-4.2 1.7-1.9 3.3-2.4 3.3-1zm-105 3.2c0 3.4-1.4 3.9-3 1.1-1.5-2.9-1.2-4.1 1-4.1 1.6 0 2 .7 2 3zm302.2 1.7c2.3 2.8 2.8 5 1.3 6.3-2.4 2-8-5.1-5.8-7.3 1.1-1.2 2.9-.8 4.5 1zm-209.7 10.3c-1.6 1.6-3.1 2.8-3.4 2.5-.2-.3.8-1.9 2.4-3.5 1.6-1.6 3.1-2.8 3.4-2.5.2.3-.8 1.9-2.4 3.5zm82 8.4c1.9 5.3 3.5 10.7 3.5 11.9-.1 2.2-.1 2.2-1.6.2-2.4-3.1-8.1-24.3-6.1-22.4.4.3 2.2 4.9 4.2 10.3zm-38.8.8c-.7 10.5-4 21.2-8.2 26.3-1.7 2.2-4.2 5.9-5.4 8.2-2.3 4.5-4.7 5.9-3.5 2 .4-1.2 3.3-7.2 6.5-13.3 5.8-11.2 8.2-18 9.4-26.7 1-7.7 1.8-5.4 1.2 3.5zm168-5.1c1 1.9 1 2.7-.2 3.8-1.8 1.9-4.5-.1-4.5-3.4 0-4.2 2.7-4.5 4.7-.4zm-201.7 3.2c0 1.8-.9 5-2 7.2-1.4 2.8-1.7 4.2-.9 5.2.9 1 .7 1.4-.7 2-1.1.3-2.3 1.2-2.7 2-.4.7-1.5 1.3-2.3 1.3-.8 0-3.3.9-5.5 2-7.1 3.7-8.1-.3-1.8-7.7 9.9-11.7 14.2-16.2 15-15.7.5.3.9 2 .9 3.7zm42.7 16.1c-.5 8.2-1.3 11.6-2.7 11.6-.7 0-.4-10.7.6-19 .5-3.7.8-4.1 1.6-2.6.6 1.1.8 5.2.5 10zm47-6.7c7.7 6.2 8.1 6.8 8.8 12.6.4 3.1.5 6.7.1 7.9-.7 3-6.3 9.1-7.9 8.6-1.5-.6-5.6-14-5.6-19-.1-2 .3-4 .9-4.3.6-.4.4-1.5-.6-3-1.5-2.3-1.4-5.5.2-5.5.3 0 2.2 1.2 4.1 2.7zm-66.9 5.1c.4 4.7-2 10.2-4.4 10.2-1.3 0-1.5-.7-.9-3.8 2-11.1 4.7-14.4 5.3-6.4zm43.1-2.7c1.1 1.2 2.5 4.7 3.2 7.8.6 3.1 2.2 7.5 3.5 9.8 2.7 4.6 3.1 9.5 1.1 13.3-1.8 3.5-3.8 3-10.1-2.6-5.6-5-7-8.6-4.4-11.2.9-.9.9-1.8 0-3.7-1.5-3.2-1.6-7.5-.2-7.5.6 0 1-1.8 1-4 0-3.3.3-4 2-4 1 0 2.8 1 3.9 2.1zm153.9 2.7c.2.7-.5 1.2-1.6 1.2-1.9 0-3.2-1.8-3.2-4.2 0-1.3 4.2 1.4 4.8 3zm-698-1.6c1.6 1.6 1.5 4.8-.2 4.8-2 0-3.9-2.7-3.2-4.5.7-1.8 1.8-1.9 3.4-.3zm690.3 1.4c1.2 1.4 1.1 1.6-.5 1.3-1.1-.2-2.1-1-2.4-1.7-.5-1.7 1.3-1.5 2.9.4zm14.5 4.1c-.7 1.7-.8 1.7-2.2-.1-.8-1.1-1.4-2.9-1.4-4 0-2 0-2 2.1.1 1.5 1.4 1.9 2.7 1.5 4zm-306.6-.1c0 1.6-1.6 1.9-2.5.4-.8-1.3.4-3.2 1.6-2.5.5.4.9 1.3.9 2.1zm-257.3 5.4 1.9 3.8-6.7 10.8c-7.8 12.5-9.6 13.7-15.4 10.8-7-3.5-7-4.7-1-14.9 6.7-11.1 9.2-14.5 11.9-15.4 3.4-1.3 7.3.7 9.3 4.9zm443-2.8c-.3.7-.5.2-.5-1.2s.2-1.9.5-1.3c.2.7.2 1.9 0 2.5zm-226.6 5.5c-3 4.3-3.1 4.5-1.5 7.5 1.8 3.5 1.6 5.6-1.6 18.3-1.7 6.7-2.9 9.6-4.9 11.2-3.3 2.9-3.9 2.9-4.7-.3-.5-2.1 0-3.3 3-6.3 3.7-3.8 3.7-3.8 2.5-8.5-1.3-5.3-.7-17 1.2-22.4 1.3-3.9 8.1-8.2 8.7-5.5.2.9-1 3.5-2.7 6zm353.9-4.6c0 .6-.4.7-1 .4-.5-.3-1-1.1-1-1.6 0-.6.5-.7 1-.4.6.3 1 1.1 1 1.6zm-219 3c0 1.8-.4 2.8-1 2.4-.5-.3-1-2-1-3.6 0-1.8.4-2.8 1-2.4.6.3 1 2 1 3.6zm95.5 5.9c.3.5-.1 1-.9 1-.9 0-1.6-.5-1.6-1 0-.6.4-1 .9-1 .6 0 1.3.4 1.6 1zm-265.6 1.9c1.2.8 1.3 1.4.3 3.5-1.4 3.2-2.6 3.3-4.7.4-1.4-2.1-1.4-2.4.2-3.5 2-1.5 2.3-1.6 4.2-.4zm18.1 4.2c1.3 4.8 0 15.6-3.2 25.9-2.6 8.5-4.9 12.8-8.6 16.3-3 2.9-3 2.9-6.6 1.2-12.6-6-8.9-25.7 8-42.8 6-6.1 8.9-6.3 10.4-.6zm63.1-2.1c6.5 2 6.8 2.2 9.9 7.7l3.2 5.7-2.6 1.9c-1.4 1-2.6 2.8-2.6 3.8 0 1.1-.4 1.7-1 1.4-.5-.3-1-3-1-5.9 0-6.1-.8-7.1-6.8-8.1-4.3-.7-7.2-3.4-7.2-6.7 0-2.2-.2-2.2 8.1.2zm193.3 4.6c.3.9.6 4.7.6 8.5 0 6.5-.2 7-2.5 7.9-1.5.6-3.6 3.1-5.5 6.7-3.5 6.8-3.1 2.5.5-4.7 1.3-2.5 2.6-7.6 3-11.5.4-3.9.9-7.3 1.2-7.8.7-1.2 2.1-.8 2.7.9zm-86.7 1.6c-.3.8-.6.5-.6-.6-.1-1.1.2-1.7.5-1.3.3.3.4 1.2.1 1.9zm-30.8 5.5c-1 3.8-2.1 8.8-2.4 11.2-.4 4.8-3.3 9.6-5.6 9.6-1.3 0-9.8-14.7-9.9-17.1 0-.6 1.8-3.2 4.1-5.8 4-4.5 4.2-4.6 9.9-4.6h5.9zm94-2.7c2.2.6 2.3.9.9 1.5-2 .8-7-1.4-7.6-3.3-.4-1.2 0-1.2 1.9-.2 1.2.7 3.4 1.6 4.8 2zm-358.4 1.3c6.2 3.3 8 6.2 5.5 9.3-1.8 2.1-4.9 1.7-10.5-1.4-3.9-2.1-5.1-3.3-5.3-5.5-.8-6.6 1.5-7.1 10.3-2.4zm395.2 3.2c1.8 7 3.5 24.9 2.7 28-.9 3.7-2.6 3.1-8.3-3.1-5.8-6.3-5.9-7.1-3.6-20.2 1.7-9.9 2-10.4 5.3-10 2.3.3 2.9 1 3.9 5.3zm-441.3-3.5c5.5 2 5.4 7.5-.1 10.2-2.4 1.2-4.4 3.5-7.9 9.4-1 1.7-1.2 1.7-5.6.1-6.3-2.4-8.2-4.8-7.4-9 .8-4.3 5.2-8.5 10.7-10.2 5.4-1.7 7.1-1.8 10.3-.5zm325.6-.6c0 .2-2 5-4.5 10.7-2.4 5.7-4.5 10.9-4.5 11.5 0 .5-1.6 2.6-3.6 4.5l-3.5 3.4 3.1-6.6c1.7-3.6 3.7-9.7 4.5-13.5.9-4.6 2.1-7.5 3.6-8.7 1.9-1.5 4.9-2.3 4.9-1.3zm-182.2 1.8c1.9 1.9 1.4 4.4-1.2 6.1-1.3.9-3.3 3.6-4.5 6.1-2.3 4.7-9.6 13.6-11.2 13.6-1 0-1.2-3.1-.3-5.5.4-.9 2.3-2.4 4.3-3.4 3.2-1.7 3.8-2.5 4.9-7.7.6-3.2 2.1-6.8 3.4-8.1 2.5-2.6 2.9-2.8 4.6-1.1zm201.5 2.9c1.1 1.7.1 8.9-1.2 8.9-1.1 0-2.1-3.6-2.1-7.8 0-3.5 1.5-4 3.3-1.1zm6.9 12.2c-.3 11.3 0 14.2 1.6 19 2.3 6.5 11.1 21.7 13 22.4.6.3 2.3-.2 3.7-1.1 2.5-1.6 2.5-1.6 1.4 1.1-1.4 3.8-.4 6.8 4.6 13.9 7.4 10.4 20 20.6 27.3 22 3 .6 4.7-.7 5.4-4.1.4-2.3 3.8-3.4 3.8-1.2 0 .8-.7 2-1.5 2.7-6.1 5 5.8 14 18.6 14 8.7 0 9.5-1 6.5-7.7-3.2-6.8-4.6-13.9-4.6-23.3 0-11.6 1.7-10.6 2.2 1.3.6 12 3 18.2 7.9 20 3.3 1.3 3.5 2.5 1.4 6.6-3.3 6.4-15.5 8.8-25.8 5.1-13.8-5-31.8-16.9-43.8-29-9.6-9.7-20-25.9-23.4-36.5-2.6-8-2.8-9.2-2.2-20.3.8-13.7 1.5-18.2 3.1-18.2.8 0 1 3.9.8 13.3zm-18.5-8.1c1.3 2.2 1.2 15.1-.3 20.5-.8 3.1-2.3 5.8-3.6 6.8-2.5 1.7-9.8 2.1-9.8.4 0-.5 1.3-4.1 2.9-7.8 1.6-3.7 3.2-8.2 3.5-9.9.4-1.7 1.3-3.6 2.1-4.2.8-.6 1.7-2.5 2-4.1.7-3.1 1.9-3.7 3.2-1.7zm-486.7 1.8c0 .5-2.1 2.1-4.7 3.6-2.7 1.5-7.2 4.7-10.2 7.1-2.9 2.4-5.7 4.3-6.2 4.3-1.7 0-.9-2.2 1.9-5.3 6.8-7.6 8.1-8.7 10.9-8.8 1.5 0 3.7-.4 4.8-.9 2.7-1.2 3.5-1.2 3.5 0zm390.3 7.7c5.3 3.9 11.4 11.4 12.4 15.1.3 1.4-.3 4.5-1.5 7.6-1.1 2.8-2.4 6.2-2.8 7.6-1.1 4.1-3.3 6.7-6.9 8.4-4.7 2.2-7.9 2-11.3-.9-4.2-3.5-6.3-9.6-6.9-20.1-.7-11.6 0-15.5 3.7-19.4 3.6-3.9 6.1-3.6 13.3 1.7zm-39.8-.3c3.7 8.7 6.6 36.8 4.5 43.2-2.4 7.6-8.8 11.7-12.1 7.8-.7-.8-2.5-2.2-4.1-3-1.7-.9-2.8-2.3-2.8-3.5 0-1.1-.7-3.4-1.6-5.1-2.1-4.1-2-7.7.6-17.3 4-14.5 9.4-25.5 12.6-25.5.8 0 2.1 1.5 2.9 3.4zm173.1 1.1c4 3 5.4 7.4 5.4 16.6 0 5.1-.5 7.2-2 9.1-1.1 1.4-2.4 3.7-3 5.2-2 5.4-4.3 2.9-8.6-9.4-2.9-8.4-3.5-11.3-3-14.9 1.2-9 5.1-11.2 11.2-6.6zm-113.8 1.6c3 1 4.2 3.2 4.2 7.7 0 1.4 2 4.4 4.9 7.5 5.6 6.1 7.3 8.9 6.5 11.1-1 2.5-2.9 1.9-6.2-1.9-4.3-4.9-7.9-11.4-8.6-15.8-.6-2.9-1.3-4-3.4-4.7-3.8-1.4-5.5-2.5-6-3.8-.5-1.5 4.4-1.6 8.6-.1zm152 9.4c0 4.2-.1 4.6-.8 2.2-.8-2.7-1.4-9.2-1-11.2.5-2.3 1.8 4.4 1.8 9zm-555.5-3.7c-.5 1.2-.7 1.2-1.5-.2-1.1-2 .1-4.4 1.2-2.5.5.6.6 1.9.3 2.7zm490.7-2.4c0 .3-.4.8-1 1.1-.5.3-1 .1-1-.4 0-.6.5-1.1 1-1.1.6 0 1 .2 1 .4zm55 6c0 1.2.9 6.2 2 11.2 2.1 9.5 2.6 17.4 1.1 17.4-1.2 0-4-4-7.5-11-2.6-4.9-2.8-6.2-2.4-13.1.3-4.5 1-8.5 1.8-9.4 1.3-1.6 1.6-1.5 3.2.5 1 1.2 1.8 3.2 1.8 4.4zm-366.7-1c1.8.7 4 2.2 5 3.3 1.8 2 1.7 2.1-1.6 4.2-4.4 2.7-6.9 2.7-10.3-.3-2.6-2.2-2.7-2.5-1.5-5.5 1.5-3.5 3.4-3.9 8.4-1.7zm401.2 2.7c3.6 4.4 11.7 21.6 11.9 25.3.1 2.9-.2 3.1-3.4 3.4-1.9.1-5.1-.6-7-1.5-3-1.6-3.6-2.5-4.7-7.3-2.6-12.1-2.8-23-.4-23 .5 0 2.1 1.4 3.6 3.1zm-91.5.9c0 .5-.4 1-1 1-.5 0-1-.5-1-1 0-.6.5-1 1-1 .6 0 1 .4 1 1zm-221 1.9c0 2.4-2.5 4.5-4.5 3.7-1.5-.5-2.1-3.7-.8-4.9.3-.4 1.7-.7 3-.7 1.6 0 2.3.6 2.3 1.9zm289.4 5.2c-.3.5-1 .7-1.5.3-.5-.3-.7-1-.3-1.5.3-.5 1-.7 1.5-.3.5.3.7 1 .3 1.5zm-334.5 3c3.6 1.3 3.5.7 1.7 12.4-1.3 8.8-3.7 15.5-5.5 15.5-.5 0-2.2-.6-3.8-1.4-1.5-.8-4.1-1.8-5.8-2.3-4.1-1.1-4.4-4.9-1.1-11.6 1.4-2.9 3-7.1 3.6-9.5 1-3.9 1.3-4.2 4.4-4.2 1.8 0 4.7.5 6.5 1.1zm312.2 7c3.8 7.6 2 6-3.1-2.6-1.8-3-2-3.7-.6-2.6.9.8 2.6 3.2 3.7 5.2zm-218.6-3c0 .7-.8 1.5-1.7 1.7-1.8.3-2.5-1.8-1.1-3.2 1-1 2.8-.1 2.8 1.5zm208.1 3.4c-.9 1.4-2.3 2.5-3.2 2.5-1.7 0-1.2-1.3 2-4.8 2.5-2.8 3.4-1.1 1.2 2.3zm37.4-4.1c0 1.5-4.1 9.6-4.9 9.6-1.1 0-.1-4.4 1.8-7.9 1-1.8 3.1-3 3.1-1.7zm8.6 5c.5 2.7 0 4.6-2.2 8.6-4.7 8.7-7.5 9.4-5.5 1.3 1.6-6.4 4.7-13.3 6-13.3.6 0 1.3 1.5 1.7 3.4zm-388.6 2.6c2.7 2.7 2.5 3.8-.6 5.2-2.2 1.1-2.8 1-4-.7-3.7-5 .2-8.9 4.6-4.5zm244.9.4c1.4 1.7.5 4.3-2.1 5.7-2.8 1.5-4.4-.8-3.9-5.9.1-1.6 4.6-1.5 6 .2zm-323 1.7c2.1 2.3 7.1 13.9 7.1 16.5 0 2.2-10.9 13.4-13.1 13.4-2.2 0-6.7-5.3-7.5-8.8-.4-1.5-1.9-5-3.4-7.7-3.5-6.2-4.7-11.9-3-14 .9-1.1 3.4-1.5 9.6-1.5 7.2 0 8.6.3 10.3 2.1zm210.5 3.1c-2.3 7.7-8.2 15.3-10.1 13.4-1.4-1.3 2.2-9.3 5.4-12.3 4-3.9 5.7-4.2 4.7-1.1zm231 2.3c3.2 2.5 6.9 4.5 8.2 4.5 1.9 0 2.4.5 2.4 2.5 0 1.4-.3 2.5-.7 2.5-1.4-.1-16.7-11.5-17.1-12.8-.7-2.2 1.4-1.3 7.2 3.3zm10.7.8c-1.7 1.7-2.4.1-1-2.5 1.2-2.1 1.4-2.1 1.7-.4.2 1-.1 2.3-.7 2.9zm-403.4 1.4c2 3 .6 6.8-3.2 8.5-2.2 1-2.8.8-4.4-.9-1-1.1-3.3-2.5-5-3.3-3.4-1.3-3.8-2.7-1.8-5.3 3-4.2 11.4-3.6 14.4 1zm377.9 3.8c.8 1.3 3.4 3.5 5.7 4.9 5.6 3.3 11 9 10.5 11.1-.1 1-1.1 2.3-2 2.9-1.5.9-2.9 0-8.9-5.9-7.5-7.4-9.8-10.9-9.2-13.8.6-2.4 2-2.1 3.9.8zm-166.3 1.9c.3.7.9 3.4 1.2 6 .6 3.9.5 4.6-1 4.6-4.1 0-9.4-8.8-6.8-11.3 1.2-1.2 6.1-.7 6.6.7zm230.4 1.8c-.3.7-.5.2-.5-1.2s.2-1.9.5-1.3c.2.7.2 1.9 0 2.5zm-28.9 6c-1.2 3.6-3.8 7-3.8 5 0-1.7 3.3-8.2 4.1-8.2.5 0 .3 1.5-.3 3.2zm-264.7 1.5c1 3.2 1 3.8-.7 5-2.2 1.6-3.6 1.7-5.2.1-1.6-1.6-1.5-3.9.4-6.6 2.2-3.2 4.1-2.7 5.5 1.5zm256.6-1.5c-.3.8-.6.5-.6-.6-.1-1.1.2-1.7.5-1.3.3.3.4 1.2.1 1.9zm-192 9.5c-.2 1-.6 2.2-.7 2.8-.2.5 0 2.7.5 4.8.5 2.6.3 4.6-.5 6.3-1.7 3-2.4 3-3.8-.1-1.9-4.1-1.5-9.9.9-12.9 2.3-3 4.4-3.5 3.6-.9zm228.4 6.6c-1.9 1.9-2.3 0-.9-3.9l1.3-3.8.3 3.3c.2 1.9-.1 3.8-.7 4.4zm-21.1 1.2c3.1 1.6 5 4.3 5 7.1 0 1.4-.7 1.6-4.5 1.2-5-.6-9.5-3.1-9.5-5.3 0-1.8 2.7-4.5 4.6-4.5.8 0 2.8.7 4.4 1.5zm-398 4.5c1.1 2.1 2 4.6 2 5.4 0 2.5-6.6 3.7-22.7 4.3-17.8.7-18.4.3-14.2-7.6 2.6-5.1 2-4.9 13.9-3.6 4.7.5 7.6.3 10.5-.8 6.7-2.5 8.2-2.2 10.5 2.3zm190.8 11.3c.2 1-.3 1.7-1.1 1.7-1.6 0-3-2.4-1.9-3.4 1-1 2.7-.1 3 1.7z"/>
  <path d="M548.688 14.88c-.1.7 0 4.3.1 8 .1 5.5-.2 7-1.9 8.7-1.2 1.2-3 2.1-4 2.1-3.2 0-3.6 2.2-.9 4.4 2.1 1.7 2.4 2.4 1.4 3.9-.9 1.5-.6 2.2 1.9 4.3 9.1 7.4 11.5 11.2 11.5 18.1 0 7.1-.9 7.3-10.5 2.5-8.3-4.1-13.5-5.3-13.5-3.1 0 .5 2.3 2 5 3.1 7.1 2.9 5.5 3.4-2.3.6-3.6-1.2-6.9-1.9-7.4-1.5-.4.4.9 2.3 2.9 4.1 2 1.8 4.8 5.3 6.3 7.7 1.6 2.4 5.4 7.2 8.6 10.7 7 7.4 10.1 13.1 9.7 17.5-.2 2.7-.8 3.3-3.3 3.7-2.2.4-3.1 1.1-3.3 2.8-.3 2.3-2.1 2.9-3.8 1.3-3-2.7-17.4-5.4-17.4-3.2 0 .5 1.5 1.8 3.3 3 2.8 1.8 2.9 2.1 1 2.1-1.2 0-4.3-.7-6.8-1.6-9.4-3.2-12.8.2-4 4 7 3.1 14.8 11 19.3 19.3 3.7 7 4 9.8 1.3 11.3-1.1.5-7.6 1-14.5 1-7.2 0-12.7.4-13.1 1-.3.5-.5 1-.3 1 7.9.9 17.7 3.6 23.7 6.6 8 3.9 18.1 13.1 21.3 19.1.9 1.8 2.1 3.3 2.7 3.3.5 0 1.4-1.5 2-3.3 1.6-4.5 3.3-22.3 2.5-26.1-1.1-5.1-5.2-11.2-14.6-21.7-4.9-5.4-8.4-9.9-7.9-9.9 2.1 0 14.2 12.4 17.6 18 4 6.6 6 8.6 7 7.1.3-.6 1-5.9 1.5-11.7 1.1-14.8 3-16 3-2.1 0 6.1.4 10.7.9 10.7.6 0 2.2-1.5 3.6-3.4s5.7-5 9.8-7.2c4-2.1 9.5-5.2 12.2-6.9 2.8-1.8 10-5.7 16.1-8.9 10.8-5.4 15.4-8.8 13.7-9.9-.5-.3-3.8.7-7.3 2.3-8.4 3.7-34.3 11.2-37.3 10.8-3.9-.5-3.2-4 2.9-12.8 7.4-10.9 24.4-43.2 23.3-44.4-2.2-2.5-15.9 9.9-26.7 24.1-3.4 4.5-7.5 9.1-9.2 10.3-3.1 2.2-3.1 2.2-2.4 9.5 1 10.5-1.1 10.5-2.4-.1-.6-4.6-2-10.4-3-12.8-1.6-3.4-1.7-4.6-.7-5.9.8-1.1 1-4.4.7-9.9-.6-11.9 1.4-9 3.3 4.7.8 6 1.9 11.3 2.4 11.8s2.5-1.2 4.7-3.9c2.2-2.6 7.5-8.7 11.9-13.6 12.2-13.6 14.8-16.8 14.3-17.4-.7-.7-13 5.9-18.9 10.1-2.7 1.9-5.4 3.5-5.9 3.5-.6 0-1-2.6-1-5.9 0-6.1 3.1-17.8 7-26.7 2.5-5.7 2.2-9.6-.6-7.3-.8.7-3.3 4.4-5.6 8.3-2.2 3.9-6.1 10.1-8.5 13.7-3.9 5.8-4.3 6.9-3.3 9.3 1.2 3.4 1.2 3.6 0 3.6-.5 0-1.4-1.9-2.1-4.3-.6-2.3-1.7-5.4-2.5-6.9-1.2-2.2-1.2-3.2-.2-4.7 1.2-1.9 1.3-1.9 2.5 1 .7 1.7 1.7 2.9 2.2 2.7 1.1-.3 14.1-21.6 14.1-23 0-1.4-1.2-.9-6.7 2.9l-5.4 3.7-2.8-3c-1.5-1.6-4-6.2-5.5-10.2-2.5-6.5-3.2-7.5-6.9-9.2-4.8-2.4-4.7-2.3-4.8-.8zm1.6 28.8c.3.5.1 1-.4 1-.6 0-1.1-.5-1.1-1 0-.6.2-1 .4-1 .3 0 .8.4 1.1 1zm5.1 34.8c-.4.3-1.4-.2-2.4-1.2-1.6-1.8-1.6-1.8.6-.6 1.3.6 2.1 1.4 1.8 1.8z"/>
  <path d="M515.788 52.58c-1.1 2.2-1.3 7.1-.4 9.5.6 1.7 4.4 2.3 4.4.7 0-2.4 3.4-4.1 8.2-4.1 6.2 0 6-1.5-.8-5.2-5.9-3.3-9.9-3.6-11.4-.9zm94.5 68.2c-16.1 8.6-20.9 12-32.2 22.6l-7.3 6.8-1 16.9c-.6 9.3-.8 17.1-.5 17.4.3.3 2.5-.4 5-1.6 2.4-1.2 12.4-5.1 22.2-8.7 24.2-8.8 26.8-10.2 26.8-14 0-3.4 1.1-3.2-13.5-1.9-6.8.5-7.7.4-9.7-1.5-3.6-3.4-2.9-6.4 2.7-12.6 2.8-3 5-6.5 5-7.6 0-3.8 4-8.8 11.9-14.8 4.2-3.2 8.2-6.6 9-7.5 3.1-3.7-3.9-1.2-18.4 6.5zm217.8 15.2c-4.8 1.8-6.1 3.4-4.2 5.2 1.3 1.3 2 1.2 6.2-1.5 6.9-4.4 5.8-6.5-2-3.7zm-22.3 59.2c0 .8.7 1.5 1.5 1.5s1.5-.7 1.5-1.5-.7-1.5-1.5-1.5-1.5.7-1.5 1.5zm-12 8.2c-8.5 4.5-9.9 5.6-8.2 6.7 1.1.6 20.6-8.7 21.6-10.3 1.6-2.5-5.4-.7-13.4 3.6zm-45 16.2c0 .5.6 1.3 1.3 1.9 1.5 1.3 4.2-.1 3.3-1.7-.8-1.3-4.6-1.5-4.6-.2zm-63.4.3c-2.2 3.2-2 6.2.7 9.4l2.4 2.7 3.2-2.4c2.9-2.1 4.2-2.3 13.4-2.3 8.3.1 11.2.5 15.5 2.4 5.2 2.2 7.1 2.2 5.7 0-1.2-1.9-15.4-8-23.4-10.1-10.2-2.6-15.5-2.5-17.5.3zm237.7 89.1c-2.6 1.8-10.3 7-16.9 11.5-18 12.2-21.6 17.1-4.9 6.6 13.2-8.3 16.1-9.5 20.7-9.2 5 .4 6.7 2.5 5.1 6.1-2.3 5.1-61.1 41.7-66.9 41.7-4 0 .5-5.5 8.4-10.5 2.4-1.4 4.2-2.9 3.9-3.1-.7-.7-6 2.1-12.9 6.8-3.2 2.1-7.8 4.7-10.2 5.7-2.5 1.1-4.5 2.7-4.8 3.9-.7 2.7 1.8 6.2 4.3 6.2 2.4 0 10.8-4.1 16.9-8.4 2.5-1.7 9.7-5.8 16.1-9.2 6.3-3.3 19.2-10.8 28.5-16.6 9.3-5.8 19.7-11.9 23.2-13.7 3.4-1.7 6.2-3.6 6.2-4.1 0-.5-1.3-1.6-3-2.5-3.7-1.9-5.6-4.8-6.5-9.8-.4-2-1.1-3.9-1.5-4.2-.4-.3-3 1-5.7 2.8zm-89.6 36.2c-5.3 6.8-9.7 13.1-9.7 13.9 0 1.9.7 2.3 5.1 3.1 3.5.6 3.6.6 13.9-11.7 10.5-12.4 10.6-12.9 1.5-5.1-9 7.7-11.3 4.7-4.4-5.6 6.9-10.4 3.8-7.7-6.4 5.4zm-31.3-4.2c-3.4 2.9-8.1 6.8-10.5 8.8-3.8 3.1-4.2 3.8-3.1 5.2 1.8 2.2 11.4 3.3 15.2 1.7 1.9-.8 3.7-2.8 5.1-5.6 2.3-4.9 2-7.4-1-7.4-3.1 0-3.5-1.9-1-4.6 4.1-4.4 1.5-3.3-4.7 1.9zm66.6 78.6c-10.9 3.6-23.8 8.9-27.1 11.2-1.5 1.1-3 3-3.3 4.4-.7 2.6.8 6.5 2.3 6.5.5 0 4.2-2.2 8.4-5 5.2-3.4 7.8-5.8 8.5-7.9 1.2-3.5 2.2-4.1 13.6-8.2 4.7-1.7 8.6-3.3 8.6-3.5 0-.9-2.8-.2-11 2.5zm-589.4-158.1c3.4 3.1 6.8 5.1 7.5 4.6 1.6-1 .9-2.3-2.1-3.9-3.1-1.6-7.1-2.1-5.4-.7zm10.4 7.2c0 1.5 2.7 2.3 4.7 1.6 1.5-.6 1.5-.8.3-1.6-2-1.3-5-1.2-5 0zm20.5 11.9c-.6 1.1.9 2.3 1.9 1.4.9-.9.7-2.3-.3-2.3-.6 0-1.2.4-1.6.9zm11.5 9.9c0 .5 1.1 1.9 2.5 3.2 1.3 1.2 3.9 4.7 5.7 7.6 1.8 3 4.1 5.7 5.3 6 1.1.4 2.8 1.3 3.8 2.2 3.1 2.7 3.2.3.1-3.1-1.7-1.7-4.3-5.2-5.9-7.6-4.1-6-11.5-11.4-11.5-8.3zm20.2 26.4c-.6.6-1.2 2.2-1.2 3.5 0 1.8.6 2.3 2.4 2.3 3.2 0 5.3-2.6 3.9-4.8-1.3-2.2-3.5-2.6-5.1-1zm-152.3 80.2c1.9 2 3.9 3.6 4.5 3.6 1.3 0-3.4-4.9-5.9-6.2-1.2-.6-.6.4 1.4 2.6zm23.1 11.4c3.8 10.1 9 18.8 9 15.2 0-1.4-7.4-16-9.4-18.5-1.3-1.6-1.2-.8.4 3.3zm-18 18.7c.7.9 1.5 1.3 1.7 1.1.7-.7-.7-2.6-1.9-2.6-.6 0-.6.6.2 1.5zm4 4.5c0 .5.5 1 1 1 .6 0 1-.5 1-1 0-.6-.4-1-1-1-.5 0-1 .4-1 1zm5.5 21.6c3.1 2.6 10.5 6.8 10.5 6 0-.8-11.3-8.6-12.4-8.6-.6.1.3 1.2 1.9 2.6zm13.7 9.6c.5 1.5 2.8 2.3 2.8 1 0-.5-.7-1.3-1.6-1.6-1-.4-1.4-.1-1.2.6zm-15.2 2.6c0 1.4 1.1 2.1 2.6 1.5.8-.3 1.1-.9.8-1.4-.7-1.1-3.4-1.2-3.4-.1zm-141.8 184.8c1 1 2 1.5 2.4 1.2.3-.4-.5-1.2-1.8-1.8-2.2-1.2-2.2-1.2-.6.6zm125.1 91.7c3 2.5 9.5 5.2 10.4 4.4 1.6-1.6-6.8-6.7-10.9-6.7-2.3.1-2.2.1.5 2.3zm109.6-.7c-1.1 1.4-1 1.5 1.1 1.2 1.3-.1 2.5-.9 2.8-1.6.5-1.7-2.3-1.5-3.9.4zm-164.9 7.9c.7.8 2.6 1.5 4.2 1.5 2.6 0 2.9-.2 1.8-1.5-.7-.8-2.6-1.5-4.2-1.5-2.6 0-2.9.2-1.8 1.5zm2.3 13.2c-1.8.6-1.6 2.3.1 2.3 1.7 0 3-1.6 1.9-2.3-.5-.2-1.4-.2-2 0zm-25.7 5.4c.4 2.4.8 4.6 1.1 4.8.8 1 9.8-3.6 9.8-4.9 0-.9-1.4-1.7-3.5-2.1-1.9-.4-4.5-1-5.8-1.4-2.2-.7-2.2-.6-1.6 3.6zm-12.9 30.3c-.9 1.3-2.6 2.7-3.7 3.1-2.8.9-2.5 2.5.5 2.5 1.4 0 3-.9 3.7-2 .7-1.1 1.9-2 2.6-2 1.6 0 1.2-3.2-.4-3.7-.6-.2-1.8.7-2.7 2.1zm-11.3 6.7c-1 1.7 1.3 3.6 2.7 2.2 1.2-1.2.4-3.3-1.1-3.3-.5 0-1.2.5-1.6 1.1zm174.2 120.8c-3.4 3.5-4.1 6.1-1.7 6.1 1.4 0 8.1-7.3 8.1-8.7 0-2.4-2.6-1.3-6.4 2.6zm-19.9 10c-3.8 1.5-7.2 3.3-7.7 4.1-1.1 1.7.6 4 2.9 4 2.2 0 16.4-8.2 16.9-9.8.6-2-4.6-1.3-12.1 1.7zm-9.2-648.9c-2.7.7-2.5.8 1.8.9 3 .1 4.6-.3 4.2-.9-.7-1.1-1.6-1.1-6 0zm-168.9 400.8c-.3.6-.1 1.4.5 1.7 1.5 1 2.5-.3 1.2-1.6-.7-.7-1.3-.7-1.7-.1zm298.9 156.3c-.4.6-.3 1.5.3 2.1.6.6 1.1.4 1.5-.6.7-1.8-.9-3.1-1.8-1.5zm.2 4.6c-.3.5-.1 1.7.4 2.8.7 1.7.8 1.7.8-.8.1-2.7-.4-3.4-1.2-2zm429.3 32.2c0 2.6 15.5 31.6 15.8 29.6.1-1.1-2.9-8.1-6.7-15.4-7-13.5-9.1-16.7-9.1-14.2z"/>
</svg>